<svg width="88" height="31" viewBox="0 0 88 31" fill="none" xmlns="http://www.w3.org/2000/svg">
<g clip-path="url(#clip0_1455_3732)">
<path d="M45.8712 2.29205C42.3066 1.40263 38.8852 6.99688 37.0194 14.4852C35.1537 21.9737 35.5499 28.5205 39.1148 29.4099C42.6797 30.2993 46.1009 24.7051 47.9666 17.2166C49.8324 9.72826 49.436 3.18133 45.8712 2.29205ZM57.0714 15.8509C56.6549 24.113 50.216 30.8107 41.7387 30.8107C33.2615 30.8107 27.4982 24.113 27.9148 15.8509C28.3314 7.58877 34.7702 0.891235 43.2473 0.891235C51.7245 0.891235 57.4879 7.58877 57.0714 15.8509ZM76.7789 2.29205C73.2141 1.40263 69.7927 6.99688 67.9271 14.4852C66.0615 21.9737 66.4573 28.5205 70.0221 29.4099C73.5868 30.2993 77.0083 24.7051 78.8739 17.2166C80.7395 9.72826 80.343 3.18133 76.7789 2.29205ZM87.9787 15.8509C87.5623 24.113 81.1234 30.8107 72.6462 30.8107C64.1691 30.8107 58.4057 24.113 58.8222 15.8509C59.2387 7.58877 65.6775 0.891235 74.1547 0.891235C82.6319 0.891235 88.3951 7.58877 87.9787 15.8509ZM26.4623 20.4935C26.2309 27.1288 20.0101 30.7277 13.6058 30.7277C8.17957 30.7277 3.11307 27.824 0.734863 26.058L3.41037 18.6185L3.5699 18.6759C7.96963 25.257 11.7083 29.7897 15.6167 29.437C18.2016 29.2037 19.7372 27.6267 19.8462 24.5019C19.9979 20.1551 16.682 14.7661 4.2069 16.9898L4.02026 16.9224L9.63584 1.30636H28.4582L25.9314 8.33332H8.29713L6.63439 12.9575C16.599 7.83554 26.7155 13.2387 26.4623 20.4935Z" fill="white"/>
</g>
<defs>
<clipPath id="clip0_1455_3732">
<rect width="87.265" height="29.9194" fill="white" transform="translate(0.734863 0.891235)"/>
</clipPath>
</defs>
</svg>
