<svg width="74" height="31" viewBox="0 0 74 31" fill="none" xmlns="http://www.w3.org/2000/svg">
<path d="M23.3633 3.08177V5.18726H24.7996C25.5815 5.18726 26.2815 5.19622 26.3451 5.19622C26.4269 5.19622 26.4542 7.68697 26.4542 17.3364V29.4766H28.7724H31.0906V15.2309V0.985234H27.2269H23.3633V3.08177Z" fill="white"/>
<path d="M44.2283 1.37057C44.0829 1.57663 43.0192 2.99224 41.8647 4.52432C34.5556 14.1917 35.0011 13.5735 34.4102 14.8099C33.592 16.5122 33.3465 17.5694 33.3283 19.3524C33.3192 21.2339 33.6011 22.4344 34.4556 24.1457C35.9283 27.0665 38.7465 29.1451 42.1374 29.7992C43.2556 30.0142 45.2283 30.0142 46.3192 29.7992C47.9192 29.4946 49.6465 28.7509 50.8829 27.846C53.0192 26.296 54.4829 24.0113 55.0102 21.4399C55.2283 20.3827 55.2374 18.537 55.0465 17.435C54.1829 12.561 49.6556 8.7801 44.6647 8.7801C44.292 8.7801 44.092 8.74426 44.1102 8.68155C44.1283 8.63675 44.3556 8.32317 44.6102 7.99166C44.8738 7.66016 45.6102 6.72837 46.2465 5.91305C46.892 5.09773 47.6465 4.1301 47.9283 3.76276C48.2192 3.39542 48.7374 2.72346 49.092 2.28444C49.4465 1.83646 49.8192 1.37057 49.9192 1.22721L50.1011 0.985305H47.3011H44.5011L44.2283 1.37057ZM45.7829 13.1703C47.1465 13.5107 48.3192 14.2813 49.1283 15.3474C49.7465 16.1538 49.9374 16.5391 50.2374 17.5336C50.692 19.0209 50.5374 21.0099 49.8556 22.3269C49.2556 23.5006 48.1829 24.5847 47.092 25.1313C45.8647 25.7405 44.2374 25.9555 42.9192 25.6778C40.8374 25.2477 39.1011 23.6529 38.392 21.5474C38.0829 20.6157 37.992 18.761 38.2192 17.8113C38.7283 15.6431 40.3102 13.9139 42.3647 13.2778C43.1283 13.0359 43.2556 13.018 44.2374 13C44.8011 12.9911 45.292 13.0448 45.7829 13.1703Z" fill="white"/>
<path d="M10.5456 7.89308C8.18196 8.1977 5.82742 9.3266 4.1456 10.9662C2.48196 12.5789 1.58196 14.1827 1.00014 16.5749C0.727417 17.6948 0.700144 19.8989 0.945599 21.0098C1.45469 23.2945 2.40923 25.0506 4.0456 26.6633C5.70923 28.3119 7.51833 29.2885 9.80923 29.7454C10.9456 29.9694 12.7911 29.9963 13.9456 29.7902C15.282 29.5572 16.8547 28.9659 17.9365 28.285C18.2274 28.0968 18.5001 27.9535 18.5456 27.9535C18.6001 27.9535 18.6365 28.276 18.6365 28.715V29.4766H20.9092H23.182V18.9939V8.51129L20.8911 8.52921L18.5911 8.55608V9.18325C18.5911 9.62227 18.5547 9.80146 18.482 9.7925C18.4183 9.77458 18.1092 9.61331 17.8001 9.42516C16.682 8.74423 15.2729 8.21562 13.9547 7.97371C13.2365 7.83932 11.2911 7.79452 10.5456 7.89308ZM13.9547 12.6775C16.1547 13.4032 17.7547 15.0517 18.3638 17.22C18.6001 18.0801 18.6274 19.5136 18.4092 20.3827C17.6001 23.6798 14.2274 25.9107 10.9547 25.3194C9.59105 25.0685 8.77287 24.7101 7.80923 23.9217C6.56378 22.9182 5.83651 21.7176 5.50924 20.1318C4.87287 17.1035 6.67287 13.9049 9.62742 12.8029C10.5547 12.4624 11.1729 12.3639 12.2274 12.3997C13.0092 12.4266 13.4001 12.4893 13.9547 12.6775Z" fill="white"/>
<path d="M57 10.7063V12.8118L62.2182 12.8297L67.4455 12.8566L66.1545 14.3887C65.4455 15.2309 64.1273 16.7988 63.2273 17.874C61.6545 19.7465 59.2091 22.6673 57.7091 24.4503L57 25.2925V27.389V29.4766H65.0909H73.1818V27.3711V25.2656L67.9364 25.2477L62.6909 25.2208L64.1 23.5633C64.8727 22.6494 66.5818 20.6156 67.9091 19.0387C69.2364 17.4618 70.9636 15.4101 71.7545 14.4783L73.1818 12.767L73.1636 10.7063L73.1364 8.64564L65.0727 8.61876L57 8.60084V10.7063Z" fill="white"/>
</svg>
