<svg width="147" height="34" viewBox="0 0 147 34" fill="none" xmlns="http://www.w3.org/2000/svg">
<g clip-path="url(#clip0_1455_3662)">
<path d="M77.1814 20.3528C73.4694 20.3528 70.5278 23.2244 70.5278 27.0064C70.5278 30.7885 73.5395 33.66 77.1814 33.66C80.8934 33.66 83.835 30.7184 83.835 27.0064C83.835 23.2244 80.8934 20.3528 77.1814 20.3528ZM77.1814 23.0143C79.4226 23.0143 81.1035 24.6952 81.1035 27.0064C81.1035 29.3177 79.3526 30.9986 77.1814 30.9986C74.9402 30.9986 73.2593 29.3177 73.2593 27.0064C73.1893 24.6952 74.9402 23.0143 77.1814 23.0143Z" fill="white"/>
<path d="M132.581 29.3877V23.2944H135.733V20.633H132.581V17.0611L129.85 17.9015V20.633H127.539V23.2944H129.85V29.3877C129.85 32.6795 131.531 33.8701 135.733 33.3098V30.8585C133.632 30.9986 132.581 30.9986 132.581 29.3877Z" fill="white"/>
<path d="M146.729 30.7885H140.496L146.729 23.2944V20.7731H137.064V23.2944H143.297L137.064 30.7885V33.3798H146.729V30.7885Z" fill="white"/>
<path d="M37.6804 0.882322L40.4819 0.0418701V17.7614H37.6804V16.7809C36.4197 17.6914 34.8088 18.1816 33.0579 18.0415C29.9763 17.7614 27.3849 15.24 27.1047 12.0883C27.1047 11.8082 27.0347 11.5981 27.0347 11.3179C27.0347 11.1078 27.0347 10.8977 27.1047 10.6876C27.1047 10.6176 27.1047 10.6176 27.1047 10.5475V10.4775V10.4074C27.1047 10.2674 27.1747 10.1273 27.1747 9.98722C27.1747 9.91718 27.1747 9.84714 27.2448 9.84714V9.7771V9.70706C27.2448 9.56699 27.3148 9.49695 27.3148 9.35688C27.3148 9.28684 27.3849 9.2168 27.3849 9.14676V9.07673C27.4549 8.93665 27.4549 8.86661 27.5249 8.72654C27.5249 8.6565 27.595 8.58646 27.595 8.51643C27.595 8.51643 27.595 8.51642 27.595 8.44639C27.665 8.30631 27.735 8.23627 27.735 8.0962C27.8051 8.02616 27.8051 7.95612 27.8751 7.88609C27.9452 7.81605 28.0152 7.67597 28.0852 7.60594C28.1553 7.5359 28.2253 7.46586 28.2953 7.39582C28.3654 7.32578 28.4354 7.18571 28.5055 7.11567C28.5755 7.04563 28.6455 6.9756 28.7156 6.90556C28.7856 6.83552 28.8556 6.76548 28.9957 6.62541C29.0658 6.55537 29.1358 6.48533 29.2058 6.4153C29.2759 6.34526 29.4159 6.27522 29.486 6.20518C29.7661 6.06511 29.8362 5.99507 29.9062 5.92503C29.9763 5.85499 30.1163 5.78496 30.1864 5.71492H30.2564C30.3264 5.64488 30.3965 5.64488 30.4665 5.57484C30.6066 5.50481 30.6766 5.43477 30.8167 5.43477H30.8867C30.9568 5.43477 31.0268 5.36473 31.0969 5.36473C31.2369 5.29469 31.307 5.29469 31.447 5.22466H31.5171C31.5871 5.22466 31.6572 5.15462 31.7272 5.15462C31.8673 5.08458 31.9373 5.08458 32.0774 5.08458H32.1474H32.2175C32.2875 5.08458 32.3575 5.08458 32.4276 5.01454C32.5676 5.01454 32.7077 4.9445 32.8478 4.9445H32.9178C32.9879 4.9445 32.9879 4.9445 33.0579 4.9445C33.268 4.9445 33.5482 4.87447 33.7583 4.87447C35.2291 4.87447 36.5598 5.36473 37.6804 6.13514V0.882322ZM32.9178 15.24C35.4392 15.8003 37.6804 13.8393 37.6804 11.458V11.388C37.6804 9.2168 35.9294 7.46586 33.7583 7.46586C33.6182 7.46586 33.4781 7.46586 33.3381 7.46586H33.268C33.268 7.46586 33.268 7.46586 33.198 7.46586C33.1279 7.46586 32.9879 7.46586 32.9178 7.5359H32.8478C32.7778 7.5359 32.7077 7.60594 32.6377 7.60594C32.5676 7.60594 32.4976 7.67597 32.4976 7.67597C32.4276 7.67597 32.3575 7.74601 32.2875 7.74601C32.2175 7.74601 32.2175 7.81605 32.1474 7.81605C32.0774 7.88609 32.0073 7.88609 31.9373 7.95612C31.8673 7.95612 31.8673 8.02616 31.7972 8.02616C31.7272 8.0962 31.6572 8.0962 31.5871 8.16624C31.5871 8.16624 31.5871 8.16624 31.5171 8.16624L31.447 8.23627C31.377 8.30631 31.307 8.37635 31.2369 8.44639C31.2369 8.44639 31.2369 8.44639 31.1669 8.51643C31.0969 8.58646 30.9568 8.72654 30.8867 8.79657C30.8167 8.86661 30.7467 9.00669 30.6766 9.07673C30.6766 9.07673 30.6766 9.14676 30.6066 9.14676C30.6066 9.14676 30.6066 9.14676 30.6066 9.2168C30.5366 9.28684 30.5366 9.35688 30.4665 9.42691C30.4665 9.49695 30.3965 9.49695 30.3965 9.56699C30.3264 9.63703 30.3264 9.70706 30.3264 9.7771C30.3264 9.84714 30.2564 9.84714 30.2564 9.91718C30.2564 9.98722 30.1864 10.0573 30.1864 10.1273C30.1864 10.1973 30.1864 10.2674 30.1163 10.2674C30.1163 10.3374 30.1163 10.4074 30.0463 10.5475C30.0463 10.6176 30.0463 10.6876 30.0463 10.6876C30.0463 10.7576 30.0463 10.8977 30.0463 10.9677V11.0378C30.0463 11.1078 30.0463 11.1078 30.0463 11.1779C30.0463 11.458 30.0463 11.7382 30.1163 12.0883C30.2564 13.7692 31.447 14.9599 32.9178 15.24Z" fill="white"/>
<path d="M10.576 5.15466V5.99511C9.52547 5.2247 8.12471 4.73444 6.72396 4.73444C2.80185 4.73444 -0.349841 8.16628 0.0703845 12.1584C0.420573 15.2401 2.94193 17.7614 6.02358 18.1116C7.77453 18.2517 9.38539 17.7614 10.6461 16.8509V17.8315H13.4476V5.15466H10.576ZM10.576 11.458C10.576 13.9094 8.33483 15.8004 5.81347 15.2401C4.34268 14.9599 3.15204 13.7693 2.80185 12.2285C2.31159 9.70711 4.27264 7.4659 6.72396 7.4659C8.82509 7.4659 10.576 9.21684 10.576 11.458Z" fill="white"/>
<path d="M91.5393 20.4927V23.4343C89.7183 23.2942 87.6172 24.1347 87.6172 27.0062V33.3797H84.8857V20.7028H87.6172V22.804C88.3876 21.1231 89.9285 20.4927 91.5393 20.4927Z" fill="white"/>
<path d="M98.1228 20.3528C94.4108 20.3528 91.4692 23.2244 91.4692 27.0064C91.4692 30.7885 94.4809 33.66 98.1228 33.66C101.835 33.66 104.776 30.7184 104.776 27.0064C104.846 23.2244 101.905 20.3528 98.1228 20.3528ZM98.1228 23.0143C100.364 23.0143 102.045 24.6952 102.045 27.0064C102.045 29.3177 100.294 30.9986 98.1228 30.9986C95.8816 30.9986 94.2007 29.3177 94.2007 27.0064C94.2007 24.6952 95.9516 23.0143 98.1228 23.0143Z" fill="white"/>
<path d="M122.846 20.7029L118.854 33.3798H116.193L113.531 24.8352L110.87 33.3798H108.208L104.216 20.7029H107.088L109.539 29.4576L112.201 20.7029H114.792L117.453 29.4576L119.905 20.7029H122.846Z" fill="white"/>
<path d="M126.488 20.7029H123.757V33.3798H126.488V20.7029Z" fill="white"/>
<path d="M48.1863 4.94446V7.88604C46.3653 7.74596 44.2642 8.58641 44.2642 11.458V17.8314H41.5327V5.15457H44.2642V7.2557C45.0346 5.5748 46.5754 4.94446 48.1863 4.94446Z" fill="white"/>
<path d="M64.6449 20.3526C62.894 20.3526 61.5633 20.983 60.7228 22.3137V15.38L58.4816 14.1193C58.3416 14.3294 58.2015 14.5395 57.9914 14.6796C57.291 15.2399 56.3805 15.6601 55.1899 15.6601C53.1588 15.6601 51.5479 14.6096 51.1277 12.6485H61.2831C61.2831 12.2983 61.3532 11.8781 61.3532 11.5279C61.3532 7.88595 58.7618 4.87433 54.9797 4.87433C51.0576 4.87433 48.3262 7.74587 48.3262 11.5279C48.3262 15.3099 50.9876 18.1815 55.1899 18.1815C56.2404 18.1815 57.1509 17.9714 57.9914 17.6212V33.3796H60.7228V26.586C60.7228 23.9946 62.1236 22.944 63.9446 22.944C65.6255 22.944 66.7461 23.9946 66.7461 25.8856V33.3796H69.4775V25.5354C69.4775 22.2437 67.4464 20.3526 64.6449 20.3526ZM54.9097 7.32565C56.5906 7.32565 58.1314 8.23614 58.5517 10.4073H51.1277C51.4779 8.51629 52.8786 7.32565 54.9097 7.32565Z" fill="white"/>
<path d="M72.0688 14.0493C71.4384 14.9598 70.3178 15.5902 68.777 15.5902C66.7459 15.5902 65.135 14.6097 64.7148 12.5786H74.8002C74.8703 12.2284 74.8703 11.8081 74.8703 11.458C74.8703 7.816 72.2789 4.80438 68.4968 4.80438C64.5047 4.80438 61.8433 7.74596 61.8433 11.458C61.8433 15.24 64.5747 18.1115 68.7069 18.1115C71.1583 18.1115 73.1193 17.061 74.2399 15.3801L72.0688 14.0493ZM68.5669 7.32574C70.2478 7.32574 71.7886 8.23623 72.2088 10.4074H64.7148C65.135 8.51638 66.5358 7.32574 68.5669 7.32574Z" fill="white"/>
<path d="M103.376 15.6601C104.917 15.6601 106.037 14.9597 106.668 14.1193L108.909 15.45C107.718 17.201 105.827 18.1815 103.376 18.1815C99.1736 18.1815 96.5122 15.3099 96.5122 11.5279C96.5122 7.74587 99.2437 4.87433 103.166 4.87433C106.948 4.87433 109.539 7.88595 109.539 11.5279C109.539 11.8781 109.469 12.2983 109.469 12.6485H99.3837C99.7339 14.6096 101.345 15.6601 103.376 15.6601ZM106.738 10.4073C106.388 8.23614 104.777 7.32565 103.096 7.32565C101.065 7.32565 99.6639 8.51629 99.2437 10.4073H106.738Z" fill="white"/>
<path d="M123.757 17.8314H126.488V15.3801H123.757V17.8314Z" fill="white"/>
<path d="M21.1516 4.80438C19.4007 4.80438 18.07 5.43472 17.2295 6.76544V5.29465V5.08453H14.498V6.1351V17.7613H17.2295V10.9677C17.2295 8.3763 18.6303 7.32574 20.4512 7.32574C22.2022 7.32574 23.2528 8.30626 23.2528 10.2673V17.7613H25.9842V10.0572C26.0543 6.76544 24.0232 4.80438 21.1516 4.80438Z" fill="white"/>
<path d="M113.601 17.8314H110.87V5.15457H113.601V6.76544C114.442 5.43472 115.772 4.80438 117.523 4.80438C120.325 4.80438 122.356 6.6954 122.356 9.98717V17.7613H119.624V10.3374C119.624 8.44634 118.504 7.39577 116.823 7.39577C115.002 7.39577 113.601 8.44634 113.601 11.0377V17.8314Z" fill="white"/>
<path d="M78.5125 8.65645C78.5125 7.74596 79.3529 7.32574 80.3334 7.32574C81.314 7.32574 82.1544 7.74596 82.6447 8.58641L85.026 7.39577C84.1155 5.78491 82.4346 4.80438 80.3334 4.80438C77.7421 4.80438 75.711 6.27517 75.711 8.65645C75.711 11.3179 78.0222 11.9482 79.9833 12.5085C81.384 12.9287 82.5046 13.2089 82.5046 14.1894C82.5046 15.17 81.5941 15.5902 80.3334 15.5902C79.1428 15.5902 78.1623 15.0999 77.672 14.1894L75.2207 15.3801C76.0612 17.061 77.8821 18.1115 80.2634 18.1115C82.9949 18.1115 85.2361 16.7108 85.2361 14.1894C85.2361 11.458 82.8548 10.7576 80.9638 10.2673C79.7031 9.91713 78.5125 9.56694 78.5125 8.65645Z" fill="white"/>
<path d="M90.9089 7.32565C89.9284 7.32565 89.0879 7.74587 89.0879 8.65636C89.0879 9.63689 90.2786 9.91704 91.6093 10.3373C93.5704 10.8976 95.8816 11.5279 95.8816 14.2594C95.8816 16.7807 93.7104 18.1815 90.9089 18.1815C88.4576 18.1815 86.7067 17.1309 85.8662 15.45L88.3175 14.2594C88.8078 15.1699 89.7183 15.6601 90.979 15.6601C92.1696 15.6601 93.1501 15.2399 93.1501 14.2594C93.1501 13.3489 91.9595 12.9987 90.6288 12.5785C88.6677 12.0182 86.3565 11.3878 86.3565 8.7264C86.3565 6.34512 88.3876 4.87433 90.979 4.87433C93.01 4.87433 94.761 5.85486 95.6715 7.46572L93.2902 8.65636C92.7299 7.74587 91.8895 7.32565 90.9089 7.32565Z" fill="white"/>
</g>
<defs>
<clipPath id="clip0_1455_3662">
<rect width="146.729" height="33.6181" fill="white" transform="translate(0 0.0419312)"/>
</clipPath>
</defs>
</svg>
