<svg width="38" height="22" viewBox="0 0 38 22" fill="none" xmlns="http://www.w3.org/2000/svg">
<path d="M2.9342 11.5658H14.3192V9.59989H2.9342V2.95738H15.2204V0.961643H0.440918V20.77H15.3105V18.7743H2.9342V11.5658Z" fill="white"/>
<path d="M27.5361 21.2764C34.4753 21.2764 37.5093 16.8084 37.5093 10.8509C37.5093 4.9829 34.4753 0.425476 27.5361 0.425476C20.597 0.425476 17.593 4.95311 17.593 10.8509C17.593 16.8381 20.597 21.2764 27.5361 21.2764ZM20.2065 10.8509C20.2065 5.28077 22.4294 2.48078 27.5361 2.48078C32.6429 2.48078 34.8958 5.28077 34.8958 10.8509C34.8958 16.4211 32.6429 19.2211 27.5361 19.2211C22.4294 19.2211 20.2065 16.4211 20.2065 10.8509Z" fill="white"/>
</svg>
