<svg width="117" height="31" viewBox="0 0 117 31" fill="none" xmlns="http://www.w3.org/2000/svg">
<path fill-rule="evenodd" clip-rule="evenodd" d="M8.77434 1.01804C3.22018 2.21585 -0.38416 7.75065 0.30616 14.0217C0.858008 19.0365 3.96232 22.895 8.07366 23.6763C10.1563 24.072 12.4604 23.3262 14.0651 21.7368C14.5597 21.2469 14.9826 20.8461 15.0049 20.8461C15.027 20.8461 15.0951 21.2977 15.1563 21.8499C15.3476 23.5781 15.2038 23.4648 17.2048 23.4648H18.9774V17.4417V11.4186H14.2201H9.46279V13.2517V15.0849H12.1813H14.8997V15.4895C14.8997 17.0028 13.784 18.7733 12.3982 19.4589C11.3022 20.0013 9.53874 20.0187 8.41346 19.4987C7.42479 19.0416 6.1777 17.8766 5.60818 16.8782C4.20494 14.4174 4.15958 10.6065 5.50369 8.06908C6.10617 6.9315 7.54899 5.56452 8.73696 5.00568C11.1295 3.88015 14.6068 4.52855 17.4907 6.63786L18.2978 7.22812V4.98648V2.74501L17.2359 2.21358C15.3573 1.27328 13.9754 0.923414 11.8414 0.847471C10.5816 0.802603 9.49218 0.863183 8.77434 1.01804ZM39.0719 1.02799C38.3616 1.34521 37.8374 2.23767 37.8398 3.12595C37.8424 4.03064 38.1291 4.59157 38.8412 5.08477C39.9876 5.87859 41.4832 5.44947 42.0947 4.15145C42.6917 2.88415 42.313 1.77258 41.0605 1.11598C40.2874 0.710773 39.8277 0.690347 39.0719 1.02799ZM97.8128 12.2915V23.4648H99.7667H101.721V12.2915V1.11825H99.7667H97.8128V12.2915ZM25.009 8.17366C24.4483 8.30547 23.5308 8.60313 22.9701 8.83515L21.9507 9.25712L21.9025 11.1295L21.8542 13.0017L22.561 12.5433C25.1233 10.8813 28.246 10.7818 29.6241 12.3183C29.8263 12.5436 30.0174 12.8795 30.0489 13.0648C30.1003 13.368 29.8852 13.4398 27.8974 13.7835C26.6826 13.9935 25.1971 14.2996 24.5963 14.4635C21.5606 15.2916 20.1696 16.8689 20.3793 19.245C20.4911 20.5114 20.9542 21.4631 21.8751 22.318C23.033 23.3929 23.915 23.7162 25.6886 23.7162C27.4893 23.7162 28.3728 23.3831 29.5645 22.2545L30.3222 21.5366L30.4323 22.0207C30.493 22.2867 30.6257 22.7206 30.7273 22.9847L30.912 23.4648H33.1894H35.4668L35.2265 22.9847C35.0943 22.7206 34.815 21.9547 34.606 21.2826C34.2762 20.2227 34.2115 19.5275 34.1181 16.0451C34.019 12.3582 33.9789 11.964 33.627 11.2266C33.0844 10.0897 32.1502 9.18641 30.877 8.56752C29.8914 8.08846 29.5871 8.02876 27.9037 7.98389C26.7471 7.95316 25.6378 8.02579 25.009 8.17366ZM52.7873 8.09003C51.9235 8.36011 51.2845 8.80704 50.5308 9.66826L49.7582 10.5513L49.6705 10.0684C49.6225 9.80286 49.5362 9.29099 49.4789 8.93082L49.3747 8.27614H47.5986H45.8222V15.8705V23.4648H47.7624H49.7027L49.7587 19.4058C49.8145 15.3782 49.8187 15.3387 50.2921 14.2998C50.8753 13.0196 51.3091 12.5173 52.1936 12.0978C53.48 11.4878 54.7706 11.7268 55.3362 12.68C55.6547 13.217 55.6755 13.5625 55.676 18.3583L55.6766 23.4648H57.6305H59.5844V17.8227C59.5844 11.2861 59.529 10.9282 58.3013 9.52493C57.3065 8.38805 56.1663 7.92086 54.4384 7.94199C53.7646 7.95019 53.0214 8.01688 52.7873 8.09003ZM67.4486 8.17017C63.2562 9.57521 61.231 15.1072 63.2703 19.583C63.8641 20.8862 65.1255 22.1469 66.5038 22.8149C67.5118 23.3033 67.8239 23.3711 69.0141 23.3596C70.7205 23.3433 71.7091 22.8999 72.9644 21.5881L73.8564 20.656V21.8541C73.8564 24.2402 72.9803 25.9703 71.3941 26.7164C69.1947 27.751 66.7931 27.2555 64.3982 25.2732C64.0086 24.9507 63.6431 24.6869 63.586 24.6869C63.5288 24.6869 63.5034 25.6887 63.5296 26.9128L63.5772 29.1388L64.6816 29.6912C68.6001 31.6512 72.9569 31.216 75.4958 28.6107C75.9769 28.1169 76.5753 27.2976 76.8256 26.7901C77.6863 25.0446 77.758 24.2124 77.7613 15.9141L77.7642 8.27614H76.2751H74.7861L74.3661 8.97447C74.135 9.35855 73.8825 9.6728 73.8049 9.6728C73.7272 9.6728 73.4204 9.4853 73.1229 9.25625C71.9258 8.33427 71.1162 8.04133 69.6088 7.98459C68.704 7.95054 67.8972 8.01985 67.4486 8.17017ZM85.2155 8.32031C82.6827 9.23215 80.925 11.2273 80.2264 13.9838C79.4302 17.1243 80.6935 20.5542 83.3015 22.3328C84.7866 23.3458 85.92 23.6862 87.8734 23.7061C89.801 23.7257 91.256 23.3491 93.2606 22.3119L94.4147 21.7146V19.6877V17.661L94.0324 17.9445C93.2093 18.5552 91.908 19.2928 91.0167 19.654C89.67 20.1996 87.6453 20.1935 86.5992 19.6406C85.3222 18.9657 84.5488 18.0385 84.1459 16.6998L84.0277 16.3069H89.5584H95.0891L94.9919 15.2158C94.7007 11.9515 93.4733 9.89993 91.086 8.68763C89.9218 8.09649 89.6763 8.03853 88.0812 7.97883C86.5951 7.92331 86.1814 7.97254 85.2155 8.32031ZM108.181 8.20683C105.155 9.04256 103.536 11.8464 104.706 14.225C105.323 15.4806 106.789 16.3068 109.791 17.0913C111.83 17.6242 112.32 17.9442 112.391 18.7888C112.433 19.2946 112.35 19.483 111.919 19.8557C110.529 21.057 107.486 20.6026 105.094 18.8365L104.269 18.2279V20.2096V22.1911L105.416 22.729C106.694 23.3283 108.756 23.8156 109.996 23.811C111.048 23.807 112.891 23.4036 113.852 22.9666C114.849 22.5135 116.137 21.2812 116.524 20.4096C116.895 19.5748 116.94 17.9321 116.613 17.1278C116.321 16.4103 115.311 15.4955 114.336 15.0664C113.92 14.883 112.661 14.467 111.537 14.1418C109.076 13.4289 108.43 12.9509 108.863 12.1601C109.239 11.4715 109.804 11.2495 111.186 11.2467C112.525 11.2439 113.758 11.6271 115.179 12.4881L115.993 12.9808V11.1426V9.30426L115.101 8.88578C113.059 7.92785 110.205 7.64782 108.181 8.20683ZM38.1765 15.8705V23.4648H40.1304H42.0843V15.8705V8.27614H40.1304H38.1765V15.8705ZM89.112 11.2255C89.4586 11.4073 89.8732 11.7048 90.0332 11.8865C90.4045 12.3085 90.8663 13.4352 90.7268 13.5787C90.588 13.7214 84.6497 13.7219 84.511 13.5793C84.3591 13.4234 84.9649 12.2734 85.437 11.8209C86.3995 10.8984 87.9952 10.6398 89.112 11.2255ZM71.994 11.8265C72.3247 11.9888 72.8872 12.3691 73.244 12.6713L73.8929 13.2208L73.8236 14.982C73.731 17.3293 73.1384 18.484 71.6119 19.2909C69.3267 20.4987 66.6864 18.5248 66.6864 15.6086C66.6864 13.8907 67.4306 12.5721 68.8029 11.8581C69.8223 11.3277 70.9558 11.3163 71.994 11.8265ZM30.4508 16.7774C29.8973 19.8096 26.591 21.7129 24.8986 19.9737C23.9165 18.9648 24.4447 17.7097 26.1158 17.0814C26.7128 16.8571 29.628 16.2242 30.4223 16.1467C30.5028 16.1388 30.5158 16.4227 30.4508 16.7774Z" fill="white"/>
</svg>
