<svg width="97" height="31" viewBox="0 0 97 31" fill="none" xmlns="http://www.w3.org/2000/svg">
<g clip-path="url(#clip0_4107_14094)">
<path d="M54.7658 6.25851H52.8523V5.2538H54.7658C55.099 5.2538 55.3682 5.19995 55.5736 5.09224C55.7789 4.98453 55.9287 4.83644 56.0229 4.64795C56.1205 4.45609 56.1693 4.23731 56.1693 3.99161C56.1693 3.75936 56.1205 3.54227 56.0229 3.34031C55.9287 3.135 55.7789 2.97007 55.5736 2.84553C55.3682 2.721 55.099 2.65873 54.7658 2.65873H53.241V9H51.9738V1.64897H54.7658C55.3346 1.64897 55.8176 1.74995 56.2148 1.9519C56.6153 2.15048 56.9199 2.42648 57.1286 2.7799C57.3373 3.12995 57.4416 3.53048 57.4416 3.98151C57.4416 4.45609 57.3373 4.86336 57.1286 5.20331C56.9199 5.54327 56.6153 5.80412 56.2148 5.98588C55.8176 6.16763 55.3346 6.25851 54.7658 6.25851ZM58.3603 6.32919V6.21307C58.3603 5.81927 58.4175 5.45407 58.532 5.11749C58.6464 4.77753 58.8113 4.48302 59.0267 4.23395C59.2455 3.98151 59.5114 3.78629 59.8244 3.64829C60.1408 3.50692 60.4976 3.43624 60.8948 3.43624C61.2953 3.43624 61.6521 3.50692 61.9651 3.64829C62.2815 3.78629 62.5491 3.98151 62.7679 4.23395C62.9867 4.48302 63.1533 4.77753 63.2677 5.11749C63.3821 5.45407 63.4394 5.81927 63.4394 6.21307V6.32919C63.4394 6.723 63.3821 7.08819 63.2677 7.42478C63.1533 7.76137 62.9867 8.05588 62.7679 8.30832C62.5491 8.55739 62.2832 8.75261 61.9702 8.89398C61.6571 9.03198 61.302 9.10098 60.9049 9.10098C60.5043 9.10098 60.1459 9.03198 59.8295 8.89398C59.5165 8.75261 59.2506 8.55739 59.0318 8.30832C58.813 8.05588 58.6464 7.76137 58.532 7.42478C58.4175 7.08819 58.3603 6.723 58.3603 6.32919ZM59.577 6.21307V6.32919C59.577 6.5749 59.6023 6.80715 59.6528 7.02593C59.7033 7.24471 59.7824 7.43656 59.8901 7.60149C59.9978 7.76641 60.1358 7.896 60.3041 7.99024C60.4724 8.08449 60.6726 8.13161 60.9049 8.13161C61.1304 8.13161 61.3256 8.08449 61.4905 7.99024C61.6588 7.896 61.7968 7.76641 61.9045 7.60149C62.0122 7.43656 62.0913 7.24471 62.1418 7.02593C62.1957 6.80715 62.2226 6.5749 62.2226 6.32919V6.21307C62.2226 5.97073 62.1957 5.74185 62.1418 5.52644C62.0913 5.30766 62.0106 5.11412 61.8995 4.94583C61.7918 4.77753 61.6538 4.64627 61.4855 4.55202C61.3206 4.45441 61.1237 4.40561 60.8948 4.40561C60.6659 4.40561 60.4673 4.45441 60.299 4.55202C60.1341 4.64627 59.9978 4.77753 59.8901 4.94583C59.7824 5.11412 59.7033 5.30766 59.6528 5.52644C59.6023 5.74185 59.577 5.97073 59.577 6.21307ZM67.7306 7.52071C67.7306 7.39954 67.7003 7.29015 67.6398 7.19254C67.5792 7.09156 67.463 7.00068 67.2914 6.9199C67.1231 6.83912 66.874 6.76507 66.5442 6.69775C66.2547 6.6338 65.9888 6.55807 65.7465 6.47056C65.5075 6.37968 65.3022 6.27029 65.1305 6.14239C64.9588 6.01449 64.8259 5.86302 64.7317 5.688C64.6374 5.51297 64.5903 5.31102 64.5903 5.08214C64.5903 4.86 64.6391 4.64963 64.7367 4.45105C64.8343 4.25246 64.974 4.07744 65.1558 3.92597C65.3375 3.77451 65.558 3.65502 65.8171 3.56751C66.0797 3.48 66.3725 3.43624 66.6956 3.43624C67.1534 3.43624 67.5455 3.51366 67.872 3.66848C68.2019 3.81995 68.4543 4.02695 68.6293 4.28948C68.8043 4.54866 68.8919 4.84149 68.8919 5.16797H67.6751C67.6751 5.02324 67.6381 4.88861 67.564 4.76407C67.4933 4.63617 67.3856 4.53351 67.2409 4.45609C67.0962 4.37531 66.9144 4.33492 66.6956 4.33492C66.4869 4.33492 66.3136 4.36858 66.1756 4.4359C66.041 4.49985 65.94 4.584 65.8727 4.68834C65.8087 4.79268 65.7768 4.90712 65.7768 5.03166C65.7768 5.12253 65.7936 5.205 65.8272 5.27905C65.8643 5.34973 65.9249 5.41536 66.009 5.47595C66.0931 5.53317 66.2076 5.58702 66.3523 5.63751C66.5004 5.688 66.6855 5.7368 66.9077 5.78392C67.325 5.87144 67.6835 5.98419 67.9831 6.12219C68.286 6.25683 68.5182 6.43185 68.6798 6.64727C68.8414 6.85932 68.9221 7.12858 68.9221 7.45507C68.9221 7.69741 68.87 7.91956 68.7656 8.12151C68.6647 8.3201 68.5166 8.49344 68.3213 8.64154C68.1261 8.78627 67.8922 8.89902 67.6196 8.9798C67.3503 9.06059 67.0474 9.10098 66.7108 9.10098C66.216 9.10098 65.7969 9.01346 65.4536 8.83844C65.1103 8.66005 64.8495 8.43285 64.6711 8.15685C64.496 7.87749 64.4085 7.58802 64.4085 7.28846H65.5849C65.5984 7.51397 65.6606 7.69405 65.7717 7.82868C65.8861 7.95995 66.0275 8.05588 66.1958 8.11646C66.3675 8.17368 66.5442 8.20229 66.7259 8.20229C66.9447 8.20229 67.1281 8.17368 67.2762 8.11646C67.4243 8.05588 67.5371 7.9751 67.6145 7.87412C67.6919 7.76978 67.7306 7.65197 67.7306 7.52071ZM72.6984 3.53722V4.4258H69.6187V3.53722H72.6984ZM70.5073 2.19929H71.724V7.49041C71.724 7.65871 71.7476 7.78829 71.7947 7.87917C71.8452 7.96668 71.9142 8.02558 72.0017 8.05588C72.0892 8.08617 72.1919 8.10132 72.3097 8.10132C72.3938 8.10132 72.4746 8.09627 72.552 8.08617C72.6294 8.07607 72.6917 8.06598 72.7388 8.05588L72.7439 8.98485C72.6429 9.01515 72.5251 9.04207 72.3905 9.06563C72.2592 9.0892 72.1077 9.10098 71.9361 9.10098C71.6567 9.10098 71.4093 9.05217 71.1939 8.95456C70.9785 8.85359 70.8102 8.69034 70.689 8.46483C70.5678 8.23932 70.5073 7.93976 70.5073 7.56615V2.19929Z" fill="white"/>
<path d="M56.7853 18.3351V19.3398H52.8826V18.3351H56.7853ZM53.241 11.9888V19.3398H51.9738V11.9888H53.241ZM56.2753 15.0585V16.048H52.8826V15.0585H56.2753ZM56.76 11.9888V12.9986H52.8826V11.9888H56.76ZM60.0757 13.8771L61.1157 15.6896L62.176 13.8771H63.5139L61.8579 16.558L63.5795 19.3398H62.2416L61.1309 17.4516L60.0201 19.3398H58.6772L60.3937 16.558L58.7428 13.8771H60.0757ZM67.0971 13.8771V19.3398H65.8753V13.8771H67.0971ZM65.7945 12.4432C65.7945 12.2581 65.8551 12.1049 65.9763 11.9838C66.1008 11.8592 66.2725 11.797 66.4913 11.797C66.7067 11.797 66.8766 11.8592 67.0012 11.9838C67.1257 12.1049 67.188 12.2581 67.188 12.4432C67.188 12.625 67.1257 12.7764 67.0012 12.8976C66.8766 13.0188 66.7067 13.0794 66.4913 13.0794C66.2725 13.0794 66.1008 13.0188 65.9763 12.8976C65.8551 12.7764 65.7945 12.625 65.7945 12.4432ZM72.3818 13.8771V14.7656H69.302V13.8771H72.3818ZM70.1906 12.5391H71.4074V17.8303C71.4074 17.9986 71.4309 18.1281 71.478 18.219C71.5285 18.3065 71.5975 18.3654 71.685 18.3957C71.7726 18.426 71.8752 18.4412 71.993 18.4412C72.0772 18.4412 72.1579 18.4361 72.2354 18.426C72.3128 18.4159 72.375 18.4058 72.4222 18.3957L72.4272 19.3247C72.3262 19.355 72.2084 19.3819 72.0738 19.4055C71.9425 19.429 71.7911 19.4408 71.6194 19.4408C71.34 19.4408 71.0927 19.392 70.8772 19.2944C70.6618 19.1934 70.4935 19.0302 70.3724 18.8047C70.2512 18.5792 70.1906 18.2796 70.1906 17.906V12.5391Z" fill="white"/>
<path d="M53.241 22.0704V29.4214H51.9738V22.0704H53.241ZM56.24 25.2864V26.2911H52.9179V25.2864H56.24ZM56.6591 22.0704V23.0801H52.9179V22.0704H56.6591ZM57.5145 26.7506V26.6345C57.5145 26.2407 57.5717 25.8755 57.6862 25.5389C57.8006 25.1989 57.9655 24.9044 58.181 24.6553C58.3997 24.4029 58.6656 24.2077 58.9787 24.0697C59.2951 23.9283 59.6518 23.8576 60.049 23.8576C60.4495 23.8576 60.8063 23.9283 61.1194 24.0697C61.4357 24.2077 61.7033 24.4029 61.9221 24.6553C62.1409 24.9044 62.3075 25.1989 62.4219 25.5389C62.5364 25.8755 62.5936 26.2407 62.5936 26.6345V26.7506C62.5936 27.1444 62.5364 27.5096 62.4219 27.8462C62.3075 28.1828 62.1409 28.4773 61.9221 28.7297C61.7033 28.9788 61.4374 29.174 61.1244 29.3154C60.8114 29.4534 60.4563 29.5224 60.0591 29.5224C59.6586 29.5224 59.3001 29.4534 58.9837 29.3154C58.6707 29.174 58.4048 28.9788 58.186 28.7297C57.9672 28.4773 57.8006 28.1828 57.6862 27.8462C57.5717 27.5096 57.5145 27.1444 57.5145 26.7506ZM58.7313 26.6345V26.7506C58.7313 26.9963 58.7565 27.2285 58.807 27.4473C58.8575 27.6661 58.9366 27.8579 59.0443 28.0229C59.152 28.1878 59.29 28.3174 59.4583 28.4116C59.6266 28.5059 59.8269 28.553 60.0591 28.553C60.2846 28.553 60.4798 28.5059 60.6448 28.4116C60.8131 28.3174 60.9511 28.1878 61.0588 28.0229C61.1665 27.8579 61.2456 27.6661 61.2961 27.4473C61.3499 27.2285 61.3768 26.9963 61.3768 26.7506V26.6345C61.3768 26.3921 61.3499 26.1632 61.2961 25.9478C61.2456 25.729 61.1648 25.5355 61.0537 25.3672C60.946 25.1989 60.808 25.0677 60.6397 24.9734C60.4748 24.8758 60.2779 24.827 60.049 24.827C59.8201 24.827 59.6215 24.8758 59.4533 24.9734C59.2883 25.0677 59.152 25.1989 59.0443 25.3672C58.9366 25.5355 58.8575 25.729 58.807 25.9478C58.7565 26.1632 58.7313 26.3921 58.7313 26.6345ZM67.2104 28.1339V23.9586H68.4322V29.4214H67.2811L67.2104 28.1339ZM67.3821 26.998L67.791 26.9879C67.791 27.3548 67.7506 27.693 67.6698 28.0027C67.5891 28.309 67.4645 28.5766 67.2962 28.8054C67.1279 29.0309 66.9125 29.2077 66.65 29.3356C66.3875 29.4601 66.0727 29.5224 65.7059 29.5224C65.44 29.5224 65.1959 29.4837 64.9738 29.4062C64.7516 29.3288 64.5598 29.2093 64.3982 29.0478C64.24 28.8862 64.1172 28.6758 64.0297 28.4167C63.9422 28.1575 63.8984 27.8478 63.8984 27.4877V23.9586H65.1152V27.4978C65.1152 27.6964 65.1387 27.863 65.1858 27.9976C65.233 28.1289 65.2969 28.2349 65.3777 28.3157C65.4585 28.3965 65.5527 28.4537 65.6604 28.4874C65.7681 28.521 65.8826 28.5378 66.0037 28.5378C66.3504 28.5378 66.6231 28.4705 66.8216 28.3359C67.0236 28.1979 67.1666 28.0128 67.2508 27.7805C67.3383 27.5483 67.3821 27.2874 67.3821 26.998ZM71.1961 25.1249V29.4214H69.9794V23.9586H71.1254L71.1961 25.1249ZM70.979 26.488L70.5852 26.483C70.5886 26.0959 70.6424 25.7408 70.7468 25.4177C70.8545 25.0946 71.0026 24.8169 71.1911 24.5847C71.3829 24.3524 71.6118 24.174 71.8777 24.0495C72.1436 23.9216 72.4398 23.8576 72.7663 23.8576C73.0288 23.8576 73.2661 23.8947 73.4782 23.9687C73.6936 24.0394 73.877 24.1555 74.0285 24.3171C74.1833 24.4786 74.3011 24.689 74.3819 24.9482C74.4627 25.204 74.5031 25.5187 74.5031 25.8923V29.4214H73.2813V25.8872C73.2813 25.6247 73.2426 25.4177 73.1651 25.2662C73.0911 25.1114 72.9817 25.002 72.837 24.9381C72.6956 24.8707 72.5189 24.8371 72.3068 24.8371C72.0982 24.8371 71.9114 24.8808 71.7464 24.9684C71.5815 25.0559 71.4418 25.1754 71.3274 25.3268C71.2163 25.4783 71.1305 25.6533 71.0699 25.8519C71.0093 26.0505 70.979 26.2625 70.979 26.488ZM79.3875 28.2905V21.6665H80.6093V29.4214H79.5036L79.3875 28.2905ZM75.8331 26.7506V26.6446C75.8331 26.2306 75.8819 25.8536 75.9795 25.5136C76.0771 25.1703 76.2185 24.8758 76.4036 24.6301C76.5888 24.381 76.8143 24.1908 77.0802 24.0596C77.3461 23.9249 77.6456 23.8576 77.9789 23.8576C78.3087 23.8576 78.5982 23.9216 78.8472 24.0495C79.0963 24.1774 79.3084 24.3608 79.4834 24.5998C79.6584 24.8354 79.7981 25.1181 79.9024 25.448C80.0068 25.7745 80.0808 26.138 80.1246 26.5385V26.8768C80.0808 27.2672 80.0068 27.624 79.9024 27.9471C79.7981 28.2703 79.6584 28.5496 79.4834 28.7852C79.3084 29.0208 79.0946 29.2026 78.8422 29.3305C78.5931 29.4584 78.302 29.5224 77.9688 29.5224C77.6389 29.5224 77.341 29.4534 77.0751 29.3154C76.8126 29.1774 76.5888 28.9838 76.4036 28.7348C76.2185 28.4857 76.0771 28.1928 75.9795 27.8563C75.8819 27.5163 75.8331 27.1478 75.8331 26.7506ZM77.0499 26.6446V26.7506C77.0499 26.9997 77.0718 27.2319 77.1155 27.4473C77.1626 27.6627 77.235 27.8529 77.3326 28.0178C77.4302 28.1794 77.5564 28.3073 77.7113 28.4015C77.8695 28.4924 78.058 28.5378 78.2767 28.5378C78.5527 28.5378 78.7799 28.4773 78.9583 28.3561C79.1367 28.2349 79.2764 28.0717 79.3774 27.8664C79.4817 27.6577 79.5524 27.4254 79.5894 27.1696V26.2558C79.5692 26.0572 79.5271 25.8721 79.4632 25.7004C79.4026 25.5288 79.3201 25.379 79.2158 25.2511C79.1115 25.1198 78.9819 25.0188 78.827 24.9482C78.6756 24.8741 78.4955 24.8371 78.2868 24.8371C78.0647 24.8371 77.8762 24.8842 77.7214 24.9785C77.5665 25.0727 77.4386 25.2023 77.3377 25.3672C77.24 25.5321 77.1677 25.724 77.1206 25.9428C77.0734 26.1616 77.0499 26.3955 77.0499 26.6446ZM84.6 29.5224C84.1961 29.5224 83.8309 29.4567 83.5044 29.3255C83.1813 29.1908 82.9053 29.004 82.6764 28.765C82.4509 28.5261 82.2776 28.245 82.1564 27.9219C82.0352 27.5988 81.9747 27.2504 81.9747 26.8768V26.6748C81.9747 26.2474 82.0369 25.8603 82.1615 25.5136C82.286 25.1669 82.4593 24.8707 82.6815 24.625C82.9036 24.376 83.1662 24.1858 83.4691 24.0545C83.772 23.9233 84.1002 23.8576 84.4536 23.8576C84.8441 23.8576 85.1857 23.9233 85.4785 24.0545C85.7713 24.1858 86.0137 24.3709 86.2055 24.6099C86.4008 24.8455 86.5455 25.1266 86.6397 25.453C86.7373 25.7795 86.7862 26.1397 86.7862 26.5335V27.0535H82.5654V26.1801H85.5845V26.0841C85.5778 25.8654 85.5341 25.66 85.4533 25.4682C85.3759 25.2763 85.2564 25.1215 85.0948 25.0037C84.9333 24.8859 84.7178 24.827 84.4486 24.827C84.2466 24.827 84.0665 24.8707 83.9083 24.9583C83.7535 25.0424 83.6239 25.1653 83.5196 25.3268C83.4152 25.4884 83.3345 25.6836 83.2772 25.9125C83.2234 26.138 83.1965 26.3921 83.1965 26.6748V26.8768C83.1965 27.1158 83.2284 27.3379 83.2924 27.5432C83.3597 27.7452 83.4573 27.9219 83.5852 28.0734C83.7131 28.2248 83.868 28.3443 84.0497 28.4318C84.2315 28.516 84.4385 28.558 84.6707 28.558C84.9635 28.558 85.2244 28.4991 85.4533 28.3813C85.6822 28.2635 85.8807 28.0969 86.049 27.8815L86.6902 28.5025C86.5724 28.6742 86.4193 28.8391 86.2308 28.9973C86.0423 29.1521 85.8117 29.2783 85.5391 29.3759C85.2698 29.4736 84.9568 29.5224 84.6 29.5224ZM89.2673 24.9987V29.4214H88.0506V23.9586H89.2118L89.2673 24.9987ZM90.9385 23.9233L90.9284 25.0542C90.8543 25.0407 90.7736 25.0306 90.686 25.0239C90.6019 25.0172 90.5177 25.0138 90.4336 25.0138C90.2249 25.0138 90.0415 25.0441 89.8833 25.1047C89.7251 25.1619 89.5921 25.246 89.4844 25.3571C89.3801 25.4648 89.2993 25.5961 89.2421 25.7509C89.1849 25.9058 89.1512 26.0791 89.1411 26.2709L88.8634 26.2911C88.8634 25.9478 88.8971 25.6298 88.9644 25.3369C89.0317 25.0441 89.1327 24.7866 89.2673 24.5645C89.4053 24.3423 89.577 24.169 89.7823 24.0444C89.991 23.9199 90.2316 23.8576 90.5043 23.8576C90.5783 23.8576 90.6574 23.8644 90.7416 23.8778C90.8291 23.8913 90.8947 23.9064 90.9385 23.9233ZM95.0757 27.9421C95.0757 27.8209 95.0454 27.7115 94.9848 27.6139C94.9242 27.5129 94.8081 27.4221 94.6364 27.3413C94.4681 27.2605 94.219 27.1865 93.8892 27.1191C93.5997 27.0552 93.3338 26.9795 93.0915 26.8919C92.8525 26.8011 92.6472 26.6917 92.4755 26.5638C92.3039 26.4359 92.1709 26.2844 92.0767 26.1094C91.9824 25.9344 91.9353 25.7324 91.9353 25.5035C91.9353 25.2814 91.9841 25.071 92.0817 24.8724C92.1793 24.6738 92.319 24.4988 92.5008 24.3474C92.6825 24.1959 92.903 24.0764 93.1622 23.9889C93.4247 23.9014 93.7175 23.8576 94.0407 23.8576C94.4984 23.8576 94.8905 23.935 95.217 24.0899C95.5469 24.2413 95.7993 24.4483 95.9743 24.7109C96.1494 24.97 96.2369 25.2629 96.2369 25.5894H95.0201C95.0201 25.4446 94.9831 25.31 94.909 25.1855C94.8384 25.0576 94.7307 24.9549 94.5859 24.8775C94.4412 24.7967 94.2594 24.7563 94.0407 24.7563C93.832 24.7563 93.6586 24.79 93.5206 24.8573C93.386 24.9212 93.285 25.0054 93.2177 25.1097C93.1537 25.2141 93.1218 25.3285 93.1218 25.453C93.1218 25.5439 93.1386 25.6264 93.1723 25.7004C93.2093 25.7711 93.2699 25.8368 93.354 25.8973C93.4382 25.9546 93.5526 26.0084 93.6973 26.0589C93.8454 26.1094 94.0306 26.1582 94.2527 26.2053C94.6701 26.2928 95.0285 26.4056 95.3281 26.5436C95.631 26.6782 95.8633 26.8532 96.0248 27.0687C96.1864 27.2807 96.2672 27.55 96.2672 27.8765C96.2672 28.1188 96.215 28.3409 96.1107 28.5429C96.0097 28.7415 95.8616 28.9148 95.6664 29.0629C95.4711 29.2077 95.2372 29.3204 94.9646 29.4012C94.6953 29.482 94.3924 29.5224 94.0558 29.5224C93.561 29.5224 93.142 29.4349 92.7987 29.2598C92.4553 29.0814 92.1945 28.8542 92.0161 28.5782C91.8411 28.2989 91.7536 28.0094 91.7536 27.7098H92.9299C92.9434 27.9354 93.0057 28.1154 93.1167 28.2501C93.2312 28.3813 93.3725 28.4773 93.5408 28.5378C93.7125 28.5951 93.8892 28.6237 94.0709 28.6237C94.2897 28.6237 94.4732 28.5951 94.6213 28.5378C94.7694 28.4773 94.8821 28.3965 94.9595 28.2955C95.0369 28.1912 95.0757 28.0734 95.0757 27.9421Z" fill="white"/>
<path d="M1.75615 1.90033C1.67495 2.36046 1.59375 8.69402 1.59375 15.9749V29.2104H4.84173H8.08972V17.9778V6.74523H10.7422C14.9917 6.74523 16.6698 7.53016 17.2653 9.83082C17.8607 12.2668 16.6427 14.784 14.5857 15.2712L13.909 15.4065L13.9902 18.4109L14.0714 21.3882L15.0729 21.1988C18.8351 20.5762 21.4064 18.7086 22.9492 15.4336C23.5718 14.0803 23.653 13.5931 23.653 10.9405C23.653 8.28803 23.5718 7.80083 22.9492 6.4475C22.029 4.49871 20.3508 2.82059 18.4021 1.90033C16.8863 1.1966 16.8593 1.1966 9.41597 1.1154L1.94561 1.0342L1.75615 1.90033Z" fill="white"/>
<path d="M19.9994 1.54835C21.2445 2.36034 23.1391 4.47153 23.6805 5.60832L24.1947 6.71805L28.0652 6.74512H31.9087V3.90313V1.06115L25.6292 1.08821C19.6746 1.08821 19.3498 1.11528 19.9994 1.54835Z" fill="white"/>
<path d="M32.3555 15.1359V29.2104H35.6035H38.8514V24.2031V19.1958H42.1806H45.5098L48.2706 16.4621C49.7863 14.9464 51.0314 13.6743 51.0314 13.6201C51.0314 13.566 48.2976 13.5119 44.9414 13.5119H38.8514V10.1286V6.74523H42.7219H46.5654L49.4074 3.90325L52.2494 1.06127H42.2889H32.3555V15.1359Z" fill="white"/>
<path d="M24.6285 13.6471C24.439 14.4321 24.0059 15.6501 23.6811 16.3538L23.0586 17.5718H27.4704H31.9093V14.8651V12.1585H28.4448H24.9533L24.6285 13.6471Z" fill="white"/>
<path d="M21.4889 19.2229C20.4333 20.3326 17.6184 21.9025 16.6981 21.9025C16.2651 21.9025 16.2109 22.2544 16.2109 25.5565V29.2104H24.0602H31.9095V26.3685V23.5265H27.3082H22.734L22.6528 20.7928L22.5716 18.0861L21.4889 19.2229Z" fill="white"/>
</g>
<defs>
<clipPath id="clip0_4107_14094">
<rect width="97" height="31" fill="white"/>
</clipPath>
</defs>
</svg>
