<svg width="88" height="18" viewBox="0 0 88 18" fill="none" xmlns="http://www.w3.org/2000/svg">
<g clip-path="url(#clip0_1455_3729)">
<path d="M8.2763 13.2126C8.25158 13.2041 4.49378 0.796204 4.49378 0.796204H0.529785L5.97497 17.0522H10.5776L16.1139 0.796204H12.3322L8.27552 13.2126M17.0437 17.0522H20.8031V0.796204H17.0437V17.0522ZM46.4397 0.796204H34.1145V3.70761H38.3534V17.0499H42.1127V3.70761H46.4397V0.796204ZM50.1658 10.2201L52.2872 4.03428H52.3621L54.4835 10.2201H50.1658ZM49.8114 0.796204L43.9955 17.0522H47.8776L49.1812 13.184H55.4751L56.7856 17.053H60.8415L54.977 0.796204H49.8114ZM80.3209 14.1184V10.2286H86.2974V7.34108H80.3209V3.70761H86.7531V0.796204H76.5909V17.0499H86.9121V14.1176L80.3209 14.1184ZM30.932 7.59438L28.6508 6.71942C27.1958 6.16185 26.6259 5.74637 26.6259 5.01582C26.6259 4.20186 27.3178 3.56397 29.5288 3.56397C30.9019 3.56397 32.2966 3.8721 32.97 4.06594V0.877291C32.6719 0.813966 31.1691 0.502747 29.0238 0.502747C25.0127 0.502747 22.8017 2.35153 22.8017 5.27761C22.8017 8.08477 24.9516 9.21612 26.761 9.91888C27.229 10.1011 28.2361 10.4803 28.5975 10.6178C30.0447 11.1661 30.6378 11.7283 30.6378 12.5391C30.6378 13.6535 29.7829 14.2922 27.6615 14.2922C25.337 14.2922 23.811 13.6435 23.401 13.4705V16.7626C23.8203 16.8707 25.7162 17.3449 28.1341 17.3449C32.007 17.3449 34.4087 15.3756 34.4087 12.3538C34.4087 9.99456 33.1407 8.44078 30.932 7.59361M68.2374 10.2293H70.9017V14.1972C70.5322 14.2635 70.1573 14.2956 69.7819 14.2929C66.2798 14.2929 64.0425 12.0905 64.0425 8.92421C64.0425 6.01512 66.0342 3.5632 70.0252 3.5632C72.2454 3.5632 74.2031 4.12927 74.5406 4.22811V1.03869C74.1367 0.930577 72.63 0.503519 70.0252 0.503519C63.5351 0.503519 60.2098 3.92153 60.2098 8.92421C60.2098 14.5269 64.241 17.3457 69.8321 17.3457C72.5196 17.3457 74.1074 16.9148 74.5939 16.7966V7.34108H67.2041L68.2374 10.2293Z" fill="white"/>
</g>
<defs>
<clipPath id="clip0_1455_3729">
<rect width="86.4928" height="16.9897" fill="white" transform="translate(0.529785 0.35614)"/>
</clipPath>
</defs>
</svg>
