<svg width="121" height="26" viewBox="0 0 121 26" fill="none" xmlns="http://www.w3.org/2000/svg">
<g clip-path="url(#clip0_1455_3688)">
<path fill-rule="evenodd" clip-rule="evenodd" d="M0.544922 0.494873H25.3104V25.2071H0.544922V0.494873ZM7.80953 6.50812L12.1022 14.4984V19.688H13.7532V14.5808L18.0459 6.50812H16.2298L13.7532 11.5329C13.5881 11.7801 13.423 12.0272 13.3405 12.2743C13.293 12.464 13.2181 12.599 13.1474 12.7266C13.0952 12.8207 13.0453 12.9108 13.0103 13.0157C12.969 12.9745 12.9484 12.9127 12.9277 12.8509C12.9071 12.7891 12.8865 12.7274 12.8452 12.6862C12.8039 12.6038 12.7833 12.542 12.7626 12.4802C12.742 12.4185 12.7214 12.3567 12.6801 12.2743V12.1919L12.5975 12.1096C12.566 12.0466 12.5465 11.9957 12.5299 11.9522C12.5029 11.8819 12.4834 11.831 12.4324 11.7801C12.3499 11.6977 12.2673 11.6153 12.2673 11.5329L9.79077 6.50812H7.80953Z" fill="white"/>
<path d="M36.6202 5.2724C37.8584 5.2724 38.9316 5.6019 39.7571 6.26089L38.9316 7.24938C38.1886 6.75513 37.4457 6.42564 36.5376 6.42564C35.1342 6.42564 34.0611 7.167 33.4832 8.56736C33.153 9.3911 32.9879 10.462 32.9879 11.8623C32.9879 12.9332 33.153 13.8393 33.4006 14.4983C34.0611 16.0634 35.1342 16.8048 36.7853 16.8048C37.6933 16.8048 38.5188 16.5576 39.2618 15.981L40.0873 17.0519C39.0142 17.7109 37.8584 18.0404 36.6202 18.0404C35.1342 18.0404 33.896 17.4638 32.9053 16.2282C31.9147 15.0749 31.502 13.5098 31.502 11.6152C31.502 9.7206 31.9973 8.23787 32.9879 7.00226C33.8959 5.93139 35.1342 5.2724 36.6202 5.2724Z" fill="white"/>
<path d="M41.3257 13.4274C41.3257 11.9446 41.6559 10.7914 42.3989 9.96764C43.1418 9.1439 44.0499 8.64966 45.2056 8.64966C46.5264 8.64966 47.5996 9.1439 48.3426 10.2148C48.9204 11.0385 49.1681 12.1917 49.1681 13.5921C49.1681 15.2396 48.6728 16.5576 47.7647 17.3813C47.1043 17.9579 46.2788 18.2874 45.2882 18.2874C44.0499 18.2874 43.1418 17.8756 42.3989 16.9694C41.6559 16.1457 41.3257 14.9101 41.3257 13.4274ZM47.1043 11.0385C46.6915 10.2971 46.1137 9.88527 45.2056 9.88527C44.2975 9.88527 43.7197 10.2148 43.3069 10.8738C42.9767 11.368 42.8942 12.1917 42.8942 13.2626C42.8942 14.663 43.0593 15.6515 43.472 16.2281C43.8848 16.8047 44.4626 17.1342 45.2882 17.1342C46.2788 17.1342 46.9392 16.6399 47.2694 15.7338C47.4345 15.2396 47.5171 14.5806 47.5171 13.7569C47.5996 12.5212 47.4345 11.6151 47.1043 11.0385Z" fill="white"/>
<path d="M51.8097 11.2033C51.8097 10.2971 51.7271 9.55577 51.4795 8.97916L52.8829 8.64966C53.1305 9.06153 53.2131 9.55577 53.2131 9.96764V10.05C53.5433 9.72052 53.8735 9.39103 54.3688 9.1439C54.9467 8.81441 55.442 8.64966 55.9373 8.64966C56.6802 8.64966 57.3407 8.97915 57.7534 9.55577C57.836 9.72052 58.0011 9.96764 58.0836 10.1324C59.0742 9.1439 59.9823 8.64966 60.9729 8.64966C61.6333 8.64966 62.2112 8.89678 62.624 9.30865C63.0367 9.8029 63.2844 10.3795 63.2844 11.0385V17.8756H61.7984V11.1209C61.7984 10.2148 61.3857 9.8029 60.6427 9.8029C60.23 9.8029 59.7347 9.96764 59.3219 10.2971C59.1568 10.4619 58.8266 10.709 58.4138 11.0385L58.2487 11.2033V17.8756H56.6802V11.4504C56.6802 10.8738 56.5977 10.4619 56.4326 10.2971C56.1849 10.05 55.9373 9.96764 55.5245 9.96764C54.8641 9.96764 54.1211 10.3795 53.2131 11.2033V17.9579H51.8097V11.2033Z" fill="white"/>
<path d="M65.8433 4.9429L67.3292 4.6134C67.4943 5.2724 67.5768 6.01376 67.5768 6.91988V8.97923C67.5768 9.47347 67.5768 9.80297 67.5768 9.96772C68.4024 9.14398 69.3104 8.73211 70.2185 8.73211C71.2917 8.73211 72.1997 9.14398 72.7776 9.96772C73.438 10.7915 73.7682 11.9447 73.7682 13.3451C73.7682 14.8278 73.438 15.981 72.7776 16.8871C72.1172 17.7933 71.2091 18.2051 70.1359 18.2051C69.6406 18.2051 69.2279 18.1228 68.7326 17.8756C68.2373 17.6285 67.9071 17.3814 67.6594 17.0519C67.5768 17.4638 67.4943 17.7933 67.4117 18.0404H66.0084C66.1735 17.6285 66.256 16.8871 66.256 15.7339V7.08463C66.1735 6.09614 66.0909 5.35477 65.8433 4.9429ZM68.2373 10.5443C67.9896 10.7091 67.7419 10.9562 67.5768 11.2033V15.8987C68.1547 16.64 68.8977 16.9695 69.8057 16.9695C70.5487 16.9695 71.1266 16.7224 71.4568 16.1458C71.8695 15.4868 72.1172 14.5807 72.1172 13.2627C72.1172 12.1094 71.9521 11.2857 71.5393 10.7915C71.2091 10.2972 70.6313 10.0501 69.8057 10.0501C69.3104 9.96772 68.7326 10.1325 68.2373 10.5443Z" fill="white"/>
<path d="M75.9146 6.09623C75.9146 5.76673 75.9971 5.51961 76.2448 5.27249C76.4924 5.02537 76.7401 4.94299 77.0703 4.94299C77.4005 4.94299 77.6481 5.02537 77.8958 5.27249C78.1434 5.51961 78.226 5.76673 78.226 6.09623C78.226 6.42573 78.1434 6.67285 77.8958 6.91997C77.6481 7.16709 77.4005 7.24947 77.0703 7.24947C76.7401 7.24947 76.4924 7.16709 76.2448 6.91997C75.9971 6.67285 75.9146 6.42573 75.9146 6.09623ZM76.2448 17.9581V8.89695L77.7307 8.64983V17.9581H76.2448Z" fill="white"/>
<path d="M80.9504 11.2033C80.9504 10.5443 80.9504 10.1324 80.8678 9.96764C80.8678 9.72052 80.7027 9.4734 80.5376 9.06153L81.941 8.64966C82.1886 9.1439 82.2712 9.55577 82.2712 10.05C83.1792 9.1439 84.1699 8.64966 85.1605 8.64966C85.6558 8.64966 86.0686 8.73203 86.4813 8.97916C86.8941 9.22628 87.2243 9.55577 87.3894 9.96764C87.5545 10.2971 87.637 10.6266 87.637 11.0385V17.9579H86.2337V11.7799C86.2337 11.0385 86.1511 10.5443 85.9035 10.2971C85.6558 10.05 85.3256 9.88527 84.9128 9.88527C84.5826 9.88527 84.0873 10.05 83.592 10.2971C83.0967 10.5443 82.6839 10.8738 82.3537 11.2033V17.9579H80.9504V11.2033Z" fill="white"/>
<path d="M90.9394 10.8738L90.1964 9.88527C91.4347 9.06153 92.673 8.64966 93.9938 8.64966C95.3146 8.64966 96.1402 9.1439 96.5529 10.05C96.718 10.3795 96.718 10.8738 96.718 11.6151V12.1094L96.6355 15.0748C96.6355 15.1572 96.6355 15.322 96.6355 15.4867C96.6355 15.981 96.6355 16.3104 96.718 16.5576C96.8006 16.8871 97.0482 17.1342 97.3784 17.2989L96.6355 18.2874C95.9751 18.0403 95.5623 17.6284 95.3972 16.9694C94.5717 17.7932 93.6636 18.2051 92.7555 18.2051C91.8475 18.2051 91.1045 17.9579 90.5267 17.4637C90.0313 17.0518 89.7837 16.3928 89.7837 15.5691C89.7837 14.4982 90.1964 13.7569 91.022 13.1802C91.8475 12.6036 93.0858 12.3565 94.5717 12.3565C94.8193 12.3565 94.9844 12.3565 95.2321 12.3565V11.6975C95.2321 10.9561 95.1496 10.4619 94.9019 10.2971C94.5717 9.96764 94.2415 9.8029 93.6636 9.8029C93.1683 9.8029 92.5904 9.96764 91.93 10.2148C91.6824 10.3795 91.3522 10.6266 90.9394 10.8738ZM95.3147 15.7338L95.3972 13.345C94.9844 13.345 94.7368 13.345 94.6542 13.345C93.3334 13.345 92.5079 13.5921 92.0126 14.0863C91.6824 14.4158 91.5173 14.9101 91.5173 15.5691C91.5173 16.6399 92.0126 17.2166 93.0858 17.2166C94.0764 17.1342 94.8193 16.6399 95.3147 15.7338Z" fill="white"/>
<path d="M101.423 8.89683H103.735L103.322 10.0501H101.423V15.8986C101.423 16.3929 101.506 16.7224 101.671 16.9695C101.836 17.1342 102.166 17.299 102.579 17.299C102.909 17.299 103.24 17.2166 103.487 17.1342L103.652 18.0404C103.157 18.2875 102.662 18.3699 102.084 18.3699C100.68 18.3699 100.02 17.7109 100.02 16.3105V10.0501H98.7817V8.89683H99.9375V8.73209C99.9375 8.56734 100.02 7.90835 100.103 6.83748V6.59036L101.588 6.26086C101.423 7.24935 101.423 8.15547 101.423 8.89683Z" fill="white"/>
<path d="M105.221 13.4274C105.221 11.9446 105.551 10.7914 106.294 9.96764C106.954 9.1439 107.945 8.64966 109.101 8.64966C110.421 8.64966 111.495 9.1439 112.238 10.2148C112.815 11.0385 113.063 12.1917 113.063 13.5921C113.063 15.2396 112.568 16.5576 111.66 17.3813C110.999 17.9579 110.174 18.2874 109.183 18.2874C107.945 18.2874 107.037 17.8756 106.294 16.9694C105.633 16.1457 105.221 14.9101 105.221 13.4274ZM111.082 11.0385C110.669 10.2971 110.091 9.88527 109.183 9.88527C108.275 9.88527 107.697 10.2148 107.284 10.8738C106.954 11.368 106.872 12.1917 106.872 13.2626C106.872 14.663 107.037 15.6515 107.45 16.2281C107.862 16.8047 108.44 17.1342 109.266 17.1342C110.256 17.1342 110.917 16.6399 111.247 15.7338C111.412 15.2396 111.495 14.5806 111.495 13.7569C111.495 12.5212 111.33 11.6151 111.082 11.0385Z" fill="white"/>
<path d="M115.787 11.0385C115.787 10.2148 115.705 9.55577 115.457 9.06153L116.86 8.64966C117.108 9.1439 117.191 9.55577 117.191 10.05V10.2148C117.934 9.22628 118.759 8.73203 119.75 8.73203C119.915 8.73203 120.08 8.73203 120.245 8.81441L119.667 10.3795C119.502 10.2971 119.337 10.2971 119.254 10.2971C118.924 10.2971 118.511 10.3795 118.181 10.6266C117.851 10.8738 117.521 11.1209 117.356 11.4504C117.273 11.6975 117.191 12.027 117.191 12.4389V18.1227H115.787V11.0385Z" fill="white"/>
</g>
<defs>
<clipPath id="clip0_1455_3688">
<rect width="119.7" height="24.7122" fill="white" transform="translate(0.544922 0.494873)"/>
</clipPath>
</defs>
</svg>
