<svg width="114" height="42" viewBox="0 0 114 42" fill="none" xmlns="http://www.w3.org/2000/svg">
<path d="M21.4226 3.14859L28.2447 14.9734H14.6006L21.4226 3.14859Z" fill="white"/>
<path d="M21.3875 14.9735L24.816 20.851H17.959L21.3875 14.9735Z" fill="white"/>
<path d="M14.5653 14.9735L17.9589 20.851H11.1719L14.5653 14.9735Z" fill="white"/>
<path d="M28.2093 14.9735L31.603 20.851H24.8159L28.2093 14.9735Z" fill="white"/>
<path d="M14.5653 26.7285L17.9589 32.676H11.1719L14.5653 26.7285Z" fill="white"/>
<path d="M28.2093 26.7285L31.603 32.676H24.8159L28.2093 26.7285Z" fill="white"/>
<path d="M11.1722 20.8511L14.6007 26.7285H7.74365L11.1722 20.8511Z" fill="white"/>
<path d="M21.3875 26.7285L24.816 32.676H17.959L21.3875 26.7285Z" fill="white"/>
<path d="M17.9942 20.8511L21.3876 26.7285H14.6006L17.9942 20.8511Z" fill="white"/>
<path d="M24.7813 20.8511L28.1747 26.7285H21.3877L24.7813 20.8511Z" fill="white"/>
<path d="M17.9942 32.6758L21.3876 38.5533H14.6006L17.9942 32.6758Z" fill="white"/>
<path d="M24.7813 32.6758L28.1747 38.5533H21.3877L24.7813 32.6758Z" fill="white"/>
<path d="M31.6034 20.8511L35.0318 26.7285H28.1748L31.6034 20.8511Z" fill="white"/>
<path d="M7.77857 26.7284L14.6006 38.5533H0.956543L7.77857 26.7284Z" fill="white"/>
<path d="M34.9968 26.7284L41.8189 38.5533H28.1748L34.9968 26.7284Z" fill="white"/>
<path d="M18.5318 28.4266H24.2432L21.3875 23.4728L18.5318 28.4266Z" fill="black" stroke="white" stroke-width="0.661935"/>
<g clip-path="url(#clip0_1455_3705)">
<path d="M109.216 21.0553C109.216 22.5998 108.912 24.1291 108.321 25.556C107.73 26.9829 106.864 28.2794 105.772 29.3714C104.681 30.4635 103.385 31.3298 101.958 31.9208C100.532 32.5119 99.0031 32.8161 97.4592 32.8161C94.3411 32.8161 91.3508 31.577 89.146 29.3714C86.9413 27.1659 85.7026 24.1745 85.7026 21.0553C85.7026 17.9362 86.9413 14.9448 89.146 12.7393C91.3508 10.5337 94.3411 9.29462 97.4592 9.29462C99.0031 9.29462 100.532 9.59882 101.958 10.1898C103.385 10.7809 104.681 11.6472 105.772 12.7393C106.864 13.8313 107.73 15.1278 108.321 16.5547C108.912 17.9816 109.216 19.5109 109.216 21.0553ZM105.985 21.0513C105.985 18.7894 105.087 16.62 103.488 15.0205C101.889 13.4211 99.7204 12.5225 97.4592 12.5225C95.198 12.5225 93.0294 13.4211 91.4305 15.0205C89.8316 16.62 88.9334 18.7894 88.9334 21.0513C88.9334 23.3133 89.8316 25.4827 91.4305 27.0821C93.0294 28.6816 95.198 29.5802 97.4592 29.5802C99.7204 29.5802 101.889 28.6816 103.488 27.0821C105.087 25.4827 105.985 23.3133 105.985 21.0513Z" fill="white"/>
<path d="M52.7821 20.9953L59.1754 9.87613C59.2076 9.8204 59.2516 9.77317 59.3039 9.73832C59.3561 9.70347 59.4151 9.68199 59.4761 9.67564C60.6492 9.55802 61.8183 9.57272 62.9834 9.71975C63.006 9.72326 63.0276 9.732 63.0463 9.74519C63.0649 9.75839 63.0801 9.77564 63.0904 9.79543C63.1006 9.81523 63.1058 9.83696 63.1053 9.85872C63.1048 9.88048 63.0987 9.90161 63.0876 9.92024L54.5979 24.6603C54.4616 24.8955 54.3934 25.1508 54.3934 25.4261V32.2789C54.3934 32.332 54.3723 32.383 54.3347 32.4206C54.2972 32.4582 54.2462 32.4794 54.193 32.4794H51.1948C51.1674 32.4794 51.1403 32.474 51.115 32.4635C51.0897 32.453 51.0667 32.4376 51.0474 32.4183C51.028 32.3989 51.0127 32.3759 51.0022 32.3506C50.9917 32.3253 50.9863 32.2982 50.9863 32.2708V25.4582C50.9863 25.2149 50.9262 24.9891 50.806 24.7805L42.2962 10.0004C42.1519 9.75183 42.2214 9.62753 42.5046 9.62753L45.8516 9.64356C45.9113 9.6434 45.9706 9.66 46.0234 9.69169C46.0762 9.72339 46.1206 9.76903 46.1522 9.82401L52.6137 20.9953C52.6698 21.0915 52.726 21.0915 52.7821 20.9953Z" fill="white"/>
<path d="M69.8377 25.8712C69.7578 25.8691 69.6782 25.8833 69.6037 25.9129C69.5291 25.9425 69.4612 25.987 69.4037 26.0438C69.3462 26.1005 69.3004 26.1684 69.2689 26.2434C69.2374 26.3185 69.2209 26.3991 69.2204 26.4807L69.2044 32.1506C69.2035 32.2129 69.1821 32.2723 69.1447 32.3164C69.1073 32.3606 69.0569 32.3859 69.0039 32.3872L66.2101 32.4393C66.1591 32.4404 66.1085 32.4304 66.0611 32.4099C66.0138 32.3894 65.9707 32.3588 65.9344 32.32C65.8981 32.2811 65.8694 32.2347 65.85 32.1835C65.8306 32.1324 65.8208 32.0776 65.8213 32.0223L65.8894 9.90022C65.8894 9.84628 65.9107 9.79443 65.9489 9.75555C65.987 9.71667 66.039 9.69379 66.0939 9.69171C68.4722 9.60884 70.8518 9.58612 73.2328 9.62354C74.4433 9.64226 75.5015 9.72379 76.4074 9.86814C77.4816 10.0419 78.457 10.4121 79.3335 10.9789C81.0945 12.115 82.2302 13.6614 82.7406 15.6182C83.2189 17.452 83.0907 19.2457 82.3558 20.9993C81.5675 22.8813 80.214 24.2566 78.2953 25.1254C77.3467 25.5531 76.0734 25.7924 74.4754 25.8432C72.8774 25.8913 71.3315 25.9006 69.8377 25.8712ZM77.7502 13.8338C76.9646 13.2591 76.3272 12.9584 75.8382 12.9316C73.8367 12.8247 71.739 12.7926 69.5451 12.8354C69.4859 12.8375 69.4299 12.862 69.3887 12.9039C69.3476 12.9458 69.3246 13.0018 69.3246 13.0599L69.3487 22.4348C69.3487 22.4873 69.3697 22.5377 69.4071 22.5752C69.4446 22.6127 69.4956 22.6343 69.5491 22.6353C72.4057 22.6754 74.2349 22.6821 75.0365 22.6554C76.5864 22.6019 77.793 22.0459 78.6561 20.9873C79.4711 19.9902 79.8626 18.8381 79.8305 17.5309C79.7931 16.0579 79.0997 14.8256 77.7502 13.8338Z" fill="white"/>
</g>
<defs>
<clipPath id="clip0_1455_3705">
<rect width="75.3573" height="41.7019" fill="white" transform="translate(38.46)"/>
</clipPath>
</defs>
</svg>
