<svg xmlns="http://www.w3.org/2000/svg" fill="none" viewBox="0 0 100 30" preserveAspectRatio="xMidYMid meet" role="presentation" class="block w-[100px]"><path fill="url(#:r2:-a)" stroke="url(#:r2:-b)" stroke-width="0.558" d="m8.207 17.07 4.108.81c.868.17 1.42.428 1.757.776.33.34.49.805.49 1.48 0 .715-.355 1.3-1.035 1.718-.69.425-1.716.674-3.012.674-1.278 0-2.229-.258-2.854-.711-.611-.443-.939-1.094-.939-1.962v-.279H.313v.279c0 2.523 1.007 4.608 2.797 6.055 1.785 1.443 4.324 2.237 7.369 2.237 3.136 0 5.766-.83 7.617-2.324 1.858-1.5 2.912-3.654 2.912-6.25 0-2.11-.59-3.769-1.825-5.019-1.228-1.242-3.062-2.049-5.488-2.529l-4.033-.808c-.925-.189-1.543-.464-1.932-.848-.378-.373-.571-.882-.571-1.62 0-.767.334-1.377.944-1.806.62-.435 1.54-.692 2.703-.692 1.064 0 1.905.27 2.474.73.562.453.882 1.109.882 1.944v.279h6.41v-.28c0-2.533-.939-4.617-2.638-6.063C16.239 1.419 13.816.633 10.878.633 5.001.633.712 4.045.712 8.96c0 2.183.637 3.978 1.91 5.347 1.27 1.366 3.15 2.282 5.585 2.764ZM77.773 1.405v-.28h-6.446v16.13c0 1.544-.455 2.73-1.279 3.53-.824.801-2.055 1.252-3.677 1.252-1.605 0-2.816-.434-3.626-1.225-.809-.79-1.256-1.975-1.256-3.557V1.124h-6.447v16.517c0 3.178 1.107 5.804 3.094 7.634 1.984 1.827 4.819 2.837 8.235 2.837 3.435 0 6.288-1.019 8.286-2.85 2-1.834 3.116-4.46 3.116-7.621zm11.302 0v-.28h-6.447V27.69H99.69v-5.829H89.075z"></path><path stroke="url(#:r2:-c)" stroke-width="6.44" d="M35.479 3.691c-6.44 1.607-8.899 4.258-8.899 10.402.774 6.383 5.104 12.326 10.57 11.555s7.647-2.315 10.41-6.375.3-7.184-.64-10.203c-.455-1.458-3.393-7.387-11.441-5.379Z"></path><defs><linearGradient id=":r2:-a" x1="50.054" x2="50.054" y1="0.912" y2="27.868" gradientUnits="userSpaceOnUse"><stop stop-color="#7E41BC"></stop><stop offset="1" stop-color="#081A5A"></stop></linearGradient><linearGradient id=":r2:-b" x1="50.054" x2="50.054" y1="0.912" y2="27.868" gradientUnits="userSpaceOnUse"><stop stop-color="#7E41BC"></stop><stop offset="1" stop-color="#081A5A"></stop></linearGradient><linearGradient id=":r2:-c" x1="34.829" x2="40.484" y1="3.86" y2="24.966" gradientUnits="userSpaceOnUse"><stop stop-color="#7E41BC"></stop><stop offset="1" stop-color="#081A5A"></stop></linearGradient></defs></svg>