<svg width="56" height="57" viewBox="0 0 56 57" fill="none" xmlns="http://www.w3.org/2000/svg">
<path d="M28 4C20.7904 4 15.0562 9.53546 14.2939 16.5439C8.2548 17.2964 3.5 22.2599 3.5 28.5C3.5 35.2562 8.99377 40.75 15.75 40.75H21C21.4641 40.75 21.9092 40.5656 22.2374 40.2374C22.5656 39.9092 22.75 39.4641 22.75 39C22.75 38.5359 22.5656 38.0908 22.2374 37.7626C21.9092 37.4344 21.4641 37.25 21 37.25H15.75C10.8722 37.25 7 33.3778 7 28.5C7 23.6222 10.8722 19.75 15.75 19.75C16.2141 19.75 16.6592 19.5656 16.9874 19.2374C17.3156 18.9092 17.5 18.4641 17.5 18C17.5 12.1527 22.1527 7.5 28 7.5C33.8473 7.5 38.5 12.1527 38.5 18C38.5 18.4641 38.6844 18.9092 39.0126 19.2374C39.3408 19.5656 39.7859 19.75 40.25 19.75C45.1278 19.75 49 23.6222 49 28.5C49 33.3778 45.1278 37.25 40.25 37.25H35C34.5359 37.25 34.0907 37.4344 33.7626 37.7626C33.4344 38.0908 33.25 38.5359 33.25 39C33.25 39.4641 33.4344 39.9092 33.7626 40.2374C34.0907 40.5656 34.5359 40.75 35 40.75H40.25C47.0062 40.75 52.5 35.2562 52.5 28.5C52.5 22.2599 47.7452 17.2964 41.7061 16.5439C40.9438 9.53546 35.2096 4 28 4Z" fill="#FFCA59"/>
<path d="M28.0515 21.5C27.8131 21.4931 27.5758 21.5351 27.3543 21.6233C27.1327 21.7114 26.9314 21.8439 26.7629 22.0127L19.7629 29.0127C19.4348 29.3409 19.2505 29.7859 19.2505 30.25C19.2505 30.7141 19.4348 31.1591 19.7629 31.4873C20.0911 31.8154 20.5362 31.9997 21.0002 31.9997C21.4643 31.9997 21.9093 31.8154 22.2375 31.4873L26.2502 27.4746V51.25C26.2502 51.7141 26.4346 52.1592 26.7628 52.4874C27.091 52.8156 27.5361 53 28.0002 53C28.23 53 28.4576 52.9547 28.6699 52.8668C28.8822 52.7788 29.0752 52.6499 29.2377 52.4874C29.4002 52.3249 29.5291 52.132 29.617 51.9197C29.705 51.7074 29.7502 51.4798 29.7502 51.25V27.4746L33.7629 31.4873C34.0911 31.8154 34.5362 31.9997 35.0002 31.9997C35.4643 31.9997 35.9093 31.8154 36.2375 31.4873C36.5656 31.1591 36.75 30.7141 36.75 30.25C36.75 29.7859 36.5656 29.3409 36.2375 29.0127L29.2375 22.0127C28.922 21.6968 28.4978 21.5134 28.0515 21.5Z" fill="#FFCA59"/>
</svg>
