<svg width="48" height="48" viewBox="0 0 48 48" fill="none" xmlns="http://www.w3.org/2000/svg">
<rect width="48" height="48" rx="12" fill="url(#paint0_linear_1738_5768)" fill-opacity="0.05"/>
<g clip-path="url(#clip0_1738_5768)">
<path d="M29.6342 33.7569L35.0404 35.0406L33.7568 29.6343L29.6342 33.7569Z" fill="url(#paint1_linear_1738_5768)"/>
<path d="M32.4853 15.5147C30.2188 13.2482 27.2053 12 24 12L23.6082 24L24 36C27.2053 36 30.2188 34.7518 32.4853 32.4853C34.7518 30.2187 36 27.2053 36 24C36 20.7947 34.7518 17.7812 32.4853 15.5147ZM33.3272 19.1022C34.0016 20.3827 34.4041 21.7943 34.5049 23.2652H30.4948C30.4352 21.7961 30.1971 20.3959 29.8005 19.1022H33.3272ZM31.4462 16.5539C31.7871 16.8948 32.1012 17.2555 32.3886 17.6326H29.2622C28.6272 16.1561 27.7651 14.8623 26.7123 13.821C28.4867 14.2907 30.1137 15.2213 31.4462 16.5539ZM24.7348 14.0557C25.9346 14.9394 26.9222 16.1648 27.6476 17.6326H24.7348V14.0557ZM24.7348 19.1022H28.258C28.6949 20.3746 28.9584 21.7785 29.0238 23.2652H24.7348V19.1022H24.7348ZM24.7348 24.7348H29.0238C28.9584 26.2215 28.6949 27.6253 28.2579 28.8978H24.7347L24.7348 24.7348ZM24.7348 33.9443V30.3674H27.6476C26.9222 31.8353 25.9346 33.0606 24.7348 33.9443ZM31.4462 31.4461C30.1137 32.7787 28.4867 33.7093 26.7123 34.179C27.7651 33.1377 28.6272 31.8439 29.2622 30.3674H32.3886C32.1012 30.7445 31.7871 31.1051 31.4462 31.4461ZM33.3272 28.8978H29.8005C30.1971 27.6041 30.4353 26.2039 30.4948 24.7348H34.5049C34.4041 26.2057 34.0016 27.6173 33.3272 28.8978Z" fill="url(#paint2_linear_1738_5768)"/>
<path opacity="0.4" d="M15.5147 15.5147C13.2482 17.7812 12 20.7947 12 24C12 27.2053 13.2482 30.2188 15.5147 32.4853C17.7813 34.7518 20.7947 36 24 36V12C20.7947 12 17.7812 13.2482 15.5147 15.5147ZM16.5539 16.5539C17.8864 15.2213 19.5133 14.2907 21.2878 13.821C20.2349 14.8623 19.3729 16.1561 18.7378 17.6326H15.6114C15.8988 17.2555 16.2129 16.8949 16.5539 16.5539ZM14.6728 19.1022H18.1995C17.8029 20.3959 17.5648 21.7961 17.5052 23.2652H13.4951C13.5959 21.7943 13.9984 20.3827 14.6728 19.1022ZM14.6728 28.8978C13.9984 27.6172 13.5959 26.2056 13.4951 24.7348H17.5052C17.5648 26.2038 17.8029 27.6041 18.1995 28.8978H14.6728ZM16.5539 31.4461C16.2129 31.1052 15.8988 30.7445 15.6114 30.3674H18.7378C19.3729 31.8439 20.2349 33.1377 21.2878 34.179C19.5134 33.7093 17.8864 32.7787 16.5539 31.4461ZM23.2652 33.9443C22.0654 33.0606 21.0778 31.8353 20.3525 30.3674H23.2652V33.9443ZM23.2652 28.8978H19.7421C19.3051 27.6253 19.0416 26.2215 18.9762 24.7348H23.2652L23.2652 28.8978ZM23.2652 23.2652H18.9763C19.0417 21.7785 19.3051 20.3747 19.7421 19.1022H23.2653V23.2652H23.2652ZM23.2652 17.6326H20.3525C21.0778 16.1648 22.0654 14.9394 23.2652 14.0557V17.6326Z" fill="url(#paint3_linear_1738_5768)"/>
</g>
<defs>
<linearGradient id="paint0_linear_1738_5768" x1="-3.17294" y1="-7.93232" x2="66.379" y2="31.3625" gradientUnits="userSpaceOnUse">
<stop stop-color="#0AA5FE"/>
<stop offset="0.255208" stop-color="#02DDEB"/>
<stop offset="0.46875" stop-color="#FDD13B"/>
<stop offset="0.729167" stop-color="#FF8F81"/>
<stop offset="1" stop-color="#C14ECF"/>
</linearGradient>
<linearGradient id="paint1_linear_1738_5768" x1="29.2768" y1="28.7409" x2="37.1105" y2="33.1667" gradientUnits="userSpaceOnUse">
<stop stop-color="#0AA5FE"/>
<stop offset="0.255208" stop-color="#02DDEB"/>
<stop offset="0.46875" stop-color="#FDD13B"/>
<stop offset="0.729167" stop-color="#FF8F81"/>
<stop offset="1" stop-color="#C14ECF"/>
</linearGradient>
<linearGradient id="paint2_linear_1738_5768" x1="22.789" y1="8.03384" x2="44.6186" y2="14.4017" gradientUnits="userSpaceOnUse">
<stop stop-color="#0AA5FE"/>
<stop offset="0.255208" stop-color="#02DDEB"/>
<stop offset="0.46875" stop-color="#FDD13B"/>
<stop offset="0.729167" stop-color="#FF8F81"/>
<stop offset="1" stop-color="#C14ECF"/>
</linearGradient>
<linearGradient id="paint3_linear_1738_5768" x1="11.2068" y1="8.03384" x2="32.4497" y2="14.0347" gradientUnits="userSpaceOnUse">
<stop stop-color="#0AA5FE"/>
<stop offset="0.255208" stop-color="#02DDEB"/>
<stop offset="0.46875" stop-color="#FDD13B"/>
<stop offset="0.729167" stop-color="#FF8F81"/>
<stop offset="1" stop-color="#C14ECF"/>
</linearGradient>
<clipPath id="clip0_1738_5768">
<rect width="24" height="24" fill="white" transform="translate(12 12)"/>
</clipPath>
</defs>
</svg>
