<svg width="64" height="64" viewBox="0 0 64 64" fill="none" xmlns="http://www.w3.org/2000/svg">
<g clip-path="url(#clip0_1738_5673)">
<path d="M61.614 6.28589L57.0641 6.93602L57.7142 2.38614C57.9969 0.408515 55.5881 -0.800235 54.1732 0.616015L45.826 8.96327C45.5067 9.28252 45.2996 9.69689 45.2357 10.1439L44.2907 16.7589L33.9849 27.0648C33.1687 26.6743 32.2661 26.4375 31.3026 26.4375C27.8505 26.4375 25.0422 29.2458 25.0422 32.6979C25.0422 36.15 27.8505 38.9583 31.3026 38.9583C34.7547 38.9583 37.563 36.15 37.563 32.6979C37.563 31.7344 37.3262 30.8318 36.9357 30.0156L47.2416 19.7098L53.8566 18.7648C54.3036 18.7009 54.7179 18.4938 55.0372 18.1745L63.3845 9.82727C64.795 8.41639 63.6007 6.00751 61.614 6.28589Z" fill="url(#paint0_linear_1738_5673)"/>
<path opacity="0.4" d="M48.2325 24.6215L41.6212 31.2322C41.6892 31.7125 41.7366 32.1994 41.7366 32.6981C41.7366 38.4517 37.0562 43.1321 31.3026 43.1321C25.549 43.1321 20.8686 38.4517 20.8686 32.6981C20.8686 26.9445 25.5489 22.2641 31.3026 22.2641C31.8012 22.2641 32.288 22.3114 32.7681 22.3794L39.3792 15.7682C36.9286 14.5942 34.1965 13.917 31.3026 13.917C20.9467 13.917 12.5214 22.3424 12.5214 32.6982C12.5214 43.0541 20.9467 51.4795 31.3026 51.4795C41.6585 51.4795 50.0839 43.0541 50.0839 32.6982C50.0837 29.8042 49.4067 27.0721 48.2325 24.6215Z" fill="url(#paint1_linear_1738_5673)"/>
<path opacity="0.4" d="M59.6554 19.4578L57.988 21.1251C57.037 22.0769 55.7789 22.7059 54.4469 22.896L52.1844 23.2194C53.5032 26.1129 54.2574 29.3158 54.2574 32.6976C54.2574 45.355 43.9599 55.6525 31.3025 55.6525C18.6451 55.6525 8.34762 45.355 8.34762 32.6976C8.34762 20.0403 18.6452 9.74276 31.3025 9.74276C34.6844 9.74276 37.8872 10.4969 40.7807 11.8158L41.104 9.55326C41.2941 8.22113 41.9232 6.96313 42.8749 6.01138L44.5419 4.34463C40.4297 2.41876 35.9467 1.39551 31.3024 1.39551C14.0421 1.39551 0.000366211 15.4374 0.000366211 32.6976C0.000366211 49.9579 14.0422 63.9998 31.3025 63.9998C48.5627 63.9998 62.6046 49.9579 62.6046 32.6976C62.6046 28.0531 61.5814 23.5699 59.6554 19.4578Z" fill="url(#paint2_linear_1738_5673)"/>
</g>
<defs>
<linearGradient id="paint0_linear_1738_5673" x1="22.467" y1="-6.43811" x2="78.9169" y2="25.4537" gradientUnits="userSpaceOnUse">
<stop stop-color="#0AA5FE"/>
<stop offset="0.255208" stop-color="#02DDEB"/>
<stop offset="0.46875" stop-color="#FDD13B"/>
<stop offset="0.729167" stop-color="#FF8F81"/>
<stop offset="1" stop-color="#C14ECF"/>
</linearGradient>
<linearGradient id="paint1_linear_1738_5673" x1="10.0384" y1="7.70954" x2="64.4664" y2="38.4598" gradientUnits="userSpaceOnUse">
<stop stop-color="#0AA5FE"/>
<stop offset="0.255208" stop-color="#02DDEB"/>
<stop offset="0.46875" stop-color="#FDD13B"/>
<stop offset="0.729167" stop-color="#FF8F81"/>
<stop offset="1" stop-color="#C14ECF"/>
</linearGradient>
<linearGradient id="paint2_linear_1738_5673" x1="-4.13796" y1="-8.95026" x2="86.5755" y2="42.3002" gradientUnits="userSpaceOnUse">
<stop stop-color="#0AA5FE"/>
<stop offset="0.255208" stop-color="#02DDEB"/>
<stop offset="0.46875" stop-color="#FDD13B"/>
<stop offset="0.729167" stop-color="#FF8F81"/>
<stop offset="1" stop-color="#C14ECF"/>
</linearGradient>
<clipPath id="clip0_1738_5673">
<rect width="64" height="64" fill="white"/>
</clipPath>
</defs>
</svg>
