<svg width="48" height="48" viewBox="0 0 48 48" fill="none" xmlns="http://www.w3.org/2000/svg">
<g clip-path="url(#clip0_1738_5538)">
<path d="M35.2683 43.5136L46.0809 46.0809L43.5136 35.2683L35.2683 43.5136Z" fill="url(#paint0_linear_1738_5538)"/>
<path d="M40.9706 7.02947C36.4376 2.49638 30.4106 0 24.0001 0L23.2163 24L24.0001 48C30.4107 48 36.4376 45.5036 40.9706 40.9705C45.5036 36.4374 48.0001 30.4106 48.0001 24C48.0001 17.5894 45.5036 11.5625 40.9706 7.02947ZM42.6543 14.2043C44.0031 16.7654 44.8082 19.5887 45.0097 22.5304H36.9896C36.8704 19.5923 36.3942 16.7917 35.601 14.2043H42.6543ZM38.8923 9.10772C39.5743 9.78966 40.2024 10.5111 40.7773 11.2652H34.5244C33.2543 8.31216 31.5302 5.72466 29.4245 3.642C32.9733 4.58138 36.2273 6.44269 38.8923 9.10772ZM25.4696 4.1115C27.8692 5.87887 29.8444 8.3295 31.2951 11.2653H25.4696V4.1115ZM25.4696 14.2043H32.5159C33.3899 16.7493 33.9168 19.557 34.0476 22.5304H25.4697V14.2043H25.4696ZM25.4696 25.4695H34.0475C33.9167 28.4429 33.3898 31.2506 32.5158 33.7956H25.4695L25.4696 25.4695ZM25.4696 43.8885V36.7347H31.2951C29.8443 39.6705 27.8692 42.1211 25.4696 43.8885ZM38.8923 38.8923C36.2273 41.5573 32.9733 43.4186 29.4245 44.358C31.5302 42.2753 33.2543 39.6878 34.5244 36.7348H40.7773C40.2024 37.4889 39.5743 38.2103 38.8923 38.8923ZM42.6543 33.7956H35.601C36.3943 31.2082 36.8705 28.4077 36.9896 25.4695H45.0097C44.8082 28.4114 44.0032 31.2346 42.6543 33.7956Z" fill="url(#paint1_linear_1738_5538)"/>
<path opacity="0.4" d="M7.02947 7.02947C2.49638 11.5625 0 17.5894 0 24C0 30.4106 2.49638 36.4375 7.02947 40.9705C11.5626 45.5035 17.5894 48 24 48V0C17.5894 0 11.5625 2.49638 7.02947 7.02947ZM9.10772 9.10772C11.7727 6.44269 15.0266 4.58138 18.5755 3.642C16.4698 5.72466 14.7458 8.31225 13.4756 11.2652H7.22278C7.79766 10.5111 8.42578 9.78975 9.10772 9.10772ZM5.34562 14.2043H12.3991C11.6058 16.7917 11.1295 19.5922 11.0105 22.5304H2.99025C3.19172 19.5886 3.99684 16.7654 5.34562 14.2043ZM5.34562 33.7956C3.99684 31.2345 3.19172 28.4112 2.99025 25.4695H11.0104C11.1295 28.4077 11.6058 31.2082 12.399 33.7956H5.34562ZM9.10772 38.8923C8.42578 38.2103 7.79766 37.4889 7.22278 36.7348H13.4756C14.7458 39.6878 16.4698 42.2753 18.5755 44.358C15.0267 43.4186 11.7727 41.5573 9.10772 38.8923ZM22.5305 43.8885C20.1308 42.1211 18.1556 39.6705 16.7049 36.7347H22.5305V43.8885ZM22.5305 33.7956H15.4841C14.6102 31.2506 14.0832 28.4429 13.9524 25.4695H22.5304L22.5305 33.7956ZM22.5305 22.5305H13.9525C14.0833 19.5571 14.6103 16.7494 15.4842 14.2044H22.5306V22.5305H22.5305ZM22.5305 11.2652H16.7049C18.1556 8.3295 20.1308 5.87878 22.5305 4.11141V11.2652Z" fill="url(#paint2_linear_1738_5538)"/>
</g>
<defs>
<linearGradient id="paint0_linear_1738_5538" x1="34.5536" y1="33.4815" x2="50.221" y2="42.3331" gradientUnits="userSpaceOnUse">
<stop stop-color="#0AA5FE"/>
<stop offset="0.255208" stop-color="#02DDEB"/>
<stop offset="0.46875" stop-color="#FDD13B"/>
<stop offset="0.729167" stop-color="#FF8F81"/>
<stop offset="1" stop-color="#C14ECF"/>
</linearGradient>
<linearGradient id="paint1_linear_1738_5538" x1="21.578" y1="-7.93232" x2="65.2372" y2="4.8035" gradientUnits="userSpaceOnUse">
<stop stop-color="#0AA5FE"/>
<stop offset="0.255208" stop-color="#02DDEB"/>
<stop offset="0.46875" stop-color="#FDD13B"/>
<stop offset="0.729167" stop-color="#FF8F81"/>
<stop offset="1" stop-color="#C14ECF"/>
</linearGradient>
<linearGradient id="paint2_linear_1738_5538" x1="-1.58647" y1="-7.93232" x2="40.8994" y2="4.06932" gradientUnits="userSpaceOnUse">
<stop stop-color="#0AA5FE"/>
<stop offset="0.255208" stop-color="#02DDEB"/>
<stop offset="0.46875" stop-color="#FDD13B"/>
<stop offset="0.729167" stop-color="#FF8F81"/>
<stop offset="1" stop-color="#C14ECF"/>
</linearGradient>
<clipPath id="clip0_1738_5538">
<rect width="48" height="48" fill="white"/>
</clipPath>
</defs>
</svg>
