<svg width="48" height="48" viewBox="0 0 48 48" fill="none" xmlns="http://www.w3.org/2000/svg">
<path d="M37.362 42.2963C37.362 42.1298 37.4168 41.9686 37.5188 41.8373L44.7465 32.4983C44.91 32.2868 45 32.0243 45 31.7573V17.6918C45 17.0243 44.457 16.4821 43.7903 16.4821C43.1235 16.4821 42.5798 17.0251 42.5798 17.6918V27.6263C42.681 27.7013 42.777 27.7838 42.8678 27.8746C43.8683 28.8751 43.8683 30.5033 42.8678 31.5038L39.2513 35.1203C38.958 35.4136 38.484 35.4136 38.1908 35.1203C37.8975 34.8271 37.8975 34.3531 38.1908 34.0598L41.8073 30.4433C42.2228 30.0278 42.2228 29.3506 41.8073 28.9351C41.724 28.8518 41.6295 28.7843 41.5275 28.7333C41.5148 28.7281 41.5035 28.7221 41.4915 28.7168C41.103 28.5421 40.6095 28.6261 40.299 28.9358L36.345 32.8898C36.2835 32.9521 36.2153 33.0136 36.144 33.0706L32.826 35.7526C32.0235 36.4013 31.5623 37.3651 31.5623 38.3971V44.1811H37.362V42.2948V42.2963Z" fill="url(#paint0_linear_1738_5547)"/>
<path d="M10.4813 41.8373C10.5833 41.9686 10.638 42.1298 10.638 42.2963V44.1826H16.4378V38.3986C16.4378 37.3666 15.9773 36.4021 15.1748 35.7541L11.856 33.0721C11.7848 33.0143 11.7165 32.9528 11.6528 32.8883L7.70027 28.9366C7.39052 28.6268 6.89552 28.5436 6.50777 28.7183L6.47252 28.7348C6.36977 28.7858 6.27527 28.8533 6.19202 28.9373C5.77652 29.3528 5.77652 30.0293 6.19202 30.4448L9.80852 34.0613C10.1018 34.3546 10.1018 34.8286 9.80852 35.1218C9.51527 35.4151 9.04127 35.4151 8.74802 35.1218L5.13152 31.5053C4.13102 30.5048 4.13102 28.8766 5.13152 27.8761C5.22227 27.7853 5.31827 27.7028 5.41952 27.6271V17.6926C5.41952 17.0251 4.87577 16.4821 4.20902 16.4821C3.54227 16.4821 2.99927 17.0251 2.99927 17.6926V31.7573C2.99927 32.0236 3.08927 32.2868 3.25277 32.4976L10.4805 41.8366L10.4813 41.8373Z" fill="url(#paint1_linear_1738_5547)"/>
<path opacity="0.4" d="M24 30.4612C31.3455 30.4612 37.3222 24.4852 37.3222 17.1397C37.3222 9.79424 31.3455 3.81824 24 3.81824C16.6545 3.81824 10.6777 9.79424 10.6777 17.1397C10.6777 24.4852 16.6545 30.4612 24 30.4612ZM17.277 15.5377C17.5702 15.2445 18.0442 15.2445 18.3375 15.5377L22.65 19.8502L29.6625 12.8377C29.9557 12.5445 30.4297 12.5445 30.723 12.8377C31.0162 13.131 31.0162 13.605 30.723 13.8982L23.1802 21.441C23.0392 21.582 22.8495 21.6607 22.65 21.6607C22.4505 21.6607 22.26 21.582 22.1197 21.441L17.277 16.5975C16.9837 16.3042 16.9837 15.831 17.277 15.5377Z" fill="url(#paint2_linear_1738_5547)"/>
<defs>
<linearGradient id="paint0_linear_1738_5547" x1="30.674" y1="11.9046" x2="54.5655" y2="18.453" gradientUnits="userSpaceOnUse">
<stop stop-color="#0AA5FE"/>
<stop offset="0.255208" stop-color="#02DDEB"/>
<stop offset="0.46875" stop-color="#FDD13B"/>
<stop offset="0.729167" stop-color="#FF8F81"/>
<stop offset="1" stop-color="#C14ECF"/>
</linearGradient>
<linearGradient id="paint1_linear_1738_5547" x1="2.11094" y1="11.9044" x2="26.0038" y2="18.4531" gradientUnits="userSpaceOnUse">
<stop stop-color="#0AA5FE"/>
<stop offset="0.255208" stop-color="#02DDEB"/>
<stop offset="0.46875" stop-color="#FDD13B"/>
<stop offset="0.729167" stop-color="#FF8F81"/>
<stop offset="1" stop-color="#C14ECF"/>
</linearGradient>
<linearGradient id="paint2_linear_1738_5547" x1="8.91645" y1="-0.584697" x2="47.5233" y2="21.2282" gradientUnits="userSpaceOnUse">
<stop stop-color="#0AA5FE"/>
<stop offset="0.255208" stop-color="#02DDEB"/>
<stop offset="0.46875" stop-color="#FDD13B"/>
<stop offset="0.729167" stop-color="#FF8F81"/>
<stop offset="1" stop-color="#C14ECF"/>
</linearGradient>
</defs>
</svg>
