<svg width="16" height="16" viewBox="0 0 16 16" fill="none" xmlns="http://www.w3.org/2000/svg">
<path fill-rule="evenodd" clip-rule="evenodd" d="M8 0C8.17384 3.58409e-05 8.34294 0.0566902 8.48171 0.16139C8.62048 0.266091 8.72137 0.413139 8.76912 0.580288L9.63638 3.61613C9.82312 4.26993 10.1734 4.86535 10.6542 5.34614C11.1351 5.82694 11.7305 6.17724 12.3843 6.36396L15.4203 7.23119C15.5873 7.27905 15.7342 7.37998 15.8388 7.51874C15.9434 7.65749 16 7.82653 16 8.00029C16 8.17405 15.9434 8.34308 15.8388 8.48184C15.7342 8.6206 15.5873 8.72153 15.4203 8.76938L12.3843 9.63661C11.7305 9.82334 11.1351 10.1736 10.6542 10.6544C10.1734 11.1352 9.82312 11.7306 9.63638 12.3844L8.76912 15.4203C8.72127 15.5873 8.62033 15.7343 8.48157 15.8388C8.34281 15.9434 8.17377 16 8 16C7.82623 16 7.65719 15.9434 7.51843 15.8388C7.37967 15.7343 7.27873 15.5873 7.23088 15.4203L6.36362 12.3844C6.17688 11.7306 5.82657 11.1352 5.34576 10.6544C4.86495 10.1736 4.26951 9.82334 3.61568 9.63661L0.579732 8.76938C0.412685 8.72153 0.265759 8.6206 0.161166 8.48184C0.056573 8.34308 0 8.17405 0 8.00029C0 7.82653 0.056573 7.65749 0.161166 7.51874C0.265759 7.37998 0.412685 7.27905 0.579732 7.23119L3.61568 6.36396C4.26951 6.17724 4.86495 5.82694 5.34576 5.34614C5.82657 4.86535 6.17688 4.26993 6.36362 3.61613L7.23088 0.580288C7.27863 0.413139 7.37952 0.266091 7.51829 0.16139C7.65706 0.0566902 7.82616 3.58409e-05 8 0Z" fill="url(#paint0_linear_1592_233)"/>
<defs>
<linearGradient id="paint0_linear_1592_233" x1="-1.05765" y1="-2.64411" x2="22.1263" y2="10.4542" gradientUnits="userSpaceOnUse">
<stop stop-color="#0AA5FE"/>
<stop offset="0.255208" stop-color="#02DDEB"/>
<stop offset="0.46875" stop-color="#FDD13B"/>
<stop offset="0.729167" stop-color="#FF8F81"/>
<stop offset="1" stop-color="#C14ECF"/>
</linearGradient>
</defs>
</svg>
