<svg width="48" height="48" viewBox="0 0 48 48" fill="none" xmlns="http://www.w3.org/2000/svg">
<path d="M37.3618 42.2962C37.3618 42.1297 37.4165 41.9684 37.5185 41.8372L44.7463 32.4982C44.9098 32.2867 44.9998 32.0242 44.9998 31.7572V17.6917C44.9998 17.0242 44.4568 16.4819 43.79 16.4819C43.1233 16.4819 42.5795 17.0249 42.5795 17.6917V27.6262C42.6808 27.7012 42.7768 27.7837 42.8675 27.8744C43.868 28.8749 43.868 30.5032 42.8675 31.5037L39.251 35.1202C38.9578 35.4134 38.4838 35.4134 38.1905 35.1202C37.8973 34.8269 37.8973 34.3529 38.1905 34.0597L41.807 30.4432C42.2225 30.0277 42.2225 29.3504 41.807 28.9349C41.7238 28.8517 41.6293 28.7842 41.5273 28.7332C41.5145 28.7279 41.5033 28.7219 41.4913 28.7167C41.1028 28.5419 40.6093 28.6259 40.2988 28.9357L36.3448 32.8897C36.2833 32.9519 36.215 33.0134 36.1438 33.0704L32.8258 35.7524C32.0233 36.4012 31.562 37.3649 31.562 38.3969V44.1809H37.3618V42.2947V42.2962Z" fill="url(#paint0_linear_1455_3879)"/>
<path d="M10.481 41.8372C10.583 41.9684 10.6378 42.1297 10.6378 42.2962V44.1824H16.4375V38.3984C16.4375 37.3664 15.977 36.4019 15.1745 35.7539L11.8558 33.0719C11.7845 33.0142 11.7163 32.9527 11.6525 32.8882L7.70002 28.9364C7.39027 28.6267 6.89527 28.5434 6.50752 28.7182L6.47227 28.7347C6.36952 28.7857 6.27502 28.8532 6.19177 28.9372C5.77627 29.3527 5.77627 30.0292 6.19177 30.4447L9.80827 34.0612C10.1015 34.3544 10.1015 34.8284 9.80827 35.1217C9.51502 35.4149 9.04102 35.4149 8.74777 35.1217L5.13127 31.5052C4.13077 30.5047 4.13077 28.8764 5.13127 27.8759C5.22202 27.7852 5.31802 27.7027 5.41927 27.6269V17.6924C5.41927 17.0249 4.87552 16.4819 4.20877 16.4819C3.54202 16.4819 2.99902 17.0249 2.99902 17.6924V31.7572C2.99902 32.0234 3.08902 32.2867 3.25252 32.4974L10.4803 41.8364L10.481 41.8372Z" fill="url(#paint1_linear_1455_3879)"/>
<path opacity="0.4" d="M24 30.4614C31.3455 30.4614 37.3222 24.4854 37.3222 17.1399C37.3222 9.79436 31.3455 3.81836 24 3.81836C16.6545 3.81836 10.6777 9.79436 10.6777 17.1399C10.6777 24.4854 16.6545 30.4614 24 30.4614ZM17.277 15.5379C17.5702 15.2446 18.0442 15.2446 18.3375 15.5379L22.65 19.8504L29.6625 12.8379C29.9557 12.5446 30.4297 12.5446 30.723 12.8379C31.0162 13.1311 31.0162 13.6051 30.723 13.8984L23.1802 21.4411C23.0392 21.5821 22.8495 21.6609 22.65 21.6609C22.4505 21.6609 22.26 21.5821 22.1197 21.4411L17.277 16.5976C16.9837 16.3044 16.9837 15.8311 17.277 15.5379Z" fill="url(#paint2_linear_1455_3879)"/>
<defs>
<linearGradient id="paint0_linear_1455_3879" x1="30.6737" y1="11.9045" x2="54.5653" y2="18.4528" gradientUnits="userSpaceOnUse">
<stop stop-color="#0AA5FE"/>
<stop offset="0.255208" stop-color="#02DDEB"/>
<stop offset="0.46875" stop-color="#FDD13B"/>
<stop offset="0.729167" stop-color="#FF8F81"/>
<stop offset="1" stop-color="#C14ECF"/>
</linearGradient>
<linearGradient id="paint1_linear_1455_3879" x1="2.1107" y1="11.9042" x2="26.0036" y2="18.453" gradientUnits="userSpaceOnUse">
<stop stop-color="#0AA5FE"/>
<stop offset="0.255208" stop-color="#02DDEB"/>
<stop offset="0.46875" stop-color="#FDD13B"/>
<stop offset="0.729167" stop-color="#FF8F81"/>
<stop offset="1" stop-color="#C14ECF"/>
</linearGradient>
<linearGradient id="paint2_linear_1455_3879" x1="8.91645" y1="-0.584575" x2="47.5233" y2="21.2284" gradientUnits="userSpaceOnUse">
<stop stop-color="#0AA5FE"/>
<stop offset="0.255208" stop-color="#02DDEB"/>
<stop offset="0.46875" stop-color="#FDD13B"/>
<stop offset="0.729167" stop-color="#FF8F81"/>
<stop offset="1" stop-color="#C14ECF"/>
</linearGradient>
</defs>
</svg>
