<svg width="64" height="64" viewBox="0 0 64 64" fill="none" xmlns="http://www.w3.org/2000/svg">
<g clip-path="url(#clip0_1455_3832)">
<path d="M62.688 0.00802713C50.1947 -0.215973 35.9467 6.31469 26.928 16.4454C18.3094 16.608 9.91736 20.1414 3.73869 26.32C3.37869 26.6747 3.25069 27.2054 3.40803 27.6854C3.56803 28.168 3.98403 28.5174 4.48536 28.5894L14.7627 30.0614L13.4934 31.4827C13.0214 32.0107 13.0454 32.8134 13.5467 33.3147L30.6854 50.4534C30.944 50.712 31.2854 50.8427 31.6294 50.8427C31.9467 50.8427 32.264 50.7307 32.5174 50.504L33.9387 49.2347L35.4107 59.512C35.4827 60.0134 35.8774 60.3814 36.3547 60.5414C36.4774 60.5814 36.6054 60.6 36.736 60.6C37.1147 60.6 37.5014 60.4347 37.768 60.1707C43.8614 54.0774 47.3947 45.6854 47.5574 37.0667C57.6987 28.0294 64.2827 13.7867 63.992 1.30936C63.9734 0.600027 63.4 0.0266938 62.688 0.00802713ZM50.4 23.0267C49.1014 24.3254 47.3947 24.976 45.6854 24.976C43.976 24.976 42.2694 24.3254 40.9707 23.0267C38.3734 20.4267 38.3734 16.1974 40.9707 13.5974C43.5707 10.9974 47.8 10.9974 50.4 13.5974C53 16.1974 53 20.4294 50.4 23.0267Z" fill="url(#paint0_linear_1455_3832)"/>
<path opacity="0.4" d="M7.26391 45.0799C4.41058 47.9332 0.493242 60.8239 0.0559089 62.2826C-0.0854244 62.7519 0.0452423 63.2612 0.389242 63.6079C0.645242 63.8639 0.983909 63.9999 1.33324 63.9999C1.46124 63.9999 1.58924 63.9812 1.71724 63.9439C3.17591 63.5066 16.0666 59.5892 18.9199 56.7359C22.1332 53.5226 22.1332 48.2932 18.9199 45.0799C15.7039 41.8666 10.4772 41.8692 7.26391 45.0799Z" fill="url(#paint1_linear_1455_3832)"/>
</g>
<defs>
<linearGradient id="paint0_linear_1455_3832" x1="-0.667972" y1="-10.0117" x2="87.1841" y2="39.6728" gradientUnits="userSpaceOnUse">
<stop stop-color="#0AA5FE"/>
<stop offset="0.255208" stop-color="#02DDEB"/>
<stop offset="0.46875" stop-color="#FDD13B"/>
<stop offset="0.729167" stop-color="#FF8F81"/>
<stop offset="1" stop-color="#C14ECF"/>
</linearGradient>
<linearGradient id="paint1_linear_1455_3832" x1="-1.41023" y1="39.1461" x2="29.4963" y2="56.6084" gradientUnits="userSpaceOnUse">
<stop stop-color="#0AA5FE"/>
<stop offset="0.255208" stop-color="#02DDEB"/>
<stop offset="0.46875" stop-color="#FDD13B"/>
<stop offset="0.729167" stop-color="#FF8F81"/>
<stop offset="1" stop-color="#C14ECF"/>
</linearGradient>
<clipPath id="clip0_1455_3832">
<rect width="64" height="64" fill="white"/>
</clipPath>
</defs>
</svg>
