<svg width="64" height="64" viewBox="0 0 64 64" fill="none" xmlns="http://www.w3.org/2000/svg">
<g clip-path="url(#clip0_1455_3840)">
<path d="M61.6142 6.28589L57.0644 6.93602L57.7145 2.38614C57.9971 0.408515 55.5884 -0.800235 54.1735 0.616015L45.8262 8.96327C45.507 9.28252 45.2999 9.69689 45.236 10.1439L44.291 16.7589L33.9851 27.0648C33.169 26.6743 32.2664 26.4375 31.3029 26.4375C27.8507 26.4375 25.0425 29.2458 25.0425 32.6979C25.0425 36.15 27.8507 38.9583 31.3029 38.9583C34.755 38.9583 37.5632 36.15 37.5632 32.6979C37.5632 31.7344 37.3265 30.8318 36.936 30.0156L47.2419 19.7098L53.8569 18.7648C54.3039 18.7009 54.7181 18.4938 55.0375 18.1745L63.3847 9.82727C64.7952 8.41639 63.601 6.00751 61.6142 6.28589Z" fill="url(#paint0_linear_1455_3840)"/>
<path opacity="0.4" d="M48.2326 24.6215L41.6214 31.2322C41.6894 31.7125 41.7367 32.1994 41.7367 32.6981C41.7367 38.4517 37.0564 43.1321 31.3027 43.1321C25.5491 43.1321 20.8687 38.4517 20.8687 32.6981C20.8687 26.9445 25.549 22.2641 31.3027 22.2641C31.8014 22.2641 32.2881 22.3114 32.7682 22.3794L39.3794 15.7682C36.9287 14.5942 34.1966 13.917 31.3027 13.917C20.9469 13.917 12.5215 22.3424 12.5215 32.6982C12.5215 43.0541 20.9469 51.4795 31.3027 51.4795C41.6586 51.4795 50.084 43.0541 50.084 32.6982C50.0839 29.8042 49.4069 27.0721 48.2326 24.6215Z" fill="url(#paint1_linear_1455_3840)"/>
<path opacity="0.4" d="M59.6555 19.4578L57.9881 21.1251C57.0371 22.0769 55.779 22.7059 54.447 22.896L52.1845 23.2194C53.5034 26.1129 54.2575 29.3158 54.2575 32.6976C54.2575 45.355 43.96 55.6525 31.3026 55.6525C18.6452 55.6525 8.34774 45.355 8.34774 32.6976C8.34774 20.0403 18.6454 9.74276 31.3026 9.74276C34.6845 9.74276 37.8874 10.4969 40.7809 11.8158L41.1041 9.55326C41.2942 8.22113 41.9234 6.96313 42.875 6.01138L44.542 4.34463C40.4299 2.41876 35.9469 1.39551 31.3025 1.39551C14.0422 1.39551 0.000488281 15.4374 0.000488281 32.6976C0.000488281 49.9579 14.0424 63.9998 31.3026 63.9998C48.5629 63.9998 62.6047 49.9579 62.6047 32.6976C62.6047 28.0531 61.5815 23.5699 59.6555 19.4578Z" fill="url(#paint2_linear_1455_3840)"/>
</g>
<defs>
<linearGradient id="paint0_linear_1455_3840" x1="22.4673" y1="-6.43811" x2="78.9171" y2="25.4537" gradientUnits="userSpaceOnUse">
<stop stop-color="#0AA5FE"/>
<stop offset="0.255208" stop-color="#02DDEB"/>
<stop offset="0.46875" stop-color="#FDD13B"/>
<stop offset="0.729167" stop-color="#FF8F81"/>
<stop offset="1" stop-color="#C14ECF"/>
</linearGradient>
<linearGradient id="paint1_linear_1455_3840" x1="10.0385" y1="7.70954" x2="64.4665" y2="38.4598" gradientUnits="userSpaceOnUse">
<stop stop-color="#0AA5FE"/>
<stop offset="0.255208" stop-color="#02DDEB"/>
<stop offset="0.46875" stop-color="#FDD13B"/>
<stop offset="0.729167" stop-color="#FF8F81"/>
<stop offset="1" stop-color="#C14ECF"/>
</linearGradient>
<linearGradient id="paint2_linear_1455_3840" x1="-4.13784" y1="-8.95026" x2="86.5756" y2="42.3002" gradientUnits="userSpaceOnUse">
<stop stop-color="#0AA5FE"/>
<stop offset="0.255208" stop-color="#02DDEB"/>
<stop offset="0.46875" stop-color="#FDD13B"/>
<stop offset="0.729167" stop-color="#FF8F81"/>
<stop offset="1" stop-color="#C14ECF"/>
</linearGradient>
<clipPath id="clip0_1455_3840">
<rect width="64" height="64" fill="white"/>
</clipPath>
</defs>
</svg>
