<svg width="536" height="283" viewBox="0 0 536 283" fill="none" xmlns="http://www.w3.org/2000/svg">
<rect x="119.024" y="69.9658" width="121.21" height="41.6961" rx="15.5148" transform="rotate(-3.31781 119.024 69.9658)" fill="#212121"/>
<path d="M144.602 90.833C144.733 93.0913 146.189 95.0733 150.127 94.845C153.56 94.646 154.926 93.1892 154.788 90.8226C154.673 88.8353 153.353 87.9512 151.24 87.7655L148.27 87.5027C147.14 87.405 146.615 86.7829 146.563 85.8977C146.493 84.6873 147.293 83.789 149.244 83.6758C151.286 83.5575 152.299 84.4595 152.563 85.8943L154.37 85.7895C154.082 83.6491 152.557 82.0337 149.179 82.2295C145.963 82.416 144.572 84.0555 144.688 86.0608C144.797 87.9396 145.924 88.9437 147.983 89.1144L150.788 89.3506C152.154 89.4708 152.858 90.0463 152.923 91.1663C152.994 92.3948 152.464 93.2594 150.044 93.3997C147.677 93.5369 146.568 92.5498 146.408 90.7283L144.602 90.833ZM162.346 93.8466L162.262 92.4013L159.552 92.5584L159.193 86.3619L162.084 86.1943L162.003 84.8032L159.113 84.9708L158.994 82.9294L158.091 82.9817L157.457 84.8674L155.616 85.6267L155.67 86.5661L157.387 86.4666L157.676 91.4527C157.78 93.2593 158.372 94.077 160.558 93.9503L162.346 93.8466ZM168.758 84.2666C167.078 84.364 166.16 85.4142 165.696 86.7825L165.569 84.5965L163.781 84.7002L164.304 93.7331L166.111 93.6283L165.911 90.1778C165.768 87.7208 166.259 86.1698 168.679 86.0295L169.131 86.0033L169.029 84.2509L168.758 84.2666ZM173.662 93.4263C175.577 93.3152 176.504 92.1195 176.8 90.9604C176.842 91.683 176.913 92.2952 177.026 92.9956L178.67 92.9003C178.549 92.0553 178.499 91.5144 178.461 90.846L178.201 86.3657C178.105 84.7036 176.81 83.6367 174.317 83.7812C171.752 83.9299 170.395 85.2231 170.488 87.1391L172.294 87.0344C172.319 85.891 172.989 85.254 174.47 85.1681C176.024 85.078 176.49 85.6129 176.537 86.4259C176.573 87.0582 176.192 87.3522 175.333 87.547L173.097 88.0573C171.093 88.5179 170.425 89.4992 170.509 90.9444C170.605 92.6065 171.819 93.5331 173.662 93.4263ZM173.96 92.0132C173.021 92.0677 172.362 91.6346 172.311 90.7674C172.263 89.9364 172.726 89.4746 173.831 89.1567L175.061 88.7954C175.596 88.6375 176.165 88.4595 176.632 88.0699L176.664 88.6119C176.768 90.4184 175.857 91.9032 173.96 92.0132ZM186.04 92.473L185.956 91.0278L183.246 91.1849L182.887 84.9883L185.777 84.8207L185.697 83.4297L182.806 83.5972L182.688 81.5558L181.785 81.6082L181.151 83.4938L179.31 84.2531L179.364 85.1925L181.08 85.093L181.369 90.0792C181.474 91.8858 182.065 92.7034 184.251 92.5767L186.04 92.473ZM191.776 91.0892C190.222 91.1793 189.026 90.5598 188.75 88.2919L195.867 87.8792C195.89 87.6423 195.877 87.4255 195.864 87.1906C195.714 84.6072 194.114 82.6517 191.242 82.8182C188.153 82.9973 186.796 85.233 186.949 87.8706C187.104 90.5443 188.583 92.6156 191.799 92.4292C194.979 92.2449 195.87 90.4168 195.96 89.1609L194.298 89.2572C194.099 90.2113 193.42 90.9939 191.776 91.0892ZM191.337 84.154C192.945 84.0608 193.897 84.8395 194.093 86.6589L188.691 86.972C188.792 84.9541 189.784 84.2441 191.337 84.154ZM204.784 83.7733C204.126 82.742 203.024 82.1895 201.435 82.2817C198.526 82.4503 197.279 84.3896 197.433 87.0453C197.587 89.701 199.05 91.4832 201.958 91.3146C203.548 91.2224 204.584 90.6367 205.118 89.5363L205.218 91.2706C205.326 93.1314 204.515 93.831 202.546 93.9451C200.739 94.0498 199.902 93.3733 199.724 92.1692L197.917 92.2739C198.206 94.4324 199.862 95.4964 202.608 95.3372C205.987 95.1414 207.171 93.677 207.028 91.2201L206.507 82.2233L204.7 82.328L204.784 83.7733ZM202.311 89.8984C200.306 90.0146 199.391 89.2339 199.258 86.9395C199.125 84.6452 199.944 83.7639 201.949 83.6476C203.846 83.5376 204.819 84.3875 204.948 86.6096C205.077 88.8317 204.208 89.7884 202.311 89.8984ZM213.352 88.2976L213.072 89.4014L212.63 88.3395L209.817 82.0314L207.956 82.1393L211.894 90.9742L212.545 90.9365L211.821 93.1536L209.147 93.3086L209.231 94.7539L210.785 94.6638C212.971 94.5371 213.37 93.6076 214 91.6497L217.206 81.603L215.453 81.7046L213.352 88.2976Z" fill="#FAFAFA"/>
<rect x="84.6797" y="13.6782" width="112.483" height="41.6961" rx="15.5148" transform="rotate(-3.31781 84.6797 13.6782)" fill="#212121"/>
<path d="M116.595 38.5285C118.926 38.3934 120.414 37.1832 120.874 35.4164L121.022 37.9637L122.702 37.8663L122.353 31.8504L115.47 32.2494L115.549 33.6224L120.626 33.3281C120.497 35.1664 119.595 36.8138 116.777 36.9772C113.778 37.151 112.524 35.5199 112.344 32.4306C112.163 29.3052 113.295 27.572 116.204 27.4033C118.751 27.2557 119.966 28.2003 120.335 30.191L122.268 30.0789C121.773 27.1711 119.891 25.6489 116.187 25.8636C111.924 26.1107 110.187 28.9848 110.393 32.5437C110.601 36.1207 112.548 38.7631 116.595 38.5285ZM129.634 28.2562C127.954 28.3536 127.036 29.4037 126.571 30.772L126.445 28.5861L124.656 28.6898L125.18 37.7226L126.986 37.6179L126.786 34.1674C126.644 31.7104 127.134 30.1594 129.555 30.019L130.007 29.9928L129.905 28.2405L129.634 28.2562ZM135.987 37.3862C139.13 37.2039 140.522 34.9481 140.368 32.2924C140.217 29.6729 138.573 27.5929 135.43 27.7752C132.286 27.9574 130.894 30.1952 131.046 32.8328C131.201 35.5065 132.844 37.5684 135.987 37.3862ZM132.872 32.7451C132.733 30.3423 133.563 29.3335 135.514 29.2204C137.465 29.1073 138.405 30.0135 138.545 32.4162C138.684 34.819 137.854 35.8278 135.903 35.9409C133.952 36.054 133.011 35.1478 132.872 32.7451ZM152.512 34.7787L149.465 27.2516L147.658 27.3563L145.502 35.1851L142.835 27.6359L140.974 27.7438L144.208 36.6196L146.773 36.4709L148.633 29.475L151.289 36.209L153.855 36.0603L156.041 26.8703L154.289 26.9719L152.512 34.7787ZM163.552 35.4981L163.468 34.0529L160.759 34.21L160.399 28.0134L163.29 27.8458L163.209 26.4548L160.319 26.6223L160.2 24.5809L159.297 24.6333L158.663 26.5189L156.822 27.2782L156.877 28.2176L158.593 28.1181L158.882 33.1043C158.987 34.9109 159.578 35.7286 161.764 35.6018L163.552 35.4981ZM170.046 25.7684C168.312 25.8689 167.375 26.9021 166.911 28.2704L166.584 22.6338L164.777 22.7386L165.51 35.3846L167.317 35.2799L167.096 31.468C166.929 28.5956 167.839 27.4009 169.609 27.2982C170.748 27.2322 171.641 27.6336 171.751 29.5305L172.068 35.0045L173.875 34.8997L173.548 29.2632C173.411 26.8966 172.449 25.6291 170.046 25.7684Z" fill="#FAFAFA"/>
<rect x="208.59" y="6.49463" width="98.9071" height="41.6961" rx="15.5148" transform="rotate(-3.31781 208.59 6.49463)" fill="#212121"/>
<path d="M233.752 19.3742L233.839 20.8737L238.012 20.6317L238.622 31.146L240.482 31.0382L239.873 20.5239L244.028 20.283L243.941 18.7835L233.752 19.3742ZM246.926 30.9003C248.841 30.7893 249.768 29.5935 250.064 28.4344C250.106 29.157 250.177 29.7692 250.291 30.4696L251.935 30.3743C251.813 29.5294 251.764 28.9884 251.725 28.32L251.465 23.8397C251.369 22.1776 250.074 21.1107 247.581 21.2552C245.016 21.4039 243.659 22.6971 243.752 24.6131L245.558 24.5084C245.583 23.365 246.253 22.728 247.734 22.6421C249.288 22.552 249.754 23.0869 249.801 23.8999C249.838 24.5322 249.456 24.8262 248.597 25.021L246.361 25.5313C244.357 25.9919 243.689 26.9732 243.773 28.4184C243.869 30.0805 245.083 31.0071 246.926 30.9003ZM247.225 29.4872C246.285 29.5417 245.626 29.1086 245.575 28.2415C245.527 27.4104 245.99 26.9486 247.095 26.6307L248.325 26.2694C248.86 26.1115 249.429 25.9335 249.896 25.5439L249.928 26.0859C250.032 27.8924 249.121 29.3772 247.225 29.4872ZM255.906 30.144L255.173 17.498L253.366 17.6027L254.099 30.2488L255.906 30.144ZM262.393 28.7166C260.84 28.8067 259.644 28.1872 259.367 25.9193L266.485 25.5067C266.508 25.2697 266.495 25.0529 266.482 24.8181C266.332 22.2347 264.732 20.2791 261.86 20.4456C258.77 20.6247 257.414 22.8604 257.566 25.498C257.721 28.1718 259.201 30.243 262.417 30.0566C265.596 29.8723 266.487 28.0442 266.578 26.7883L264.916 26.8846C264.717 27.8387 264.037 28.6213 262.393 28.7166ZM261.955 21.7814C263.563 21.6882 264.514 22.4669 264.711 24.2863L259.309 24.5994C259.409 22.5816 260.401 21.8715 261.955 21.7814ZM273.102 19.7939C271.368 19.8944 270.431 20.9276 269.966 22.2959L269.849 20.2725L268.042 20.3772L268.566 29.4101L270.373 29.3054L270.152 25.4935C269.985 22.621 270.895 21.4263 272.665 21.3237C273.803 21.2577 274.697 21.6591 274.807 23.556L275.124 29.0299L276.931 28.9252L276.604 23.2887C276.467 20.9221 275.505 19.6546 273.102 19.7939ZM284.462 28.4886L284.378 27.0433L281.668 27.2004L281.309 21.0039L284.2 20.8363L284.119 19.4452L281.228 19.6128L281.11 17.5714L280.207 17.6237L279.573 19.5094L277.732 20.2687L277.786 21.2081L279.503 21.1086L279.792 26.0948C279.896 27.9013 280.488 28.719 282.673 28.5923L284.462 28.4886Z" fill="#FAFAFA"/>
<rect x="91.4139" y="129.844" width="117.331" height="41.6961" rx="15.5148" transform="rotate(-3.31781 91.4139 129.844)" fill="#212121"/>
<path d="M126.2 142.166L117.131 142.692L117.828 154.705L119.688 154.598L119.382 149.304L126.048 148.918L125.963 147.454L119.297 147.841L119.079 144.083L126.287 143.665L126.2 142.166ZM134.825 148.481C134.981 151.173 134.028 152.552 132.42 152.645C131.21 152.715 130.28 152.316 130.17 150.419L129.853 144.945L128.046 145.05L128.373 150.686C128.51 153.053 129.544 154.316 131.947 154.177C133.645 154.078 134.566 153.083 135.014 151.733L135.128 153.703L136.934 153.598L136.411 144.565L134.604 144.67L134.825 148.481ZM143.819 143.845C142.085 143.946 141.148 144.979 140.683 146.347L140.566 144.324L138.759 144.429L139.283 153.462L141.09 153.357L140.869 149.545C140.702 146.673 141.612 145.478 143.382 145.375C144.52 145.309 145.414 145.711 145.524 147.608L145.841 153.081L147.647 152.977L147.321 147.34C147.183 144.974 146.222 143.706 143.819 143.845ZM156.659 144.95C155.976 143.811 154.836 143.207 153.21 143.301C150.301 143.47 149.125 145.695 149.279 148.351C149.433 151.006 150.858 153.081 153.767 152.912C155.393 152.818 156.456 152.085 157.002 150.876L157.092 152.429L158.899 152.324L158.166 139.678L156.359 139.783L156.659 144.95ZM154.062 151.445C152.057 151.561 151.233 150.485 151.103 148.245C150.974 146.005 151.667 144.841 153.673 144.724C155.57 144.614 156.696 145.6 156.83 147.913C156.964 150.225 155.959 151.335 154.062 151.445ZM162.828 141.674L162.734 140.048L160.458 140.18L160.552 141.806L162.828 141.674ZM163.195 152.075L162.672 143.042L160.865 143.147L161.389 152.18L163.195 152.075ZM170.089 142.322C168.354 142.423 167.417 143.456 166.953 144.824L166.835 142.801L165.029 142.906L165.552 151.939L167.359 151.834L167.138 148.022C166.972 145.15 167.881 143.955 169.652 143.852C170.79 143.786 171.683 144.188 171.793 146.085L172.11 151.559L173.917 151.454L173.59 145.817C173.453 143.451 172.491 142.183 170.089 142.322ZM182.885 143.321C182.227 142.289 181.126 141.737 179.536 141.829C176.627 141.998 175.38 143.937 175.534 146.593C175.688 149.248 177.151 151.031 180.06 150.862C181.649 150.77 182.685 150.184 183.219 149.084L183.32 150.818C183.428 152.679 182.616 153.378 180.647 153.493C178.841 153.597 178.004 152.921 177.825 151.717L176.019 151.821C176.307 153.98 177.964 155.044 180.71 154.885C184.088 154.689 185.272 153.225 185.13 150.768L184.608 141.771L182.801 141.876L182.885 143.321ZM180.413 149.446C178.407 149.562 177.492 148.781 177.359 146.487C177.226 144.193 178.045 143.311 180.05 143.195C181.947 143.085 182.921 143.935 183.05 146.157C183.178 148.379 182.309 149.336 180.413 149.446Z" fill="#FAFAFA"/>
<rect x="111.238" y="186.974" width="154.179" height="41.6961" rx="15.5148" transform="rotate(-3.31781 111.238 186.974)" fill="#212121"/>
<path d="M142.276 199.513L136.603 199.842L137.3 211.855L139.179 211.746L138.904 207.013L142.698 206.793C145.372 206.638 146.339 204.878 146.226 202.927C146.115 201.012 144.95 199.358 142.276 199.513ZM138.817 205.514L138.569 201.232L141.911 201.038C143.609 200.94 144.204 201.812 144.275 203.04C144.346 204.269 143.858 205.222 142.159 205.32L138.817 205.514ZM150.893 211.303C152.808 211.192 153.736 209.996 154.031 208.837C154.073 209.56 154.145 210.172 154.258 210.872L155.902 210.777C155.781 209.932 155.731 209.391 155.692 208.723L155.433 204.242C155.336 202.58 154.042 201.513 151.549 201.658C148.983 201.807 147.626 203.1 147.719 205.016L149.526 204.911C149.55 203.768 150.22 203.131 151.702 203.045C153.255 202.955 153.721 203.49 153.768 204.303C153.805 204.935 153.423 205.229 152.565 205.424L150.328 205.934C148.325 206.395 147.657 207.376 147.741 208.821C147.837 210.483 149.051 211.41 150.893 211.303ZM151.192 209.89C150.253 209.944 149.593 209.511 149.543 208.644C149.495 207.813 149.957 207.351 151.063 207.033L152.293 206.672C152.827 206.514 153.397 206.336 153.864 205.947L153.895 206.489C154 208.295 153.089 209.78 151.192 209.89ZM162.592 201.181C160.911 201.278 159.994 202.328 159.529 203.697L159.402 201.511L157.614 201.614L158.137 210.647L159.944 210.543L159.744 207.092C159.602 204.635 160.092 203.084 162.513 202.944L162.964 202.918L162.863 201.165L162.592 201.181ZM170.134 209.952L170.051 208.507L167.341 208.664L166.982 202.467L169.872 202.3L169.791 200.908L166.901 201.076L166.783 199.035L165.879 199.087L165.245 200.973L163.404 201.732L163.459 202.671L165.175 202.572L165.464 207.558C165.569 209.365 166.16 210.182 168.346 210.056L170.134 209.952ZM176.629 200.222C174.894 200.323 173.957 201.356 173.493 202.724L173.375 200.701L171.569 200.805L172.093 209.838L173.899 209.734L173.678 205.922C173.512 203.049 174.421 201.855 176.192 201.752C177.33 201.686 178.223 202.087 178.333 203.984L178.65 209.458L180.457 209.353L180.13 203.717C179.993 201.35 179.031 200.083 176.629 200.222ZM186.72 207.939C185.167 208.029 183.971 207.41 183.694 205.142L190.812 204.729C190.835 204.492 190.822 204.275 190.808 204.04C190.659 201.457 189.059 199.501 186.186 199.668C183.097 199.847 181.74 202.083 181.893 204.72C182.048 207.394 183.528 209.465 186.744 209.279C189.923 209.095 190.814 207.267 190.904 206.011L189.242 206.107C189.044 207.061 188.364 207.844 186.72 207.939ZM186.282 201.004C187.89 200.911 188.841 201.689 189.037 203.509L183.636 203.822C183.736 201.804 184.728 201.094 186.282 201.004ZM197.347 199.166C195.667 199.263 194.749 200.314 194.285 201.682L194.158 199.496L192.369 199.6L192.893 208.632L194.7 208.528L194.499 205.077C194.357 202.62 194.847 201.069 197.268 200.929L197.72 200.903L197.618 199.15L197.347 199.166ZM198.684 205.27C198.79 207.112 200.086 208.506 203.066 208.333C205.686 208.181 206.841 207.153 206.733 205.292C206.652 203.901 205.978 202.907 203.718 202.694L201.751 202.518C200.767 202.43 200.469 201.994 200.438 201.452C200.396 200.729 200.924 200.137 202.315 200.056C203.706 199.976 204.415 200.641 204.554 201.467L206.36 201.362C206.135 199.672 204.622 198.581 202.291 198.716C199.925 198.853 198.595 199.982 198.695 201.716C198.775 203.089 199.674 203.907 201.259 204.051L203.519 204.264C204.485 204.353 204.925 204.745 204.968 205.485C205.016 206.316 204.651 206.9 203.043 206.993C201.291 207.094 200.5 206.27 200.364 205.172L198.684 205.27ZM213.36 198.093C211.626 198.193 210.689 199.226 210.224 200.595L209.897 194.958L208.091 195.063L208.824 207.709L210.631 207.604L210.41 203.792C210.243 200.92 211.153 199.725 212.923 199.623C214.061 199.557 214.955 199.958 215.065 201.855L215.382 207.329L217.188 207.224L216.862 201.588C216.725 199.221 215.763 197.953 213.36 198.093ZM220.955 196.583L220.86 194.957L218.584 195.089L218.678 196.715L220.955 196.583ZM221.322 206.984L220.798 197.952L218.992 198.056L219.515 207.089L221.322 206.984ZM228.428 197.219C226.802 197.313 225.738 198.046 225.192 199.256L225.102 197.702L223.296 197.807L224.029 210.453L225.835 210.348L225.536 205.181C226.218 206.32 227.359 206.924 228.985 206.83C231.893 206.662 233.069 204.436 232.915 201.781C232.761 199.125 231.336 197.051 228.428 197.219ZM228.522 205.407C226.625 205.517 225.498 204.531 225.364 202.218C225.23 199.906 226.235 198.796 228.132 198.686C230.137 198.57 230.961 199.646 231.091 201.886C231.221 204.127 230.527 205.291 228.522 205.407ZM234.445 203.197C234.551 205.039 235.847 206.432 238.828 206.26C241.447 206.108 242.602 205.08 242.494 203.219C242.413 201.828 241.74 200.834 239.479 200.621L237.512 200.445C236.528 200.357 236.231 199.921 236.199 199.379C236.157 198.656 236.685 198.064 238.076 197.983C239.467 197.902 240.176 198.568 240.315 199.394L242.121 199.289C241.896 197.599 240.383 196.508 238.053 196.643C235.686 196.78 234.356 197.909 234.456 199.643C234.536 201.016 235.435 201.834 237.02 201.978L239.281 202.191C240.246 202.28 240.686 202.672 240.729 203.412C240.777 204.243 240.412 204.826 238.804 204.92C237.052 205.021 236.261 204.197 236.125 203.099L234.445 203.197Z" fill="#FAFAFA"/>
<rect x="186.241" y="240.904" width="110.543" height="41.6961" rx="15.5148" transform="rotate(-3.31781 186.241 240.904)" fill="#212121"/>
<path d="M218.235 265.75C222.209 265.519 223.777 263.489 223.799 260.424L221.884 260.535C221.846 262.694 220.711 264.065 218.11 264.216C215.255 264.382 213.931 262.791 213.749 259.665C213.568 256.54 214.755 254.804 217.609 254.638C220.102 254.494 221.327 255.619 221.682 257.665L223.579 257.555C223.135 254.59 221.386 252.878 217.556 253.1C213.311 253.346 211.594 256.256 211.798 259.778C212.006 263.355 213.99 265.996 218.235 265.75ZM232.218 259.392C232.374 262.084 231.421 263.463 229.813 263.556C228.603 263.626 227.673 263.227 227.563 261.33L227.246 255.856L225.44 255.96L225.766 261.597C225.903 263.964 226.937 265.227 229.34 265.088C231.038 264.989 231.959 263.993 232.407 262.644L232.521 264.613L234.328 264.508L233.804 255.476L231.997 255.58L232.218 259.392ZM238.659 264.257L237.926 251.611L236.12 251.716L236.853 264.362L238.659 264.257ZM246.433 263.807L246.349 262.361L243.639 262.519L243.28 256.322L246.17 256.154L246.09 254.763L243.199 254.931L243.081 252.89L242.178 252.942L241.544 254.828L239.703 255.587L239.757 256.526L241.473 256.427L241.762 261.413C241.867 263.219 242.458 264.037 244.644 263.91L246.433 263.807ZM254.465 258.103C254.621 260.794 253.668 262.173 252.06 262.266C250.85 262.336 249.92 261.937 249.81 260.04L249.493 254.566L247.687 254.671L248.013 260.307C248.15 262.674 249.184 263.937 251.587 263.798C253.285 263.7 254.206 262.704 254.654 261.354L254.768 263.324L256.575 263.219L256.051 254.186L254.244 254.291L254.465 258.103ZM263.377 253.616C261.697 253.714 260.779 254.764 260.315 256.132L260.188 253.946L258.4 254.05L258.923 263.083L260.73 262.978L260.53 259.527C260.387 257.07 260.878 255.519 263.298 255.379L263.75 255.353L263.648 253.6L263.377 253.616ZM269.617 261.411C268.063 261.501 266.867 260.882 266.591 258.614L273.709 258.201C273.731 257.964 273.719 257.748 273.705 257.513C273.555 254.929 271.955 252.974 269.083 253.14C265.994 253.319 264.637 255.555 264.79 258.193C264.945 260.867 266.424 262.938 269.64 262.751C272.82 262.567 273.711 260.739 273.801 259.483L272.139 259.579C271.941 260.533 271.261 261.316 269.617 261.411ZM269.179 254.476C270.786 254.383 271.738 255.162 271.934 256.981L266.532 257.294C266.633 255.276 267.625 254.566 269.179 254.476Z" fill="#FAFAFA"/>
<rect x="220.165" y="122.38" width="97.9374" height="41.6961" rx="15.5148" transform="rotate(-3.31781 220.165 122.38)" fill="#212121"/>
<path d="M258.996 134.468L255.798 134.653L252.831 145.066L248.68 135.066L245.446 135.253L246.143 147.267L248.004 147.159L247.391 136.59L251.689 146.945L254.146 146.803L257.219 136.021L257.831 146.589L259.692 146.481L258.996 134.468ZM277.783 138.689L275.706 138.81C274.965 138.853 274.356 139.287 274.381 140.337C274.403 141.042 274.33 141.663 274.181 142.215L271.108 139.856C271.052 139.823 271.012 139.771 270.956 139.738L272.083 139.165C273.614 138.369 274.432 137.47 274.348 136.025C274.251 134.345 272.779 133.342 270.593 133.469C268.334 133.6 266.918 134.806 267.033 136.793C267.095 137.859 267.688 138.713 268.495 139.5C266.864 140.446 266.035 141.455 266.133 143.153C266.265 145.43 268.328 146.307 270.676 146.171C272.61 146.059 273.914 145.421 274.722 144.359L276.865 145.993L277.747 144.945L275.395 143.142C275.692 142.327 275.834 141.34 275.844 140.252L277.867 140.135L277.783 138.689ZM270.666 134.734C271.822 134.667 272.52 135.134 272.585 136.254C272.634 137.103 272.1 137.587 271.186 138.075L269.832 138.788C269.216 138.171 268.854 137.558 268.802 136.654C268.731 135.444 269.456 134.804 270.666 134.734ZM270.688 144.811C268.918 144.913 267.967 144.153 267.896 142.924C267.838 141.913 268.477 141.06 269.602 140.451L270.133 140.855L273.565 143.466C272.942 144.281 271.971 144.736 270.688 144.811ZM295.609 144.399L290.451 132.644L287.651 132.806L283.885 145.079L285.764 144.97L286.664 142.054L292.481 141.716L293.713 144.509L295.609 144.399ZM289.118 134.045L291.834 140.249L287.137 140.522L289.118 134.045Z" fill="#FAFAFA"/>
<rect x="248.169" y="60.2939" width="93.089" height="41.6961" rx="15.5148" transform="rotate(-3.31781 248.169 60.2939)" fill="#212121"/>
<path d="M273.983 81.1475C274.113 83.4058 275.57 85.3878 279.508 85.1595C282.941 84.9605 284.306 83.5037 284.169 81.1371C284.054 79.1498 282.734 78.2657 280.62 78.08L277.65 77.8172C276.521 77.7195 275.995 77.0974 275.944 76.2122C275.874 75.0018 276.674 74.1035 278.625 73.9903C280.666 73.872 281.679 74.774 281.944 76.2088L283.75 76.104C283.463 73.9636 281.938 72.3482 278.559 72.544C275.343 72.7305 273.952 74.37 274.068 76.3753C274.177 78.2541 275.305 79.2582 277.363 79.4289L280.168 79.6651C281.535 79.7853 282.239 80.3608 282.304 81.4808C282.375 82.7093 281.845 83.5739 279.424 83.7142C277.058 83.8514 275.949 82.8643 275.789 81.0428L273.983 81.1475ZM289.07 84.5508C290.985 84.4398 291.912 83.244 292.208 82.0849C292.249 82.8076 292.321 83.4197 292.434 84.1201L294.078 84.0248C293.957 83.1799 293.907 82.6389 293.869 81.9705L293.609 77.4902C293.512 75.8281 292.218 74.7612 289.725 74.9057C287.16 75.0545 285.803 76.3476 285.896 78.2636L287.702 78.1589C287.726 77.0155 288.396 76.3785 289.878 76.2926C291.432 76.2026 291.898 76.7375 291.945 77.5504C291.981 78.1827 291.6 78.4767 290.741 78.6715L288.505 79.1818C286.501 79.6424 285.833 80.6237 285.917 82.069C286.013 83.731 287.227 84.6576 289.07 84.5508ZM289.368 83.1377C288.429 83.1922 287.769 82.7591 287.719 81.892C287.671 81.0609 288.134 80.5991 289.239 80.2812L290.469 79.9199C291.003 79.762 291.573 79.584 292.04 79.1944L292.071 79.7364C292.176 81.543 291.265 83.0278 289.368 83.1377ZM298.05 83.7946L297.317 71.1485L295.51 71.2532L296.243 83.8993L298.05 83.7946ZM304.537 82.3671C302.984 82.4572 301.788 81.8377 301.511 79.5698L308.629 79.1572C308.651 78.9202 308.639 78.7034 308.625 78.4686C308.476 75.8852 306.876 73.9296 304.003 74.0961C300.914 74.2752 299.557 76.5109 299.71 79.1485C299.865 81.8223 301.345 83.8936 304.561 83.7071C307.74 83.5228 308.631 81.6948 308.721 80.4388L307.059 80.5351C306.861 81.4892 306.181 82.2718 304.537 82.3671ZM304.099 75.432C305.707 75.3387 306.658 76.1174 306.854 77.9368L301.453 78.25C301.553 76.2321 302.545 75.522 304.099 75.432ZM310.096 80.0691C310.203 81.9118 311.498 83.3049 314.479 83.1321C317.099 82.9803 318.254 81.9526 318.146 80.0918C318.065 78.7008 317.391 77.7066 315.131 77.4932L313.163 77.3173C312.179 77.2293 311.882 76.7934 311.851 76.2514C311.809 75.5288 312.336 74.9363 313.727 74.8556C315.119 74.775 315.828 75.4408 315.966 76.2666L317.773 76.1619C317.548 74.471 316.035 73.3805 313.704 73.5156C311.338 73.6528 310.007 74.7813 310.108 76.5156C310.187 77.8886 311.087 78.7065 312.672 78.8503L314.932 79.0637C315.898 79.1527 316.338 79.5441 316.381 80.2848C316.429 81.1158 316.064 81.6989 314.456 81.7921C312.704 81.8937 311.913 81.0695 311.776 79.9717L310.096 80.0691Z" fill="#FAFAFA"/>
<path d="M1.28748 176.763C100.679 166.095 -13.104 36.5546 38.6201 30.8245C56.0743 28.8908 54.6197 43.4343 72.0739 39.5546M1.28748 176.763C102.134 192.281 44.8341 110.558 64.3165 93.8592C74.4981 85.1321 86.1343 95.3137 103.588 93.8592M1.28748 176.763C54.1349 205.372 73.0436 175.312 73.0436 169.979C73.0436 150.928 84.6797 154.464 84.6797 154.464M1.28748 176.763C41.0443 233.493 65.2862 211.675 93.4068 210.705M1.28748 176.763C6.6207 281.977 118.134 271.31 168.557 266.462" stroke="#C2C2C2" stroke-width="0.969678" stroke-dasharray="1.94 1.94"/>
<path d="M534.224 125.374L320.895 21.4526M534.224 125.374L352.894 76.2394M534.224 125.374L333.986 136.844M534.224 125.374L275.805 197.449M534.224 125.374L309.744 251.751" stroke="#C2C2C2" stroke-width="0.969678" stroke-dasharray="1.94 1.94"/>
</svg>
