<svg width="538" height="284" viewBox="0 0 538 284" fill="none" xmlns="http://www.w3.org/2000/svg">
<rect x="119.082" y="69.8798" width="121.743" height="41.8797" rx="15.5831" transform="rotate(-3.31781 119.082 69.8798)" fill="#007BFF"/>
<path d="M144.768 90.7643C144.899 93.0325 146.362 95.0232 150.317 94.7939C153.765 94.594 155.137 93.1308 154.999 90.7538C154.883 88.7578 153.557 87.8697 151.435 87.6833L148.452 87.4193C147.317 87.3212 146.789 86.6963 146.738 85.8072C146.667 84.5915 147.471 83.6892 149.43 83.5756C151.481 83.4567 152.498 84.3627 152.764 85.8038L154.578 85.6986C154.29 83.5488 152.758 81.9262 149.364 82.1229C146.135 82.3102 144.737 83.9569 144.854 85.971C144.963 87.8582 146.096 88.8667 148.163 89.0381L150.981 89.2753C152.353 89.396 153.06 89.9741 153.126 91.0991C153.197 92.333 152.665 93.2013 150.233 93.3423C147.856 93.4801 146.743 92.4886 146.582 90.6591L144.768 90.7643ZM162.59 93.7911L162.506 92.3395L159.784 92.4973L159.423 86.2734L162.327 86.1051L162.246 84.7079L159.342 84.8763L159.223 82.8258L158.316 82.8784L157.679 84.7724L155.83 85.535L155.885 86.4786L157.609 86.3786L157.899 91.3867C158.004 93.2013 158.598 94.0225 160.794 93.8953L162.59 93.7911ZM169.031 84.169C167.343 84.2668 166.421 85.3216 165.955 86.6959L165.827 84.5003L164.031 84.6044L164.557 93.6771L166.371 93.5719L166.17 90.1062C166.027 87.6384 166.52 86.0805 168.951 85.9396L169.405 85.9133L169.303 84.1532L169.031 84.169ZM173.955 93.3689C175.879 93.2574 176.811 92.0564 177.107 90.8922C177.149 91.618 177.221 92.2329 177.335 92.9363L178.986 92.8406C178.864 91.992 178.814 91.4487 178.776 90.7773L178.515 86.2773C178.418 84.6079 177.118 83.5363 174.614 83.6814C172.037 83.8308 170.674 85.1296 170.767 87.0541L172.582 86.9489C172.606 85.8005 173.279 85.1607 174.767 85.0744C176.328 84.984 176.796 85.5212 176.843 86.3378C176.88 86.9728 176.497 87.2682 175.634 87.4638L173.388 87.9764C171.376 88.4389 170.705 89.4246 170.789 90.8762C170.885 92.5456 172.105 93.4762 173.955 93.3689ZM174.255 91.9497C173.312 92.0044 172.649 91.5694 172.599 90.6984C172.551 89.8637 173.015 89.3998 174.126 89.0806L175.361 88.7177C175.898 88.5591 176.47 88.3803 176.939 87.989L176.97 88.5333C177.076 90.3479 176.161 91.8392 174.255 91.9497ZM186.388 92.4115L186.304 90.9599L183.582 91.1177L183.221 84.8938L186.125 84.7255L186.044 83.3283L183.14 83.4966L183.021 81.4462L182.114 81.4988L181.477 83.3928L179.628 84.1554L179.683 85.099L181.407 84.999L181.697 90.0071C181.802 91.8217 182.396 92.6429 184.592 92.5157L186.388 92.4115ZM192.149 91.0216C190.589 91.112 189.387 90.4898 189.11 88.2119L196.259 87.7975C196.282 87.5595 196.269 87.3418 196.255 87.1059C196.105 84.5111 194.498 82.5469 191.613 82.7142C188.51 82.894 187.147 85.1396 187.301 87.7888C187.457 90.4743 188.943 92.5547 192.173 92.3675C195.366 92.1823 196.261 90.3462 196.352 89.0848L194.682 89.1815C194.483 90.1398 193.8 90.9258 192.149 91.0216ZM191.709 84.0559C193.324 83.9623 194.279 84.7443 194.476 86.5718L189.051 86.8863C189.152 84.8595 190.148 84.1463 191.709 84.0559ZM205.215 83.6735C204.554 82.6376 203.447 82.0827 201.851 82.1753C198.929 82.3447 197.677 84.2925 197.831 86.9599C197.986 89.6272 199.455 91.4173 202.377 91.248C203.973 91.1554 205.013 90.5671 205.55 89.4618L205.651 91.2038C205.759 93.0727 204.945 93.7754 202.967 93.8901C201.152 93.9953 200.312 93.3157 200.132 92.1063L198.318 92.2115C198.607 94.3795 200.271 95.4482 203.03 95.2883C206.423 95.0916 207.612 93.6208 207.469 91.153L206.945 82.1167L205.13 82.2218L205.215 83.6735ZM202.731 89.8255C200.717 89.9423 199.798 89.1581 199.664 86.8536C199.53 84.5492 200.353 83.664 202.367 83.5472C204.272 83.4368 205.25 84.2904 205.38 86.5223C205.509 88.7542 204.636 89.7151 202.731 89.8255ZM213.821 88.2177L213.539 89.3264L213.095 88.2598L210.27 81.9239L208.401 82.0323L212.356 90.9061L213.009 90.8682L212.283 93.0951L209.597 93.2508L209.682 94.7024L211.242 94.612C213.438 94.4847 213.839 93.5511 214.471 91.5846L217.691 81.4937L215.931 81.5957L213.821 88.2177Z" fill="#FAFAFA"/>
<rect x="84.5864" y="13.3444" width="112.978" height="41.8797" rx="15.5831" transform="rotate(-3.31781 84.5864 13.3444)" fill="#119611"/>
<path d="M116.638 38.2294C118.979 38.0937 120.474 36.8782 120.935 35.1036L121.084 37.6621L122.771 37.5643L122.421 31.5219L115.508 31.9227L115.588 33.3017L120.686 33.0062C120.557 34.8525 119.651 36.5071 116.821 36.6712C113.808 36.8459 112.548 35.2075 112.368 32.1047C112.186 28.9655 113.324 27.2246 116.245 27.0553C118.803 26.907 120.024 27.8558 120.394 29.8552L122.336 29.7426C121.839 26.822 119.948 25.2931 116.228 25.5087C111.946 25.757 110.202 28.6437 110.409 32.2183C110.617 35.8111 112.573 38.465 116.638 38.2294ZM129.734 27.9119C128.047 28.0097 127.125 29.0645 126.658 30.4388L126.531 28.2432L124.734 28.3473L125.26 37.42L127.075 37.3148L126.874 33.8491C126.731 31.3813 127.223 29.8234 129.655 29.6825L130.108 29.6562L130.006 27.8961L129.734 27.9119ZM136.115 37.082C139.272 36.899 140.67 34.6332 140.516 31.9659C140.363 29.3348 138.713 27.2457 135.555 27.4287C132.398 27.6118 130.999 29.8594 131.153 32.5086C131.308 35.1941 132.958 37.2651 136.115 37.082ZM132.986 32.4205C132.847 30.0072 133.68 28.994 135.64 28.8804C137.599 28.7668 138.544 29.6769 138.684 32.0902C138.824 34.5036 137.991 35.5168 136.031 35.6304C134.071 35.744 133.126 34.8339 132.986 32.4205ZM152.712 34.4631L149.652 26.9028L147.838 27.008L145.672 34.8712L142.993 27.2889L141.124 27.3972L144.372 36.3121L146.948 36.1627L148.817 29.136L151.485 35.8997L154.061 35.7504L156.257 26.5199L154.497 26.622L152.712 34.4631ZM163.802 35.1857L163.717 33.7341L160.996 33.8919L160.635 27.668L163.538 27.4997L163.457 26.1025L160.554 26.2708L160.435 24.2204L159.528 24.273L158.891 26.167L157.042 26.9296L157.097 27.8732L158.82 27.7732L159.111 32.7813C159.216 34.5959 159.81 35.4171 162.005 35.2899L163.802 35.1857ZM170.324 25.4131C168.583 25.5141 167.641 26.5518 167.175 27.9261L166.847 22.2648L165.032 22.37L165.768 35.0717L167.583 34.9665L167.361 31.1378C167.194 28.2527 168.107 27.0528 169.886 26.9497C171.029 26.8834 171.926 27.2866 172.036 29.1918L172.355 34.6899L174.17 34.5847L173.841 28.9233C173.704 26.5463 172.738 25.2732 170.324 25.4131Z" fill="#FAFAFA"/>
<rect x="209.042" y="6.12921" width="99.3425" height="41.8797" rx="15.5831" transform="rotate(-3.31781 209.042 6.12921)" fill="#E19B23"/>
<path d="M234.31 18.9907L234.397 20.4968L238.589 20.2538L239.201 30.8144L241.07 30.706L240.458 20.1454L244.631 19.9035L244.544 18.3974L234.31 18.9907ZM247.542 30.5675C249.465 30.456 250.397 29.255 250.694 28.0908C250.736 28.8166 250.808 29.4315 250.921 30.1349L252.572 30.0392C252.45 29.1906 252.401 28.6473 252.362 27.9759L252.101 23.4759C252.004 21.8065 250.704 20.7349 248.2 20.88C245.623 21.0294 244.26 22.3282 244.354 24.2527L246.168 24.1475C246.193 22.9991 246.866 22.3593 248.354 22.273C249.914 22.1826 250.382 22.7198 250.429 23.5364C250.466 24.1714 250.083 24.4668 249.22 24.6624L246.974 25.175C244.962 25.6375 244.291 26.6232 244.375 28.0748C244.472 29.7442 245.691 30.6748 247.542 30.5675ZM247.842 29.1483C246.898 29.203 246.236 28.768 246.185 27.897C246.137 27.0623 246.602 26.5984 247.712 26.2792L248.947 25.9163C249.484 25.7577 250.056 25.5789 250.525 25.1876L250.557 25.7319C250.662 27.5465 249.747 29.0378 247.842 29.1483ZM256.561 29.808L255.825 17.1062L254.01 17.2114L254.747 29.9132L256.561 29.808ZM263.077 28.3743C261.517 28.4647 260.316 27.8425 260.038 25.5646L267.187 25.1502C267.21 24.9122 267.197 24.6944 267.184 24.4585C267.033 21.8638 265.426 19.8996 262.541 20.0669C259.438 20.2467 258.076 22.4923 258.229 25.1415C258.385 27.827 259.871 29.9074 263.101 29.7202C266.294 29.535 267.189 27.6989 267.28 26.4374L265.611 26.5342C265.411 27.4925 264.729 28.2785 263.077 28.3743ZM262.637 21.4086C264.252 21.3149 265.208 22.097 265.405 23.9244L259.979 24.239C260.08 22.2122 261.077 21.499 262.637 21.4086ZM273.833 19.4122C272.091 19.5132 271.15 20.5509 270.684 21.9252L270.566 19.893L268.751 19.9982L269.277 29.0708L271.092 28.9656L270.87 25.137C270.703 22.2519 271.616 21.0519 273.394 20.9488C274.538 20.8825 275.435 21.2857 275.545 23.1909L275.864 28.689L277.679 28.5838L277.35 22.9224C277.213 20.5454 276.247 19.2723 273.833 19.4122ZM285.243 28.1452L285.159 26.6936L282.437 26.8514L282.076 20.6276L284.98 20.4593L284.899 19.0621L281.995 19.2304L281.877 17.1799L280.969 17.2325L280.333 19.1265L278.483 19.8891L278.538 20.8327L280.262 20.7328L280.552 25.7409C280.657 27.5554 281.251 28.3767 283.447 28.2494L285.243 28.1452Z" fill="#FAFAFA"/>
<rect x="91.3506" y="130.022" width="117.848" height="41.8797" rx="15.5831" transform="rotate(-3.31781 91.3506 130.022)" fill="#7B9A6D"/>
<path d="M126.286 142.323L117.177 142.851L117.877 154.918L119.746 154.809L119.437 149.493L126.133 149.105L126.048 147.635L119.352 148.023L119.133 144.249L126.373 143.829L126.286 142.323ZM134.949 148.666C135.105 151.37 134.148 152.755 132.533 152.848C131.317 152.919 130.384 152.518 130.273 150.612L129.955 145.114L128.14 145.22L128.468 150.881C128.606 153.258 129.644 154.527 132.058 154.387C133.763 154.288 134.689 153.288 135.138 151.932L135.253 153.91L137.067 153.805L136.541 144.732L134.727 144.838L134.949 148.666ZM143.982 144.01C142.24 144.111 141.299 145.148 140.833 146.523L140.715 144.491L138.9 144.596L139.426 153.668L141.241 153.563L141.019 149.735C140.852 146.849 141.765 145.649 143.543 145.546C144.687 145.48 145.584 145.883 145.694 147.788L146.013 153.287L147.828 153.181L147.499 147.52C147.362 145.143 146.396 143.87 143.982 144.01ZM156.878 145.119C156.193 143.976 155.047 143.368 153.414 143.463C150.493 143.632 149.311 145.867 149.466 148.535C149.621 151.202 151.052 153.286 153.974 153.116C155.607 153.022 156.675 152.286 157.223 151.071L157.314 152.631L159.128 152.526L158.392 139.824L156.578 139.93L156.878 145.119ZM154.271 151.643C152.257 151.759 151.429 150.679 151.299 148.429C151.168 146.179 151.865 145.009 153.879 144.893C155.785 144.782 156.916 145.772 157.051 148.095C157.186 150.418 156.176 151.532 154.271 151.643ZM163.075 141.829L162.98 140.196L160.694 140.328L160.789 141.961L163.075 141.829ZM163.444 152.276L162.918 143.203L161.103 143.309L161.629 152.381L163.444 152.276ZM170.367 142.48C168.625 142.581 167.684 143.619 167.218 144.993L167.1 142.961L165.285 143.066L165.811 152.139L167.626 152.034L167.404 148.205C167.237 145.32 168.15 144.12 169.929 144.017C171.072 143.951 171.969 144.354 172.079 146.259L172.398 151.757L174.213 151.652L173.884 145.99C173.747 143.613 172.781 142.34 170.367 142.48ZM183.22 143.483C182.56 142.447 181.453 141.892 179.856 141.985C176.935 142.154 175.683 144.102 175.837 146.769C175.992 149.437 177.461 151.227 180.382 151.057C181.979 150.965 183.019 150.377 183.556 149.271L183.657 151.013C183.765 152.882 182.95 153.585 180.973 153.7C179.158 153.805 178.318 153.125 178.138 151.916L176.324 152.021C176.613 154.189 178.277 155.258 181.035 155.098C184.429 154.901 185.618 153.43 185.475 150.962L184.951 141.926L183.136 142.031L183.22 143.483ZM180.737 149.635C178.723 149.752 177.803 148.968 177.67 146.663C177.536 144.359 178.359 143.473 180.373 143.357C182.278 143.246 183.256 144.1 183.386 146.332C183.515 148.564 182.642 149.525 180.737 149.635Z" fill="#FAFAFA"/>
<rect x="111.261" y="187.403" width="154.857" height="41.8797" rx="15.5831" transform="rotate(-3.31781 111.261 187.403)" fill="#DE7015"/>
<path d="M142.431 199.922L136.733 200.253L137.433 212.319L139.32 212.21L139.044 207.456L142.855 207.235C145.54 207.079 146.512 205.311 146.398 203.352C146.287 201.428 145.116 199.767 142.431 199.922ZM138.957 205.95L138.708 201.649L142.064 201.455C143.77 201.356 144.367 202.232 144.439 203.465C144.51 204.699 144.019 205.656 142.314 205.755L138.957 205.95ZM151.086 211.764C153.01 211.653 153.941 210.452 154.238 209.288C154.28 210.014 154.352 210.628 154.466 211.332L156.117 211.236C155.995 210.387 155.945 209.844 155.906 209.173L155.645 204.673C155.549 203.003 154.249 201.932 151.744 202.077C149.168 202.226 147.805 203.525 147.898 205.45L149.713 205.344C149.737 204.196 150.41 203.556 151.898 203.47C153.459 203.379 153.927 203.917 153.974 204.733C154.011 205.368 153.627 205.664 152.765 205.859L150.519 206.372C148.506 206.834 147.835 207.82 147.92 209.272C148.016 210.941 149.235 211.872 151.086 211.764ZM151.386 210.345C150.443 210.4 149.78 209.965 149.73 209.094C149.681 208.259 150.146 207.795 151.256 207.476L152.492 207.113C153.029 206.955 153.601 206.776 154.07 206.384L154.101 206.929C154.206 208.743 153.292 210.235 151.386 210.345ZM162.836 201.598C161.148 201.696 160.226 202.75 159.76 204.125L159.633 201.929L157.836 202.033L158.362 211.106L160.177 211.001L159.976 207.535C159.833 205.067 160.325 203.509 162.757 203.368L163.21 203.342L163.108 201.582L162.836 201.598ZM170.412 210.407L170.328 208.956L167.606 209.114L167.245 202.89L170.148 202.721L170.067 201.324L167.164 201.493L167.045 199.442L166.138 199.495L165.501 201.389L163.652 202.151L163.707 203.095L165.431 202.995L165.721 208.003C165.826 209.818 166.42 210.639 168.616 210.512L170.412 210.407ZM176.935 200.635C175.193 200.736 174.252 201.774 173.785 203.148L173.667 201.116L171.853 201.221L172.379 210.293L174.193 210.188L173.971 206.36C173.804 203.474 174.718 202.274 176.496 202.171C177.639 202.105 178.536 202.508 178.647 204.414L178.965 209.912L180.78 209.806L180.452 204.145C180.314 201.768 179.348 200.495 176.935 200.635ZM187.071 208.386C185.51 208.476 184.309 207.854 184.031 205.576L191.181 205.162C191.203 204.924 191.191 204.706 191.177 204.47C191.027 201.875 189.42 199.911 186.535 200.078C183.432 200.258 182.069 202.504 182.223 205.153C182.378 207.838 183.864 209.919 187.094 209.732C190.288 209.546 191.183 207.71 191.273 206.449L189.604 206.546C189.405 207.504 188.722 208.29 187.071 208.386ZM186.631 201.42C188.246 201.326 189.201 202.108 189.398 203.936L183.973 204.25C184.074 202.224 185.07 201.51 186.631 201.42ZM197.744 199.574C196.057 199.672 195.135 200.727 194.668 202.101L194.541 199.905L192.745 200.01L193.271 209.082L195.085 208.977L194.884 205.511C194.741 203.044 195.234 201.486 197.665 201.345L198.119 201.318L198.017 199.558L197.744 199.574ZM199.087 205.705C199.194 207.555 200.495 208.955 203.489 208.781C206.12 208.629 207.28 207.596 207.172 205.728C207.091 204.33 206.414 203.332 204.144 203.117L202.167 202.941C201.179 202.852 200.881 202.415 200.849 201.87C200.807 201.144 201.337 200.549 202.734 200.468C204.131 200.387 204.844 201.056 204.983 201.885L206.797 201.78C206.571 200.082 205.051 198.987 202.711 199.122C200.334 199.26 198.997 200.394 199.098 202.136C199.178 203.515 200.082 204.336 201.674 204.48L203.944 204.695C204.914 204.784 205.356 205.177 205.399 205.921C205.447 206.756 205.081 207.342 203.466 207.435C201.705 207.537 200.911 206.709 200.774 205.607L199.087 205.705ZM213.828 198.496C212.086 198.597 211.145 199.635 210.678 201.009L210.35 195.348L208.536 195.453L209.272 208.155L211.086 208.049L210.864 204.221C210.697 201.336 211.611 200.136 213.389 200.033C214.532 199.966 215.429 200.37 215.54 202.275L215.859 207.773L217.673 207.668L217.345 202.006C217.207 199.629 216.241 198.356 213.828 198.496ZM221.456 196.98L221.361 195.347L219.075 195.479L219.169 197.112L221.456 196.98ZM221.825 207.427L221.299 198.354L219.484 198.459L220.01 207.532L221.825 207.427ZM228.962 197.619C227.329 197.713 226.261 198.449 225.712 199.664L225.622 198.104L223.807 198.209L224.543 210.911L226.358 210.805L226.057 205.616C226.742 206.76 227.888 207.367 229.521 207.272C232.443 207.103 233.624 204.868 233.469 202.2C233.315 199.533 231.883 197.449 228.962 197.619ZM229.056 205.843C227.151 205.953 226.019 204.963 225.885 202.64C225.75 200.317 226.76 199.203 228.665 199.092C230.679 198.976 231.506 200.057 231.637 202.307C231.767 204.557 231.07 205.726 229.056 205.843ZM235.005 203.622C235.113 205.473 236.414 206.872 239.408 206.699C242.039 206.546 243.199 205.514 243.09 203.645C243.009 202.248 242.332 201.25 240.062 201.035L238.086 200.859C237.098 200.77 236.799 200.332 236.768 199.788C236.725 199.062 237.255 198.467 238.653 198.386C240.05 198.305 240.762 198.974 240.901 199.803L242.716 199.698C242.49 198 240.97 196.904 238.629 197.04C236.252 197.178 234.916 198.311 235.017 200.053C235.097 201.432 236 202.254 237.592 202.398L239.862 202.613C240.833 202.702 241.274 203.095 241.317 203.839C241.366 204.674 240.999 205.259 239.384 205.353C237.624 205.455 236.83 204.627 236.693 203.525L235.005 203.622Z" fill="#FAFAFA"/>
<rect x="186.595" y="241.57" width="111.03" height="41.8797" rx="15.5831" transform="rotate(-3.31781 186.595 241.57)" fill="#673AB7"/>
<path d="M218.725 266.451C222.717 266.219 224.292 264.18 224.314 261.102L222.391 261.213C222.352 263.382 221.212 264.759 218.599 264.91C215.733 265.077 214.402 263.479 214.22 260.34C214.038 257.201 215.229 255.456 218.096 255.29C220.6 255.145 221.831 256.275 222.187 258.33L224.092 258.22C223.647 255.242 221.89 253.523 218.043 253.746C213.779 253.993 212.055 256.915 212.26 260.453C212.468 264.046 214.461 266.698 218.725 266.451ZM232.77 260.065C232.927 262.769 231.969 264.154 230.354 264.247C229.139 264.318 228.205 263.917 228.095 262.011L227.776 256.513L225.961 256.619L226.29 262.28C226.427 264.657 227.466 265.926 229.879 265.786C231.585 265.687 232.51 264.687 232.959 263.332L233.074 265.309L234.889 265.204L234.363 256.132L232.548 256.237L232.77 260.065ZM239.239 264.952L238.503 252.25L236.689 252.355L237.425 265.057L239.239 264.952ZM247.047 264.499L246.963 263.048L244.241 263.205L243.88 256.982L246.784 256.813L246.703 255.416L243.799 255.584L243.68 253.534L242.773 253.587L242.136 255.481L240.287 256.243L240.342 257.187L242.066 257.087L242.356 262.095C242.461 263.909 243.055 264.731 245.251 264.603L247.047 264.499ZM255.115 258.77C255.272 261.474 254.314 262.858 252.699 262.952C251.484 263.022 250.55 262.621 250.44 260.716L250.121 255.218L248.306 255.323L248.635 260.985C248.772 263.362 249.811 264.63 252.224 264.491C253.93 264.392 254.855 263.391 255.304 262.036L255.419 264.014L257.234 263.909L256.708 254.836L254.893 254.941L255.115 258.77ZM264.066 254.264C262.379 254.362 261.457 255.417 260.99 256.791L260.863 254.595L259.067 254.699L259.593 263.772L261.407 263.667L261.206 260.201C261.063 257.733 261.556 256.175 263.987 256.035L264.441 256.008L264.339 254.248L264.066 254.264ZM270.333 262.093C268.773 262.184 267.571 261.562 267.294 259.284L274.443 258.869C274.466 258.631 274.453 258.414 274.439 258.178C274.289 255.583 272.682 253.619 269.797 253.786C266.694 253.966 265.331 256.211 265.485 258.861C265.641 261.546 267.127 263.627 270.357 263.439C273.55 263.254 274.445 261.418 274.536 260.157L272.866 260.253C272.667 261.212 271.984 261.998 270.333 262.093ZM269.893 255.128C271.508 255.034 272.464 255.816 272.661 257.644L267.235 257.958C267.336 255.931 268.333 255.218 269.893 255.128Z" fill="#FAFAFA"/>
<rect x="220.668" y="122.525" width="98.3686" height="41.8797" rx="15.5831" transform="rotate(-3.31781 220.668 122.525)" fill="#014D4E"/>
<path d="M259.666 134.591L256.454 134.777L253.473 145.236L249.305 135.191L246.057 135.38L246.756 147.446L248.625 147.338L248.01 136.723L252.327 147.123L254.794 146.98L257.881 136.151L258.496 146.766L260.365 146.657L259.666 134.591ZM278.536 138.831L276.449 138.952C275.705 138.995 275.093 139.431 275.118 140.486C275.141 141.195 275.068 141.818 274.918 142.373L271.831 140.003C271.775 139.97 271.735 139.917 271.679 139.884L272.81 139.309C274.348 138.51 275.17 137.606 275.085 136.155C274.988 134.467 273.509 133.46 271.314 133.588C269.045 133.719 267.623 134.93 267.738 136.926C267.8 137.997 268.396 138.855 269.207 139.645C267.569 140.596 266.735 141.609 266.834 143.315C266.967 145.601 269.039 146.482 271.398 146.345C273.339 146.233 274.649 145.593 275.462 144.526L277.614 146.167L278.5 145.114L276.137 143.303C276.436 142.485 276.578 141.494 276.588 140.401L278.62 140.283L278.536 138.831ZM271.387 134.858C272.549 134.791 273.249 135.26 273.315 136.385C273.364 137.238 272.828 137.724 271.909 138.214L270.549 138.93C269.931 138.311 269.567 137.694 269.515 136.787C269.444 135.571 270.171 134.928 271.387 134.858ZM271.41 144.979C269.631 145.082 268.677 144.318 268.605 143.085C268.546 142.068 269.188 141.212 270.318 140.6L270.852 141.006L274.299 143.628C273.673 144.448 272.698 144.905 271.41 144.979ZM296.44 144.566L291.259 132.759L288.447 132.922L284.664 145.249L286.551 145.139L287.456 142.21L293.298 141.872L294.535 144.676L296.44 144.566ZM289.921 134.166L292.649 140.398L287.931 140.672L289.921 134.166Z" fill="#FAFAFA"/>
<path d="M0.82666 177.148C100.656 166.433 -13.6282 36.3216 38.3236 30.5662C55.8546 28.624 54.3937 43.2315 71.9247 39.3347M0.82666 177.148C102.117 192.734 44.565 110.651 64.1332 93.8784C74.3596 85.1129 86.047 95.3393 103.578 93.8784M0.82666 177.148C53.9067 205.882 72.8987 175.69 72.8987 170.333C72.8987 151.198 84.586 154.75 84.586 154.75M0.82666 177.148C40.7585 234.127 65.1071 212.213 93.3516 211.239M0.82666 177.148C6.18337 282.824 118.187 272.111 168.832 267.241" stroke="#C2C2C2" stroke-width="0.973946" stroke-dasharray="1.95 1.95"/>
<path d="M536.109 125.532L321.841 21.153M536.109 125.532L353.981 76.181M536.109 125.532L334.99 137.053M536.109 125.532L276.553 197.924M536.109 125.532L310.641 252.465" stroke="#C2C2C2" stroke-width="0.973946" stroke-dasharray="1.95 1.95"/>
<rect x="248.795" y="60.1654" width="93.4988" height="41.8797" rx="15.5831" transform="rotate(-3.31781 248.795 60.1654)" fill="#C72D2D"/>
<path d="M274.718 81.0361C274.85 83.3043 276.312 85.295 280.268 85.0657C283.715 84.8658 285.087 83.4026 284.949 81.0256C284.834 79.0296 283.508 78.1415 281.385 77.9551L278.402 77.6911C277.268 77.593 276.74 76.9681 276.688 76.079C276.618 74.8633 277.421 73.961 279.381 73.8474C281.431 73.7285 282.449 74.6345 282.714 76.0756L284.529 75.9704C284.24 73.8206 282.708 72.198 279.315 72.3947C276.085 72.582 274.688 74.2287 274.804 76.2428C274.914 78.13 276.046 79.1385 278.114 79.3099L280.931 79.5471C282.304 79.6678 283.011 80.2459 283.076 81.3709C283.147 82.6048 282.615 83.4731 280.184 83.6141C277.807 83.7519 276.693 82.7604 276.533 80.9309L274.718 81.0361ZM289.872 84.4543C291.795 84.3428 292.727 83.1418 293.023 81.9776C293.065 82.7034 293.137 83.3183 293.251 84.0217L294.902 83.926C294.78 83.0774 294.731 82.5341 294.692 81.8627L294.431 77.3627C294.334 75.6933 293.034 74.6217 290.53 74.7668C287.953 74.9162 286.59 76.215 286.683 78.1395L288.498 78.0343C288.522 76.8859 289.195 76.2461 290.683 76.1598C292.244 76.0693 292.712 76.6066 292.759 77.4231C292.796 78.0582 292.413 78.3536 291.55 78.5492L289.304 79.0617C287.292 79.5243 286.621 80.51 286.705 81.9616C286.802 83.6309 288.021 84.5616 289.872 84.4543ZM290.172 83.035C289.228 83.0897 288.566 82.6548 288.515 81.7838C288.467 80.9491 288.931 80.4852 290.042 80.166L291.277 79.8031C291.814 79.6445 292.386 79.4657 292.855 79.0744L292.887 79.6187C292.992 81.4333 292.077 82.9246 290.172 83.035ZM298.891 83.6948L298.155 70.993L296.34 71.0982L297.077 83.8L298.891 83.6948ZM305.407 82.2611C303.847 82.3515 302.645 81.7293 302.368 79.4514L309.517 79.037C309.54 78.799 309.527 78.5812 309.513 78.3453C309.363 75.7506 307.756 73.7864 304.871 73.9536C301.768 74.1335 300.405 76.3791 300.559 79.0283C300.715 81.7138 302.201 83.7942 305.431 83.607C308.624 83.4218 309.519 81.5857 309.61 80.3242L307.94 80.421C307.741 81.3793 307.058 82.1653 305.407 82.2611ZM304.967 75.2953C306.582 75.2017 307.538 75.9838 307.735 77.8112L302.309 78.1258C302.41 76.099 303.407 75.3858 304.967 75.2953ZM310.991 79.9529C311.098 81.8037 312.399 83.203 315.393 83.0294C318.024 82.8769 319.184 81.8447 319.076 79.9758C318.995 78.5786 318.318 77.58 316.048 77.3657L314.071 77.189C313.083 77.1006 312.785 76.6628 312.753 76.1184C312.711 75.3926 313.241 74.7975 314.638 74.7165C316.035 74.6355 316.748 75.3043 316.887 76.1337L318.701 76.0285C318.475 74.3302 316.955 73.2349 314.615 73.3706C312.238 73.5084 310.901 74.6418 311.002 76.3838C311.082 77.7628 311.986 78.5844 313.578 78.7287L315.848 78.943C316.818 79.0325 317.26 79.4256 317.303 80.1696C317.351 81.0043 316.985 81.5899 315.37 81.6835C313.609 81.7856 312.815 80.9577 312.678 79.855L310.991 79.9529Z" fill="#FAFAFA"/>
</svg>
