<svg width="288" height="355" viewBox="0 0 288 355" fill="none" xmlns="http://www.w3.org/2000/svg">
<rect x="29.1646" y="90.7564" width="122.412" height="41.8143" rx="15.5588" fill="#007BFF"/>
<path d="M53.9897 113.084C53.9897 115.352 55.3326 117.421 59.2887 117.421C62.7367 117.421 64.1885 116.042 64.1885 113.665C64.1885 111.669 62.9182 110.707 60.8131 110.398L57.8551 109.963C56.73 109.799 56.24 109.146 56.24 108.257C56.24 107.041 57.0929 106.188 59.0528 106.188C61.1035 106.188 62.0653 107.15 62.2468 108.602H64.0615C63.8982 106.442 62.4645 104.736 59.071 104.736C55.8407 104.736 54.3526 106.297 54.3526 108.311C54.3526 110.199 55.4233 111.269 57.474 111.56L60.2687 111.959C61.6298 112.159 62.3012 112.776 62.3012 113.901C62.3012 115.135 61.7205 115.969 59.2887 115.969C56.9114 115.969 55.8589 114.917 55.8044 113.084H53.9897ZM71.5795 117.131V115.679H68.8574V109.455H71.761V108.057H68.8574V106.007H67.95L67.206 107.858L65.3186 108.511V109.455H67.0426V114.463C67.0426 116.278 67.5871 117.131 69.7829 117.131H71.5795ZM78.5552 107.912C76.8675 107.912 75.8875 108.91 75.3431 110.253V108.057H73.5465V117.131H75.3612V113.665C75.3612 111.197 75.9419 109.672 78.3737 109.672H78.8274V107.912H78.5552ZM82.9325 117.367C84.8561 117.367 85.8542 116.224 86.2172 115.08C86.2172 115.806 86.2535 116.423 86.3261 117.131H87.9775C87.9049 116.278 87.8868 115.734 87.8868 115.062V110.562C87.8868 108.892 86.6527 107.749 84.1484 107.749C81.5715 107.749 80.1378 108.965 80.1197 110.888H81.9344C82.0251 109.745 82.7329 109.146 84.221 109.146C85.7817 109.146 86.2172 109.709 86.2172 110.525C86.2172 111.16 85.8179 111.433 84.9469 111.578L82.6785 111.959C80.6459 112.304 79.92 113.247 79.92 114.699C79.92 116.369 81.0815 117.367 82.9325 117.367ZM83.3136 115.969C82.3699 115.969 81.7348 115.498 81.7348 114.627C81.7348 113.792 82.2248 113.356 83.3499 113.102L84.6021 112.812C85.1465 112.685 85.7272 112.54 86.2172 112.177V112.721C86.2172 114.536 85.2191 115.969 83.3136 115.969ZM95.3802 117.131V115.679H92.6581V109.455H95.5617V108.057H92.6581V106.007H91.7507L91.0067 107.858L89.1194 108.511V109.455H90.8434V114.463C90.8434 116.278 91.3878 117.131 93.5836 117.131H95.3802ZM101.203 116.078C99.6423 116.078 98.4809 115.389 98.3357 113.102H105.486C105.522 112.866 105.522 112.649 105.522 112.413C105.522 109.818 104.034 107.767 101.149 107.767C98.0453 107.767 96.5572 109.926 96.5572 112.576C96.5572 115.262 97.9183 117.421 101.149 117.421C104.342 117.421 105.341 115.643 105.504 114.391H103.834C103.58 115.334 102.854 116.078 101.203 116.078ZM101.167 109.11C102.782 109.11 103.689 109.945 103.78 111.777H98.3538C98.5716 109.763 99.606 109.11 101.167 109.11ZM114.651 109.509C114.052 108.438 112.981 107.821 111.384 107.821C108.462 107.821 107.101 109.69 107.101 112.358C107.101 115.026 108.462 116.895 111.384 116.895C112.981 116.895 114.052 116.369 114.651 115.298V117.04C114.651 118.909 113.798 119.563 111.82 119.563C110.005 119.563 109.207 118.837 109.098 117.621H107.283C107.446 119.799 109.043 120.96 111.802 120.96C115.195 120.96 116.465 119.563 116.465 117.095V108.057H114.651V109.509ZM111.82 115.498C109.805 115.498 108.934 114.663 108.934 112.358C108.934 110.053 109.805 109.219 111.82 109.219C113.725 109.219 114.651 110.126 114.651 112.358C114.651 114.59 113.725 115.498 111.82 115.498ZM122.967 114.536L122.622 115.625L122.241 114.536L119.791 108.057H117.922L121.351 117.131H122.005L121.152 119.309H118.466V120.76H120.027C122.222 120.76 122.676 119.853 123.42 117.929L127.213 108.057H125.453L122.967 114.536Z" fill="#FAFAFA"/>
<rect x="28.2681" y="35.6006" width="113.598" height="41.8142" rx="15.5588" fill="#119611"/>
<path d="M59.1765 62.2836C61.5175 62.2836 63.0782 61.1585 63.6407 59.4163V61.9751H65.3284V55.932H58.4143V57.3112H63.5137C63.2778 59.1441 62.2797 60.7411 59.4487 60.7411C56.4362 60.7411 55.2748 59.0352 55.2748 55.932C55.2748 52.7925 56.5088 51.123 59.4305 51.123C61.9893 51.123 63.1507 52.1392 63.4048 54.1536H65.3466C65.0199 51.2137 63.2233 49.5804 59.5031 49.5804C55.2203 49.5804 53.3149 52.357 53.3149 55.932C53.3149 59.5252 55.1115 62.2836 59.1765 62.2836ZM72.8266 52.7562C71.1389 52.7562 70.1589 53.7543 69.6145 55.0972V52.9014H67.8179V61.9751H69.6326V58.5089C69.6326 56.0409 70.2133 54.5165 72.6451 54.5165H73.0988V52.7562H72.8266ZM78.657 62.2655C81.8146 62.2655 83.339 60.0878 83.339 57.4201C83.339 54.7887 81.8146 52.611 78.657 52.611C75.4993 52.611 73.975 54.7706 73.975 57.4201C73.975 60.1059 75.4993 62.2655 78.657 62.2655ZM75.8078 57.4383C75.8078 55.0246 76.6971 54.0628 78.657 54.0628C80.6169 54.0628 81.5061 55.0246 81.5061 57.4383C81.5061 59.8519 80.6169 60.8137 78.657 60.8137C76.6971 60.8137 75.8078 59.8519 75.8078 57.4383ZM95.3519 60.614L92.7386 52.9014H90.9239L88.3107 60.614L86.0786 52.9014H84.2094L86.9315 61.9751H89.5084L91.7768 55.0791L94.0453 61.9751H96.6222L99.3443 52.9014H97.584L95.3519 60.614ZM106.363 61.9751V60.5233H103.641V54.2988H106.545V52.9014H103.641V50.8507H102.734L101.99 52.7018L100.103 53.3551V54.2988H101.827V59.3074C101.827 61.1222 102.371 61.9751 104.567 61.9751H106.363ZM113.43 52.611C111.688 52.611 110.69 53.591 110.145 54.9339V49.2719H108.331V61.9751H110.145V58.146C110.145 55.2606 111.125 54.1173 112.904 54.1173C114.047 54.1173 114.918 54.571 114.918 56.4764V61.9751H116.733V56.3131C116.733 53.9358 115.844 52.611 113.43 52.611Z" fill="#FAFAFA"/>
<rect x="161.464" y="35.6006" width="99.8883" height="41.8143" rx="15.5588" fill="#E19B23"/>
<path d="M186.258 49.9071V51.4133H190.45V61.9751H192.319V51.4133H196.493V49.9071H186.258ZM198.778 62.211C200.701 62.211 201.699 61.0677 202.062 59.9244C202.062 60.6503 202.099 61.2673 202.171 61.9751H203.823C203.75 61.1222 203.732 60.5777 203.732 59.9063V55.4057C203.732 53.7362 202.498 52.5929 199.994 52.5929C197.417 52.5929 195.983 53.8088 195.965 55.7324H197.78C197.87 54.5891 198.578 53.9902 200.066 53.9902C201.627 53.9902 202.062 54.5528 202.062 55.3694C202.062 56.0046 201.663 56.2768 200.792 56.422L198.524 56.8031C196.491 57.1479 195.765 58.0916 195.765 59.5433C195.765 61.2129 196.927 62.211 198.778 62.211ZM199.159 60.8137C198.215 60.8137 197.58 60.3418 197.58 59.4708C197.58 58.636 198.07 58.2004 199.195 57.9464L200.447 57.656C200.992 57.529 201.572 57.3838 202.062 57.0209V57.5653C202.062 59.38 201.064 60.8137 199.159 60.8137ZM207.812 61.9751V49.2719H205.997V61.9751H207.812ZM214.39 60.9225C212.829 60.9225 211.668 60.2329 211.523 57.9464H218.673C218.709 57.7105 218.709 57.4927 218.709 57.2568C218.709 54.6617 217.221 52.611 214.335 52.611C211.232 52.611 209.744 54.7706 209.744 57.4201C209.744 60.1059 211.105 62.2655 214.335 62.2655C217.529 62.2655 218.527 60.487 218.691 59.2348H217.021C216.767 60.1785 216.041 60.9225 214.39 60.9225ZM214.354 53.954C215.969 53.954 216.876 54.7887 216.967 56.6216H211.541C211.758 54.6073 212.793 53.954 214.354 53.954ZM225.629 52.611C223.887 52.611 222.888 53.591 222.344 54.9339V52.9014H220.529V61.9751H222.344V58.146C222.344 55.2606 223.324 54.1173 225.102 54.1173C226.246 54.1173 227.117 54.571 227.117 56.4764V61.9751H228.932V56.3131C228.932 53.9358 228.042 52.611 225.629 52.611ZM236.497 61.9751V60.5233H233.775V54.2988H236.679V52.9014H233.775V50.8507H232.868L232.124 52.7018L230.236 53.3551V54.2988H231.96V59.3074C231.96 61.1222 232.505 61.9751 234.7 61.9751H236.497Z" fill="#FAFAFA"/>
<rect x="29.1646" y="145.912" width="118.495" height="41.8143" rx="15.5588" fill="#7B9A6D"/>
<path d="M63.6918 160.219H54.5818V172.287H56.451V166.97H63.1474V165.5H56.451V161.725H63.6918V160.219ZM71.9599 167.042C71.9599 169.746 70.9255 171.071 69.3104 171.071C68.0945 171.071 67.1871 170.617 67.1871 168.712V163.213H65.3724V168.875C65.3724 171.252 66.3342 172.577 68.7478 172.577C70.4537 172.577 71.4336 171.633 71.9599 170.309V172.287H73.7746V163.213H71.9599V167.042ZM81.2334 162.923C79.4912 162.923 78.4931 163.903 77.9487 165.246V163.213H76.1339V172.287H77.9487V168.458C77.9487 165.572 78.9286 164.429 80.7071 164.429C81.8504 164.429 82.7214 164.883 82.7214 166.788V172.287H84.5362V166.625C84.5362 164.247 83.647 162.923 81.2334 162.923ZM94.0236 164.774C93.4066 163.594 92.2996 162.923 90.6663 162.923C87.7446 162.923 86.438 165.082 86.438 167.75C86.438 170.418 87.7446 172.577 90.6663 172.577C92.2996 172.577 93.4066 171.906 94.0236 170.726V172.287H95.8383V159.584H94.0236V164.774ZM91.0474 171.125C89.0331 171.125 88.2709 170 88.2709 167.75C88.2709 165.5 89.0331 164.374 91.0474 164.374C92.9529 164.374 94.0236 165.427 94.0236 167.75C94.0236 170.073 92.9529 171.125 91.0474 171.125ZM100.39 161.852V160.219H98.1038V161.852H100.39ZM100.154 172.287V163.213H98.3397V172.287H100.154ZM107.622 162.923C105.879 162.923 104.881 163.903 104.337 165.246V163.213H102.522V172.287H104.337V168.458C104.337 165.572 105.317 164.429 107.095 164.429C108.239 164.429 109.11 164.883 109.11 166.788V172.287H110.924V166.625C110.924 164.247 110.035 162.923 107.622 162.923ZM120.375 164.665C119.776 163.594 118.705 162.977 117.108 162.977C114.187 162.977 112.826 164.846 112.826 167.514C112.826 170.182 114.187 172.051 117.108 172.051C118.705 172.051 119.776 171.525 120.375 170.454V172.196C120.375 174.065 119.522 174.718 117.544 174.718C115.729 174.718 114.931 173.993 114.822 172.777H113.007C113.17 174.954 114.767 176.116 117.526 176.116C120.919 176.116 122.19 174.718 122.19 172.25V163.213H120.375V164.665ZM117.544 170.653C115.53 170.653 114.659 169.819 114.659 167.514C114.659 165.209 115.53 164.374 117.544 164.374C119.449 164.374 120.375 165.282 120.375 167.514C120.375 169.746 119.449 170.653 117.544 170.653Z" fill="#FAFAFA"/>
<rect x="29.1646" y="201.068" width="155.708" height="41.8143" rx="15.5588" fill="#DE7015"/>
<path d="M60.0569 215.375H54.3587V227.443H56.246V222.688H60.0569C62.7428 222.688 63.8135 220.982 63.8135 219.022C63.8135 217.099 62.7428 215.375 60.0569 215.375ZM56.246 221.182V216.881H59.6033C61.3091 216.881 61.8535 217.788 61.8535 219.022C61.8535 220.256 61.3091 221.182 59.6033 221.182H56.246ZM68.0001 227.678C69.9237 227.678 70.9218 226.535 71.2848 225.392C71.2848 226.118 71.3211 226.735 71.3937 227.443H73.0451C72.9725 226.59 72.9544 226.045 72.9544 225.374V220.873C72.9544 219.204 71.7203 218.06 69.216 218.06C66.6391 218.06 65.2054 219.276 65.1873 221.2H67.002C67.0927 220.057 67.8005 219.458 69.2886 219.458C70.8493 219.458 71.2848 220.02 71.2848 220.837C71.2848 221.472 70.8856 221.744 70.0145 221.889L67.7461 222.271C65.7135 222.615 64.9877 223.559 64.9877 225.011C64.9877 226.68 66.1491 227.678 68.0001 227.678ZM68.3812 226.281C67.4375 226.281 66.8024 225.809 66.8024 224.938C66.8024 224.103 67.2924 223.668 68.4175 223.414L69.6697 223.123C70.2141 222.996 70.7948 222.851 71.2848 222.488V223.033C71.2848 224.847 70.2867 226.281 68.3812 226.281ZM80.2992 218.224C78.6115 218.224 77.6316 219.222 77.0871 220.565V218.369H75.2905V227.443H77.1053V223.976C77.1053 221.508 77.686 219.984 80.1177 219.984H80.5714V218.224H80.2992ZM87.3417 227.443V225.991H84.6196V219.766H87.5232V218.369H84.6196V216.318H83.7122L82.9682 218.169L81.0808 218.823V219.766H82.8048V224.775C82.8048 226.59 83.3493 227.443 85.5451 227.443H87.3417ZM94.4081 218.078C92.666 218.078 91.6679 219.058 91.1234 220.401V218.369H89.3087V227.443H91.1234V223.613C91.1234 220.728 92.1034 219.585 93.8818 219.585C95.0251 219.585 95.8962 220.038 95.8962 221.944V227.443H97.7109V221.781C97.7109 219.403 96.8217 218.078 94.4081 218.078ZM104.064 226.39C102.503 226.39 101.341 225.7 101.196 223.414H108.346C108.383 223.178 108.383 222.96 108.383 222.724C108.383 220.129 106.895 218.078 104.009 218.078C100.906 218.078 99.4178 220.238 99.4178 222.888C99.4178 225.573 100.779 227.733 104.009 227.733C107.203 227.733 108.201 225.954 108.364 224.702H106.695C106.441 225.646 105.715 226.39 104.064 226.39ZM104.027 219.421C105.642 219.421 106.55 220.256 106.64 222.089H101.214C101.432 220.075 102.467 219.421 104.027 219.421ZM115.212 218.224C113.524 218.224 112.544 219.222 112 220.565V218.369H110.203V227.443H112.018V223.976C112.018 221.508 112.598 219.984 115.03 219.984H115.484V218.224H115.212ZM116.195 224.412C116.195 226.263 117.411 227.733 120.406 227.733C123.037 227.733 124.253 226.771 124.253 224.902C124.253 223.505 123.636 222.47 121.386 222.125L119.426 221.835C118.446 221.69 118.174 221.236 118.174 220.692C118.174 219.966 118.736 219.403 120.133 219.403C121.531 219.403 122.202 220.111 122.293 220.946H124.108C123.981 219.24 122.529 218.06 120.188 218.06C117.811 218.06 116.413 219.113 116.413 220.855C116.413 222.234 117.266 223.105 118.845 223.341L121.095 223.686C122.057 223.831 122.474 224.249 122.474 224.993C122.474 225.827 122.075 226.39 120.46 226.39C118.7 226.39 117.956 225.519 117.883 224.412H116.195ZM131.305 218.078C129.563 218.078 128.565 219.058 128.021 220.401V214.739H126.206V227.443H128.021V223.613C128.021 220.728 129.001 219.585 130.779 219.585C131.922 219.585 132.794 220.038 132.794 221.944V227.443H134.608V221.781C134.608 219.403 133.719 218.078 131.305 218.078ZM138.996 217.008V215.375H136.71V217.008H138.996ZM138.76 227.443V218.369H136.946V227.443H138.76ZM146.441 218.078C144.808 218.078 143.701 218.75 143.084 219.93V218.369H141.269V231.072H143.084V225.882C143.701 227.061 144.808 227.733 146.441 227.733C149.363 227.733 150.669 225.573 150.669 222.906C150.669 220.238 149.363 218.078 146.441 218.078ZM146.06 226.281C144.154 226.281 143.084 225.229 143.084 222.906C143.084 220.583 144.154 219.53 146.06 219.53C148.074 219.53 148.836 220.655 148.836 222.906C148.836 225.156 148.074 226.281 146.06 226.281ZM152.118 224.412C152.118 226.263 153.334 227.733 156.328 227.733C158.96 227.733 160.176 226.771 160.176 224.902C160.176 223.505 159.559 222.47 157.308 222.125L155.348 221.835C154.368 221.69 154.096 221.236 154.096 220.692C154.096 219.966 154.659 219.403 156.056 219.403C157.453 219.403 158.125 220.111 158.216 220.946H160.03C159.903 219.24 158.452 218.06 156.11 218.06C153.733 218.06 152.336 219.113 152.336 220.855C152.336 222.234 153.189 223.105 154.768 223.341L157.018 223.686C157.98 223.831 158.397 224.249 158.397 224.993C158.397 225.827 157.998 226.39 156.383 226.39C154.622 226.39 153.878 225.519 153.806 224.412H152.118Z" fill="#FAFAFA"/>
<rect x="29.1646" y="255.221" width="111.64" height="41.8142" rx="15.5588" fill="#673AB7"/>
<path d="M60.1452 281.904C64.1376 281.904 65.8253 279.962 66.0249 276.895H64.1013C63.938 279.055 62.7221 280.361 60.1089 280.361C57.2416 280.361 56.0076 278.692 56.0076 275.552C56.0076 272.413 57.296 270.743 60.1633 270.743C62.6677 270.743 63.8291 271.941 64.065 274.01H65.9705C65.6983 271.016 64.0469 269.201 60.1996 269.201C55.935 269.201 54.0477 272.014 54.0477 275.552C54.0477 279.146 55.8805 281.904 60.1452 281.904ZM74.5137 276.351C74.5137 279.055 73.4793 280.38 71.8641 280.38C70.6483 280.38 69.7409 279.926 69.7409 278.02V272.522H67.9262V278.184C67.9262 280.561 68.888 281.886 71.3016 281.886C73.0074 281.886 73.9874 280.942 74.5137 279.617V281.596H76.3284V272.522H74.5137V276.351ZM80.6797 281.596V268.892H78.8649V281.596H80.6797ZM88.4881 281.596V280.144H85.766V273.919H88.6696V272.522H85.766V270.471H84.8587L84.1146 272.322L82.2273 272.976V273.919H83.9513V278.928C83.9513 280.743 84.4957 281.596 86.6915 281.596H88.4881ZM96.8612 276.351C96.8612 279.055 95.8268 280.38 94.2116 280.38C92.9958 280.38 92.0884 279.926 92.0884 278.02V272.522H90.2737V278.184C90.2737 280.561 91.2355 281.886 93.6491 281.886C95.3549 281.886 96.3349 280.942 96.8612 279.617V281.596H98.6759V272.522H96.8612V276.351ZM106.044 272.377C104.356 272.377 103.376 273.375 102.832 274.718V272.522H101.035V281.596H102.85V278.129C102.85 275.661 103.431 274.137 105.862 274.137H106.316V272.377H106.044ZM111.838 280.543C110.277 280.543 109.116 279.853 108.971 277.567H116.121C116.157 277.331 116.157 277.113 116.157 276.877C116.157 274.282 114.669 272.231 111.784 272.231C108.68 272.231 107.192 274.391 107.192 277.041C107.192 279.726 108.553 281.886 111.784 281.886C114.977 281.886 115.976 280.107 116.139 278.855H114.469C114.215 279.799 113.489 280.543 111.838 280.543ZM111.802 273.574C113.417 273.574 114.324 274.409 114.415 276.242H108.989C109.207 274.228 110.241 273.574 111.802 273.574Z" fill="#FAFAFA"/>
<rect x="166.514" y="145.912" width="98.909" height="41.8142" rx="15.5588" fill="#014D4E"/>
<path d="M205.035 160.219H201.823L198.248 170.472L194.673 160.219H191.424V172.287H193.293V161.67L196.995 172.287H199.463L203.166 161.67V172.287H205.035V160.219ZM223.599 165.536H221.512C220.768 165.536 220.133 165.935 220.097 166.988C220.078 167.695 219.97 168.312 219.788 168.857L216.848 166.316C216.794 166.28 216.758 166.225 216.703 166.189L217.865 165.681C219.443 164.973 220.314 164.12 220.314 162.669C220.314 160.981 218.899 159.892 216.703 159.892C214.435 159.892 212.947 161.017 212.947 163.013C212.947 164.084 213.491 164.973 214.253 165.808C212.565 166.661 211.676 167.623 211.676 169.329C211.676 171.615 213.691 172.613 216.05 172.613C217.992 172.613 219.334 172.051 220.206 171.035L222.256 172.795L223.2 171.797L220.95 169.855C221.294 169.056 221.494 168.077 221.567 166.988H223.599V165.536ZM216.703 161.162C217.865 161.162 218.536 161.67 218.536 162.796C218.536 163.649 217.973 164.102 217.03 164.538L215.632 165.173C215.052 164.52 214.725 163.884 214.725 162.977C214.725 161.761 215.487 161.162 216.703 161.162ZM216.141 171.252C214.362 171.252 213.455 170.436 213.455 169.202C213.455 168.185 214.144 167.369 215.306 166.824L215.814 167.26L219.099 170.073C218.427 170.853 217.429 171.252 216.141 171.252ZM241.114 172.287L236.632 160.219H233.819L229.337 172.287H231.224L232.295 169.419H238.138L239.209 172.287H241.114ZM235.216 161.543L237.576 167.913H232.857L235.216 161.543Z" fill="#FAFAFA"/>
<rect x="170.553" y="90.7564" width="94.0125" height="41.8143" rx="15.5588" fill="#C72D2D"/>
<path d="M195.516 113.084C195.516 115.352 196.859 117.421 200.815 117.421C204.263 117.421 205.715 116.042 205.715 113.665C205.715 111.669 204.444 110.707 202.339 110.398L199.381 109.963C198.256 109.799 197.766 109.146 197.766 108.257C197.766 107.041 198.619 106.188 200.579 106.188C202.63 106.188 203.591 107.15 203.773 108.602H205.588C205.424 106.442 203.991 104.736 200.597 104.736C197.367 104.736 195.879 106.297 195.879 108.311C195.879 110.199 196.949 111.269 199 111.56L201.795 111.959C203.156 112.159 203.827 112.776 203.827 113.901C203.827 115.135 203.247 115.969 200.815 115.969C198.437 115.969 197.385 114.917 197.33 113.084H195.516ZM210.423 117.367C212.346 117.367 213.344 116.224 213.707 115.08C213.707 115.806 213.744 116.423 213.816 117.131H215.468C215.395 116.278 215.377 115.734 215.377 115.062V110.562C215.377 108.892 214.143 107.749 211.639 107.749C209.062 107.749 207.628 108.965 207.61 110.888H209.425C209.515 109.745 210.223 109.146 211.711 109.146C213.272 109.146 213.707 109.709 213.707 110.525C213.707 111.16 213.308 111.433 212.437 111.578L210.169 111.959C208.136 112.304 207.41 113.247 207.41 114.699C207.41 116.369 208.572 117.367 210.423 117.367ZM210.804 115.969C209.86 115.969 209.225 115.498 209.225 114.627C209.225 113.792 209.715 113.356 210.84 113.102L212.092 112.812C212.637 112.685 213.217 112.54 213.707 112.177V112.721C213.707 114.536 212.709 115.969 210.804 115.969ZM219.457 117.131V104.428H217.642V117.131H219.457ZM226.035 116.078C224.474 116.078 223.313 115.389 223.168 113.102H230.318C230.354 112.866 230.354 112.649 230.354 112.413C230.354 109.818 228.866 107.767 225.98 107.767C222.877 107.767 221.389 109.926 221.389 112.576C221.389 115.262 222.75 117.421 225.98 117.421C229.174 117.421 230.172 115.643 230.336 114.391H228.666C228.412 115.334 227.686 116.078 226.035 116.078ZM225.999 109.11C227.614 109.11 228.521 109.945 228.612 111.777H223.186C223.403 109.763 224.438 109.11 225.999 109.11ZM231.734 114.1C231.734 115.951 232.95 117.421 235.944 117.421C238.575 117.421 239.791 116.459 239.791 114.59C239.791 113.193 239.174 112.159 236.924 111.814L234.964 111.523C233.984 111.378 233.712 110.925 233.712 110.38C233.712 109.654 234.274 109.092 235.672 109.092C237.069 109.092 237.74 109.799 237.831 110.634H239.646C239.519 108.928 238.067 107.749 235.726 107.749C233.349 107.749 231.951 108.801 231.951 110.543C231.951 111.923 232.804 112.794 234.383 113.03L236.633 113.374C237.595 113.52 238.013 113.937 238.013 114.681C238.013 115.516 237.613 116.078 235.998 116.078C234.238 116.078 233.494 115.207 233.421 114.1H231.734Z" fill="#FAFAFA"/>
<path d="M147.438 0C147.438 32.5921 101.487 19.5552 78.2589 18.051C55.0307 16.5467 20.7161 7.95073 6.55461 24.5694C0.99999 31.0878 1 41.1161 1 41.1161V57.6629M22.2084 275.278H1V221.626M1 221.626H22.2084M1 221.626V166.47M1 166.47H22.2084M1 166.47V110.312M1 110.312H22.2084M1 110.312V57.6629M1 57.6629H22.2084" stroke="#C2C2C2" stroke-width="1.53433" stroke-dasharray="1.53 1.53"/>
<path d="M144.914 57.1615H158.547" stroke="white" stroke-width="1.53433" stroke-dasharray="1.53 1.53"/>
<path d="M154.508 110.813H168.142" stroke="white" stroke-width="1.53433" stroke-dasharray="1.53 1.53"/>
<path d="M150.468 165.969H164.102" stroke="white" stroke-width="1.53433" stroke-dasharray="1.53 1.53"/>
<path d="M266.104 57.1615H286.807V110.813M286.807 110.813H269.134M286.807 110.813V165.969M286.807 165.969H270.649M286.807 165.969L260.045 221.626M260.045 221.626H191.37M260.045 221.626L233.282 275.779H147.438" stroke="white" stroke-width="1.53433" stroke-dasharray="1.53 1.53"/>
<path d="M87.3482 302.856C78.7639 345.977 125.725 337.955 145.924 335.949C166.122 333.943 176.726 345.476 171.171 354" stroke="white" stroke-width="1.53433" stroke-dasharray="1.53 1.53"/>
</svg>
