<svg width="285" height="354" viewBox="0 0 285 354" fill="none" xmlns="http://www.w3.org/2000/svg">
<rect x="28.8877" y="91" width="121.21" height="41.6961" rx="15.5148" fill="#212121"/>
<path d="M53.2146 113.313C53.2146 115.575 54.5537 117.638 58.4987 117.638C61.937 117.638 63.3847 116.262 63.3847 113.892C63.3847 111.901 62.1179 110.942 60.0188 110.634L57.0691 110.2C55.9471 110.037 55.4586 109.386 55.4586 108.499C55.4586 107.287 56.3091 106.436 58.2635 106.436C60.3083 106.436 61.2674 107.395 61.4484 108.843H63.258C63.0951 106.69 61.6655 104.988 58.2815 104.988C55.0604 104.988 53.5766 106.545 53.5766 108.553C53.5766 110.435 54.6442 111.503 56.6891 111.793L59.4759 112.191C60.8331 112.39 61.5027 113.005 61.5027 114.127C61.5027 115.358 60.9236 116.19 58.4987 116.19C56.1281 116.19 55.0785 115.14 55.0242 113.313H53.2146ZM70.7547 117.348V115.9H68.0403V109.693H70.9357V108.3H68.0403V106.255H67.1355L66.3936 108.101L64.5116 108.752V109.693H66.2307V114.688C66.2307 116.498 66.7736 117.348 68.9632 117.348H70.7547ZM77.7107 108.155C76.0278 108.155 75.0506 109.151 74.5077 110.49V108.3H72.7162V117.348H74.5258V113.892C74.5258 111.431 75.1049 109.911 77.5297 109.911H77.9821V108.155H77.7107ZM82.0757 117.583C83.9939 117.583 84.9892 116.443 85.3511 115.303C85.3511 116.027 85.3873 116.642 85.4597 117.348H87.1064C87.034 116.498 87.0159 115.955 87.0159 115.285V110.797C87.0159 109.133 85.7854 107.992 83.2881 107.992C80.7185 107.992 79.2889 109.205 79.2708 111.123H81.0804C81.1709 109.983 81.8766 109.386 83.3605 109.386C84.9168 109.386 85.3511 109.947 85.3511 110.761C85.3511 111.395 84.953 111.666 84.0844 111.811L81.8223 112.191C79.7956 112.535 79.0717 113.476 79.0717 114.923C79.0717 116.588 80.2299 117.583 82.0757 117.583ZM82.4557 116.19C81.5147 116.19 80.8813 115.719 80.8813 114.851C80.8813 114.018 81.3699 113.584 82.4919 113.331L83.7405 113.041C84.2834 112.915 84.8625 112.77 85.3511 112.408V112.951C85.3511 114.76 84.3558 116.19 82.4557 116.19ZM94.4882 117.348V115.9H91.7738V109.693H94.6692V108.3H91.7738V106.255H90.869L90.127 108.101L88.2451 108.752V109.693H89.9642V114.688C89.9642 116.498 90.5071 117.348 92.6967 117.348H94.4882ZM100.295 116.299C98.7383 116.299 97.5801 115.611 97.4353 113.331H104.565C104.601 113.096 104.601 112.878 104.601 112.643C104.601 110.055 103.118 108.011 100.24 108.011C97.1458 108.011 95.6619 110.164 95.6619 112.806C95.6619 115.484 97.0191 117.638 100.24 117.638C103.425 117.638 104.42 115.864 104.583 114.616H102.918C102.665 115.557 101.941 116.299 100.295 116.299ZM100.258 109.35C101.869 109.35 102.774 110.182 102.864 112.01H97.4534C97.6706 110.001 98.7021 109.35 100.258 109.35ZM113.704 109.748C113.107 108.68 112.039 108.065 110.447 108.065C107.534 108.065 106.176 109.929 106.176 112.589C106.176 115.249 107.534 117.113 110.447 117.113C112.039 117.113 113.107 116.588 113.704 115.52V117.258C113.704 119.122 112.854 119.773 110.881 119.773C109.072 119.773 108.275 119.049 108.167 117.837H106.357C106.52 120.008 108.113 121.166 110.863 121.166C114.247 121.166 115.514 119.773 115.514 117.312V108.3H113.704V109.748ZM110.881 115.719C108.873 115.719 108.004 114.887 108.004 112.589C108.004 110.291 108.873 109.458 110.881 109.458C112.781 109.458 113.704 110.363 113.704 112.589C113.704 114.815 112.781 115.719 110.881 115.719ZM121.997 114.76L121.653 115.846L121.273 114.76L118.83 108.3H116.966L120.386 117.348H121.037L120.187 119.52H117.509V120.967H119.065C121.255 120.967 121.707 120.063 122.449 118.144L126.231 108.3H124.476L121.997 114.76Z" fill="#FAFAFA"/>
<rect x="28" y="36" width="112.483" height="41.6961" rx="15.5148" fill="#212121"/>
<path d="M58.4238 62.6558C60.7582 62.6558 62.3145 61.5338 62.8754 59.7966V62.3481H64.5584V56.3221H57.6638V57.6974H62.7488C62.5135 59.5251 61.5182 61.1176 58.6952 61.1176C55.6913 61.1176 54.5331 59.4166 54.5331 56.3221C54.5331 53.1915 55.7637 51.5267 58.6771 51.5267C61.2287 51.5267 62.3868 52.54 62.6402 54.5487H64.5765C64.2507 51.6171 62.4592 49.9885 58.7495 49.9885C54.4788 49.9885 52.5787 52.7572 52.5787 56.3221C52.5787 59.9052 54.3703 62.6558 58.4238 62.6558ZM72.0353 53.1553C70.3524 53.1553 69.3752 54.1506 68.8323 55.4897V53.3001H67.0408V62.3481H68.8504V58.8918C68.8504 56.4307 69.4295 54.9106 71.8544 54.9106H72.3068V53.1553H72.0353ZM77.8493 62.6377C80.998 62.6377 82.5181 60.4661 82.5181 57.806C82.5181 55.1821 80.998 53.0105 77.8493 53.0105C74.7005 53.0105 73.1805 55.164 73.1805 57.806C73.1805 60.4842 74.7005 62.6377 77.8493 62.6377ZM75.0082 57.8241C75.0082 55.4173 75.8949 54.4582 77.8493 54.4582C79.8037 54.4582 80.6904 55.4173 80.6904 57.8241C80.6904 60.2309 79.8037 61.19 77.8493 61.19C75.8949 61.19 75.0082 60.2309 75.0082 57.8241ZM94.497 60.9909L91.8912 53.3001H90.0815L87.4757 60.9909L85.2499 53.3001H83.386L86.1004 62.3481H88.67L90.9321 55.4716L93.1941 62.3481H95.7637L98.4781 53.3001H96.7228L94.497 60.9909ZM105.478 62.3481V60.9005H102.763V54.6935H105.658V53.3001H102.763V51.2552H101.858L101.116 53.101L99.2344 53.7525V54.6935H100.953V59.688C100.953 61.4976 101.496 62.3481 103.686 62.3481H105.478ZM112.524 53.0105C110.787 53.0105 109.791 53.9877 109.249 55.3268V49.6809H107.439V62.3481H109.249V58.5299C109.249 55.6526 110.226 54.5125 111.999 54.5125C113.139 54.5125 114.008 54.9649 114.008 56.865V62.3481H115.817V56.7022C115.817 54.3316 114.931 53.0105 112.524 53.0105Z" fill="#FAFAFA"/>
<rect x="159.888" y="36" width="98.9071" height="41.6961" rx="15.5148" fill="#212121"/>
<path d="M184.262 50.3142V51.8162H188.442V62.3481H190.306V51.8162H194.468V50.3142H184.262ZM196.746 62.5834C198.665 62.5834 199.66 61.4433 200.022 60.3033C200.022 61.0271 200.058 61.6424 200.13 62.3481H201.777C201.705 61.4976 201.687 60.9547 201.687 60.2852V55.7973C201.687 54.1325 200.456 52.9924 197.959 52.9924C195.389 52.9924 193.96 54.2049 193.942 56.1231H195.751C195.842 54.983 196.547 54.3859 198.031 54.3859C199.588 54.3859 200.022 54.9468 200.022 55.7612C200.022 56.3945 199.624 56.666 198.755 56.8107L196.493 57.1907C194.466 57.5346 193.743 58.4756 193.743 59.9233C193.743 61.5881 194.901 62.5834 196.746 62.5834ZM197.127 61.19C196.186 61.19 195.552 60.7195 195.552 59.8509C195.552 59.0185 196.041 58.5842 197.163 58.3308L198.411 58.0413C198.954 57.9146 199.533 57.7698 200.022 57.4079V57.9508C200.022 59.7604 199.027 61.19 197.127 61.19ZM205.755 62.3481V49.6809H203.946V62.3481H205.755ZM212.315 61.2986C210.758 61.2986 209.6 60.6109 209.455 58.3308H216.585C216.621 58.0956 216.621 57.8784 216.621 57.6432C216.621 55.0554 215.138 53.0105 212.26 53.0105C209.166 53.0105 207.682 55.164 207.682 57.806C207.682 60.4842 209.039 62.6377 212.26 62.6377C215.445 62.6377 216.44 60.8643 216.603 59.6156H214.938C214.685 60.5566 213.961 61.2986 212.315 61.2986ZM212.278 54.3497C213.889 54.3497 214.794 55.1821 214.884 57.0098H209.473C209.691 55.0011 210.722 54.3497 212.278 54.3497ZM223.522 53.0105C221.784 53.0105 220.789 53.9877 220.246 55.3268V53.3001H218.437V62.3481H220.246V58.5299C220.246 55.6526 221.223 54.5125 222.997 54.5125C224.137 54.5125 225.006 54.9649 225.006 56.865V62.3481H226.815V56.7022C226.815 54.3316 225.928 53.0105 223.522 53.0105ZM234.359 62.3481V60.9005H231.645V54.6935H234.54V53.3001H231.645V51.2552H230.74L229.998 53.101L228.116 53.7525V54.6935H229.835V59.688C229.835 61.4976 230.378 62.3481 232.568 62.3481H234.359Z" fill="#FAFAFA"/>
<rect x="28.8877" y="146" width="117.331" height="41.6961" rx="15.5148" fill="#212121"/>
<path d="M62.9027 160.314H53.8184V172.348H55.6823V167.046H62.3598V165.58H55.6823V161.816H62.9027V160.314ZM71.1474 167.118C71.1474 169.815 70.116 171.136 68.5054 171.136C67.293 171.136 66.3882 170.683 66.3882 168.783V163.3H64.5785V168.946C64.5785 171.317 65.5376 172.638 67.9444 172.638C69.6455 172.638 70.6226 171.697 71.1474 170.376V172.348H72.957V163.3H71.1474V167.118ZM80.3947 163.011C78.6575 163.011 77.6622 163.988 77.1193 165.327V163.3H75.3097V172.348H77.1193V168.53C77.1193 165.653 78.0965 164.513 79.8699 164.513C81.01 164.513 81.8786 164.965 81.8786 166.865V172.348H83.6882V166.702C83.6882 164.332 82.8015 163.011 80.3947 163.011ZM93.1488 164.856C92.5335 163.68 91.4297 163.011 89.801 163.011C86.8875 163.011 85.5846 165.164 85.5846 167.824C85.5846 170.484 86.8875 172.638 89.801 172.638C91.4297 172.638 92.5335 171.968 93.1488 170.792V172.348H94.9584V159.681H93.1488V164.856ZM90.181 171.19C88.1723 171.19 87.4123 170.068 87.4123 167.824C87.4123 165.58 88.1723 164.458 90.181 164.458C92.0811 164.458 93.1488 165.508 93.1488 167.824C93.1488 170.14 92.0811 171.19 90.181 171.19ZM99.4976 161.943V160.314H97.2174V161.943H99.4976ZM99.2623 172.348V163.3H97.4527V172.348H99.2623ZM106.708 163.011C104.971 163.011 103.976 163.988 103.433 165.327V163.3H101.623V172.348H103.433V168.53C103.433 165.653 104.41 164.513 106.184 164.513C107.324 164.513 108.192 164.965 108.192 166.865V172.348H110.002V166.702C110.002 164.332 109.115 163.011 106.708 163.011ZM119.426 164.748C118.829 163.68 117.761 163.065 116.168 163.065C113.255 163.065 111.898 164.929 111.898 167.589C111.898 170.249 113.255 172.113 116.168 172.113C117.761 172.113 118.829 171.588 119.426 170.52V172.258C119.426 174.122 118.575 174.773 116.603 174.773C114.793 174.773 113.997 174.049 113.888 172.837H112.079C112.242 175.008 113.834 176.166 116.585 176.166C119.969 176.166 121.235 174.773 121.235 172.312V163.3H119.426V164.748ZM116.603 170.719C114.594 170.719 113.725 169.887 113.725 167.589C113.725 165.291 114.594 164.458 116.603 164.458C118.503 164.458 119.426 165.363 119.426 167.589C119.426 169.815 118.503 170.719 116.603 170.719Z" fill="#FAFAFA"/>
<rect x="28.8877" y="201" width="154.179" height="41.6961" rx="15.5148" fill="#212121"/>
<path d="M59.148 215.314H53.4658V227.348H55.3478V222.607H59.148C61.8262 222.607 62.8939 220.906 62.8939 218.951C62.8939 217.033 61.8262 215.314 59.148 215.314ZM55.3478 221.105V216.816H58.6956C60.3966 216.816 60.9395 217.721 60.9395 218.951C60.9395 220.182 60.3966 221.105 58.6956 221.105H55.3478ZM67.0687 227.583C68.9869 227.583 69.9822 226.443 70.3441 225.303C70.3441 226.027 70.3803 226.642 70.4527 227.348H72.0994C72.027 226.498 72.0089 225.955 72.0089 225.285V220.797C72.0089 219.132 70.7784 217.992 68.2811 217.992C65.7115 217.992 64.2819 219.205 64.2638 221.123H66.0734C66.1639 219.983 66.8696 219.386 68.3535 219.386C69.9098 219.386 70.3441 219.947 70.3441 220.761C70.3441 221.394 69.946 221.666 69.0774 221.811L66.8153 222.191C64.7886 222.534 64.0647 223.475 64.0647 224.923C64.0647 226.588 65.2229 227.583 67.0687 227.583ZM67.4487 226.19C66.5077 226.19 65.8743 225.719 65.8743 224.851C65.8743 224.018 66.3629 223.584 67.4849 223.331L68.7335 223.041C69.2764 222.914 69.8555 222.77 70.3441 222.408V222.951C70.3441 224.76 69.3488 226.19 67.4487 226.19ZM79.3331 218.155C77.6501 218.155 76.6729 219.15 76.13 220.49V218.3H74.3385V227.348H76.1481V223.892C76.1481 221.431 76.7272 219.911 79.1521 219.911H79.6045V218.155H79.3331ZM86.3556 227.348V225.9H83.6412V219.693H86.5366V218.3H83.6412V216.255H82.7364L81.9945 218.101L80.1125 218.752V219.693H81.8316V224.688C81.8316 226.498 82.3745 227.348 84.5641 227.348H86.3556ZM93.4021 218.01C91.6649 218.01 90.6696 218.988 90.1267 220.327V218.3H88.3171V227.348H90.1267V223.53C90.1267 220.652 91.1039 219.512 92.8773 219.512C94.0174 219.512 94.886 219.965 94.886 221.865V227.348H96.6956V221.702C96.6956 219.331 95.8089 218.01 93.4021 218.01ZM103.03 226.298C101.474 226.298 100.316 225.611 100.171 223.331H107.301C107.337 223.095 107.337 222.878 107.337 222.643C107.337 220.055 105.853 218.01 102.976 218.01C99.8815 218.01 98.3976 220.164 98.3976 222.806C98.3976 225.484 99.7548 227.638 102.976 227.638C106.161 227.638 107.156 225.864 107.319 224.616H105.654C105.401 225.557 104.677 226.298 103.03 226.298ZM102.994 219.35C104.605 219.35 105.509 220.182 105.6 222.01H100.189C100.406 220.001 101.438 219.35 102.994 219.35ZM114.147 218.155C112.464 218.155 111.487 219.15 110.944 220.49V218.3H109.152V227.348H110.962V223.892C110.962 221.431 111.541 219.911 113.966 219.911H114.418V218.155H114.147ZM115.128 224.326C115.128 226.172 116.34 227.638 119.326 227.638C121.95 227.638 123.163 226.678 123.163 224.815C123.163 223.421 122.547 222.39 120.303 222.046L118.349 221.756C117.372 221.612 117.1 221.159 117.1 220.616C117.1 219.892 117.661 219.331 119.055 219.331C120.448 219.331 121.118 220.037 121.208 220.87H123.018C122.891 219.169 121.443 217.992 119.109 217.992C116.738 217.992 115.345 219.042 115.345 220.779C115.345 222.154 116.196 223.023 117.77 223.258L120.014 223.602C120.973 223.747 121.389 224.163 121.389 224.905C121.389 225.737 120.991 226.298 119.38 226.298C117.625 226.298 116.883 225.43 116.811 224.326H115.128ZM130.195 218.01C128.458 218.01 127.463 218.988 126.92 220.327V214.681H125.11V227.348H126.92V223.53C126.92 220.652 127.897 219.512 129.67 219.512C130.81 219.512 131.679 219.965 131.679 221.865V227.348H133.489V221.702C133.489 219.331 132.602 218.01 130.195 218.01ZM137.864 216.943V215.314H135.584V216.943H137.864ZM137.629 227.348V218.3H135.819V227.348H137.629ZM145.288 218.01C143.659 218.01 142.555 218.68 141.94 219.856V218.3H140.131V230.967H141.94V225.792C142.555 226.968 143.659 227.638 145.288 227.638C148.201 227.638 149.504 225.484 149.504 222.824C149.504 220.164 148.201 218.01 145.288 218.01ZM144.908 226.19C143.008 226.19 141.94 225.14 141.94 222.824C141.94 220.508 143.008 219.458 144.908 219.458C146.917 219.458 147.677 220.58 147.677 222.824C147.677 225.068 146.917 226.19 144.908 226.19ZM150.949 224.326C150.949 226.172 152.161 227.638 155.147 227.638C157.771 227.638 158.984 226.678 158.984 224.815C158.984 223.421 158.368 222.39 156.125 222.046L154.17 221.756C153.193 221.612 152.922 221.159 152.922 220.616C152.922 219.892 153.482 219.331 154.876 219.331C156.269 219.331 156.939 220.037 157.029 220.87H158.839C158.712 219.169 157.265 217.992 154.93 217.992C152.56 217.992 151.166 219.042 151.166 220.779C151.166 222.154 152.017 223.023 153.591 223.258L155.835 223.602C156.794 223.747 157.21 224.163 157.21 224.905C157.21 225.737 156.812 226.298 155.202 226.298C153.446 226.298 152.704 225.43 152.632 224.326H150.949Z" fill="#FAFAFA"/>
<rect x="28.8877" y="255" width="110.543" height="41.6961" rx="15.5148" fill="#212121"/>
<path d="M59.39 281.656C63.3711 281.656 65.054 279.719 65.2531 276.661H63.3349C63.172 278.815 61.9596 280.117 59.3538 280.117C56.4946 280.117 55.264 278.453 55.264 275.322C55.264 272.191 56.5489 270.527 59.408 270.527C61.9053 270.527 63.0635 271.721 63.2987 273.784H65.1988C64.9274 270.798 63.2806 268.988 59.4442 268.988C55.1917 268.988 53.3097 271.793 53.3097 275.322C53.3097 278.905 55.1374 281.656 59.39 281.656ZM73.7178 276.118C73.7178 278.815 72.6864 280.136 71.0758 280.136C69.8634 280.136 68.9586 279.683 68.9586 277.783V272.3H67.1489V277.946C67.1489 280.317 68.108 281.638 70.5148 281.638C72.2159 281.638 73.1931 280.697 73.7178 279.376V281.348H75.5274V272.3H73.7178V276.118ZM79.8664 281.348V268.681H78.0568V281.348H79.8664ZM87.6528 281.348V279.9H84.9384V273.693H87.8338V272.3H84.9384V270.255H84.0336L83.2917 272.101L81.4097 272.752V273.693H83.1288V278.688C83.1288 280.498 83.6717 281.348 85.8613 281.348H87.6528ZM96.0022 276.118C96.0022 278.815 94.9707 280.136 93.3602 280.136C92.1477 280.136 91.2429 279.683 91.2429 277.783V272.3H89.4333V277.946C89.4333 280.317 90.3924 281.638 92.7992 281.638C94.5002 281.638 95.4774 280.697 96.0022 279.376V281.348H97.8118V272.3H96.0022V276.118ZM105.159 272.155C103.476 272.155 102.499 273.15 101.956 274.49V272.3H100.164V281.348H101.974V277.892C101.974 275.431 102.553 273.911 104.978 273.911H105.43V272.155H105.159ZM110.937 280.298C109.38 280.298 108.222 279.611 108.078 277.331H115.207C115.244 277.095 115.244 276.878 115.244 276.643C115.244 274.055 113.76 272.01 110.882 272.01C107.788 272.01 106.304 274.164 106.304 276.806C106.304 279.484 107.661 281.638 110.882 281.638C114.067 281.638 115.063 279.864 115.226 278.616H113.561C113.307 279.557 112.583 280.298 110.937 280.298ZM110.901 273.35C112.511 273.35 113.416 274.182 113.506 276.01H108.096C108.313 274.001 109.344 273.35 110.901 273.35Z" fill="#FAFAFA"/>
<rect x="164.888" y="146" width="97.9374" height="41.6961" rx="15.5148" fill="#212121"/>
<path d="M202.954 160.314H199.751L196.186 170.539L192.621 160.314H189.382V172.348H191.246V161.762L194.937 172.348H197.398L201.09 161.762V172.348H202.954V160.314ZM221.466 165.616H219.385C218.643 165.616 218.009 166.015 217.973 167.064C217.955 167.77 217.847 168.385 217.666 168.928L214.734 166.395C214.68 166.358 214.644 166.304 214.589 166.268L215.747 165.761C217.322 165.055 218.19 164.205 218.19 162.757C218.19 161.074 216.779 159.988 214.589 159.988C212.327 159.988 210.843 161.11 210.843 163.101C210.843 164.169 211.386 165.055 212.146 165.888C210.463 166.738 209.577 167.697 209.577 169.398C209.577 171.679 211.585 172.674 213.938 172.674C215.874 172.674 217.213 172.113 218.082 171.1L220.127 172.855L221.068 171.86L218.824 169.923C219.168 169.127 219.367 168.15 219.439 167.064H221.466V165.616ZM214.589 161.255C215.747 161.255 216.417 161.762 216.417 162.884C216.417 163.734 215.856 164.187 214.915 164.621L213.522 165.254C212.942 164.603 212.617 163.97 212.617 163.065C212.617 161.852 213.377 161.255 214.589 161.255ZM214.028 171.317C212.255 171.317 211.35 170.502 211.35 169.272C211.35 168.258 212.038 167.444 213.196 166.901L213.703 167.336L216.978 170.14C216.308 170.919 215.313 171.317 214.028 171.317ZM238.931 172.348L234.462 160.314H231.657L227.187 172.348H229.069L230.137 169.489H235.964L237.031 172.348H238.931ZM233.05 161.635L235.403 167.987H230.698L233.05 161.635Z" fill="#FAFAFA"/>
<rect x="168.888" y="91" width="93.089" height="41.6961" rx="15.5148" fill="#212121"/>
<path d="M193.451 113.313C193.451 115.575 194.79 117.638 198.735 117.638C202.173 117.638 203.621 116.262 203.621 113.892C203.621 111.901 202.354 110.942 200.255 110.634L197.305 110.2C196.183 110.037 195.695 109.386 195.695 108.499C195.695 107.287 196.545 106.436 198.5 106.436C200.545 106.436 201.504 107.395 201.685 108.843H203.494C203.331 106.69 201.902 104.988 198.518 104.988C195.297 104.988 193.813 106.545 193.813 108.553C193.813 110.435 194.881 111.503 196.925 111.793L199.712 112.191C201.069 112.39 201.739 113.005 201.739 114.127C201.739 115.358 201.16 116.19 198.735 116.19C196.364 116.19 195.315 115.14 195.261 113.313H193.451ZM208.316 117.583C210.234 117.583 211.229 116.443 211.591 115.303C211.591 116.027 211.627 116.642 211.7 117.348H213.347C213.274 116.498 213.256 115.955 213.256 115.285V110.797C213.256 109.133 212.025 107.992 209.528 107.992C206.959 107.992 205.529 109.205 205.511 111.123H207.32C207.411 109.983 208.117 109.386 209.601 109.386C211.157 109.386 211.591 109.947 211.591 110.761C211.591 111.395 211.193 111.666 210.324 111.811L208.062 112.191C206.036 112.535 205.312 113.476 205.312 114.923C205.312 116.588 206.47 117.583 208.316 117.583ZM208.696 116.19C207.755 116.19 207.121 115.719 207.121 114.851C207.121 114.018 207.61 113.584 208.732 113.331L209.981 113.041C210.524 112.915 211.103 112.77 211.591 112.408V112.951C211.591 114.76 210.596 116.19 208.696 116.19ZM217.325 117.348V104.681H215.515V117.348H217.325ZM223.884 116.299C222.328 116.299 221.169 115.611 221.025 113.331H228.155C228.191 113.096 228.191 112.878 228.191 112.643C228.191 110.055 226.707 108.011 223.83 108.011C220.735 108.011 219.251 110.164 219.251 112.806C219.251 115.484 220.608 117.638 223.83 117.638C227.014 117.638 228.01 115.864 228.173 114.616H226.508C226.254 115.557 225.531 116.299 223.884 116.299ZM223.848 109.35C225.458 109.35 226.363 110.182 226.453 112.01H221.043C221.26 110.001 222.291 109.35 223.848 109.35ZM229.567 114.326C229.567 116.172 230.779 117.638 233.765 117.638C236.389 117.638 237.601 116.679 237.601 114.815C237.601 113.421 236.986 112.39 234.742 112.046L232.788 111.756C231.81 111.612 231.539 111.159 231.539 110.616C231.539 109.893 232.1 109.332 233.493 109.332C234.887 109.332 235.556 110.037 235.647 110.87H237.456C237.33 109.169 235.882 107.992 233.548 107.992C231.177 107.992 229.784 109.042 229.784 110.779C229.784 112.155 230.634 113.023 232.209 113.258L234.453 113.602C235.412 113.747 235.828 114.163 235.828 114.905C235.828 115.738 235.43 116.299 233.819 116.299C232.064 116.299 231.322 115.43 231.25 114.326H229.567Z" fill="#FAFAFA"/>
<path d="M146 0.5C146 33 100.5 20 77.5 18.5C54.5 17 20.5225 8.42827 6.50005 25C0.99999 31.5 1 41.5 1 41.5V58M22.0001 275H1V221.5M1 221.5H22.0001M1 221.5V166.5M1 166.5H22.0001M1 166.5V110.5M1 110.5H22.0001M1 110.5V58M1 58H22.0001" stroke="#C2C2C2" stroke-width="1.53" stroke-dasharray="1.53 1.53"/>
<path d="M143.5 57.5H157" stroke="white" stroke-width="1.53" stroke-dasharray="1.53 1.53"/>
<path d="M153 111H166.5" stroke="white" stroke-width="1.53" stroke-dasharray="1.53 1.53"/>
<path d="M149 166H162.5" stroke="white" stroke-width="1.53" stroke-dasharray="1.53 1.53"/>
<path d="M263.5 57.5H284V111M284 111H266.5M284 111V166M284 166H268M284 166L257.5 221.5M257.5 221.5H189.5M257.5 221.5L231 275.5H146" stroke="white" stroke-width="1.53" stroke-dasharray="1.53 1.53"/>
<path d="M86.5001 302.5C78.0001 345.5 124.5 337.5 144.5 335.5C164.5 333.5 175 345 169.5 353.5" stroke="white" stroke-width="1.53" stroke-dasharray="1.53 1.53"/>
</svg>
